# Blender 4.0.2
# www.blender.org
mtllib battery_box.mtl
o Cube.002
v -0.715499 -1.880414 -0.901630
v -0.715499 1.880414 -0.901630
v 0.715499 -1.880414 -0.901630
v 0.715499 1.880414 -0.901630
v -0.715499 -1.880414 0.026178
v -0.715499 1.880414 0.026178
v 0.715499 1.880414 0.026178
v 0.715499 -1.880414 0.026178
v -0.715499 -1.880414 0.026178
v -0.715499 1.880414 0.026178
v 0.715499 1.880414 0.026178
v 0.715499 -1.880414 0.026178
v -0.532599 -0.810421 0.026178
v -0.532599 0.972123 0.026178
v 0.532599 0.972123 0.026178
v 0.532599 -0.810421 0.026178
v -0.532599 -0.810421 -0.337059
v -0.532599 0.972123 -0.337059
v 0.532599 0.972123 -0.337059
v 0.532599 -0.810421 -0.337059
v -0.048712 1.575660 0.048712
v -0.048712 1.673085 0.048712
v -0.048712 1.575660 -0.048712
v -0.048712 1.673085 -0.048712
v 0.048712 1.575660 0.048712
v 0.048712 1.673085 0.048712
v 0.048712 1.575660 -0.048712
v 0.048712 1.673085 -0.048712
v 0.151560 1.673085 -0.048712
v 0.151560 1.575660 -0.048712
v 0.151560 1.575660 0.048712
v 0.151560 1.673085 0.048712
v -0.048712 1.767072 0.048712
v -0.048712 1.767072 -0.048712
v 0.048712 1.767072 -0.048712
v 0.048712 1.767072 0.048712
v -0.140575 1.575660 -0.048712
v -0.140575 1.575660 0.048712
v -0.140575 1.673085 0.048712
v -0.140575 1.673085 -0.048712
v -0.048712 1.484775 -0.048712
v -0.048712 1.484775 0.048712
v 0.048712 1.484775 -0.048712
v 0.048712 1.484775 0.048712
v -0.212144 -1.610389 0.059502
v -0.212144 -1.491385 0.059502
v -0.212144 -1.610389 -0.059502
v -0.212144 -1.491385 -0.059502
v 0.212144 -1.610389 0.059502
v 0.212144 -1.491385 0.059502
v 0.212144 -1.610389 -0.059502
v 0.212144 -1.491385 -0.059502
vn -1.0000 -0.0000 -0.0000
vn -0.0000 -0.0000 -1.0000
vn 1.0000 -0.0000 -0.0000
vn -0.0000 -1.0000 -0.0000
vn -0.0000 1.0000 -0.0000
vn -0.0000 -0.0000 1.0000
vt 0.000000 0.752718
vt 0.000000 0.501812
vt 0.129095 0.501812
vt 0.129095 0.752718
vt 0.000000 0.250906
vt 0.000000 0.000000
vt 0.250906 0.000000
vt 0.250906 0.250906
vt 0.677167 0.500604
vt 0.677167 0.249698
vt 0.806263 0.249698
vt 0.806263 0.500604
vt 0.806263 0.751510
vt 0.677167 0.751510
vt 0.935358 0.249698
vt 0.935358 0.500604
vt 0.806263 0.500604
vt 0.806263 0.249698
vt 0.375000 0.750000
vt 0.625000 0.750000
vt 0.875000 0.750000
vt 0.125000 0.750000
vt 0.625000 0.000000
vt 0.375000 0.000000
vt 0.869226 0.186768
vt 0.869226 -0.000000
vt 0.919767 -0.000000
vt 0.919767 0.186768
vt 0.218837 0.430427
vt 0.218837 0.311503
vt 0.250906 0.501812
vt 0.032069 0.311503
vt 0.032069 0.430427
vt 0.000000 0.501812
vt 0.750302 0.186768
vt 0.750302 0.000000
vt 0.869226 -0.000000
vt 0.551145 0.870434
vt 0.551145 0.751510
vt 0.601686 0.751510
vt 0.601686 0.870434
vt 0.500604 0.938278
vt 0.500604 0.751510
vt 0.551145 0.751510
vt 0.551145 0.938278
vt 0.652227 0.751510
vt 0.652227 0.870434
vt 0.601686 0.870434
vt 0.601686 0.751510
vt 0.720157 0.751510
vt 0.733713 0.751510
vt 0.733713 0.767617
vt 0.720157 0.767617
vt 0.375000 0.250000
vt 0.625000 0.250000
vt 0.625000 0.500000
vt 0.375000 0.500000
vt 0.690723 0.769543
vt 0.677167 0.769543
vt 0.690723 0.751510
vt 0.763072 0.219957
vt 0.756572 0.219957
vt 0.756572 0.202875
vt 0.763072 0.202875
vt 0.759253 0.765066
vt 0.759253 0.751510
vt 0.765317 0.751510
vt 0.765317 0.765066
vt 0.752983 0.751510
vt 0.752983 0.765066
vt 0.746713 0.765066
vt 0.746713 0.751510
vt 0.740213 0.765066
vt 0.733713 0.765066
vt 0.733713 0.751510
vt 0.740213 0.751510
vt 0.763072 0.237990
vt 0.756572 0.237990
vt 0.704279 0.751510
vt 0.704279 0.768592
vt 0.690723 0.768592
vt 0.690723 0.751510
vt 0.750302 0.219957
vt 0.750302 0.202875
vt 0.759253 0.751510
vt 0.759253 0.765066
vt 0.752983 0.765066
vt 0.752983 0.751510
vt 0.740213 0.765066
vt 0.740213 0.751510
vt 0.125000 0.500000
vt 0.756572 0.186768
vt 0.763072 0.186768
vt 0.000000 0.766274
vt 0.000000 0.752718
vt 0.006064 0.752718
vt 0.006064 0.766274
vt 0.769136 0.202875
vt 0.769136 0.219957
vt 0.712218 0.768068
vt 0.704279 0.768068
vt 0.704279 0.751510
vt 0.712218 0.751510
vt 0.720157 0.768068
vt 0.720157 0.751510
vt 0.676724 0.825903
vt 0.668785 0.825903
vt 0.668785 0.751510
vt 0.676724 0.751510
vt 0.499472 0.749094
vt 0.499472 0.823487
vt 0.482913 0.823487
vt 0.482913 0.749094
vt 0.652227 0.825903
vt 0.652227 0.751510
s 0
usemtl Material.001
f 5/1/1 6/2/1 2/3/1 1/4/1
f 1/5/2 2/6/2 4/7/2 3/8/2
f 3/9/3 4/10/3 7/11/3 8/12/3
f 1/12/4 3/13/4 8/14/4 5/9/4
f 4/15/5 2/16/5 6/17/5 7/18/5
f 8/19/5 7/20/5 11/20/5 12/19/5
f 7/20/5 6/21/5 10/21/5 11/20/5
f 5/22/5 8/19/5 12/19/5 9/22/5
f 6/23/5 5/24/5 9/24/5 10/23/5
f 15/25/4 14/26/4 18/27/4 19/28/4
f 13/29/6 14/30/6 10/8/6 9/31/6
f 15/32/6 16/33/6 12/34/6 11/5/6
f 16/33/6 13/29/6 9/31/6 12/34/6
f 14/30/6 15/32/6 11/5/6 10/8/6
f 20/25/6 19/35/6 18/36/6 17/37/6
f 16/38/1 15/39/1 19/40/1 20/41/1
f 13/42/5 16/43/5 20/44/5 17/45/5
f 14/46/3 13/47/3 17/48/3 18/49/3
f 22/50/5 24/51/5 40/52/5 39/53/5
f 23/54/2 24/55/2 28/56/2 27/57/2
f 28/58/5 26/59/5 32/14/5 29/60/5
f 25/61/6 26/62/6 22/63/6 21/64/6
f 21/65/1 23/66/1 41/67/1 42/68/1
f 24/69/1 22/70/1 33/71/1 34/72/1
f 30/73/3 29/74/3 32/75/3 31/76/3
f 27/57/2 28/56/2 29/56/2 30/57/2
f 26/62/6 25/61/6 31/77/6 32/78/6
f 25/19/4 27/57/4 30/57/4 31/19/4
f 35/79/5 34/80/5 33/81/5 36/82/5
f 22/63/6 26/62/6 36/83/6 33/84/6
f 28/56/2 24/55/2 34/55/2 35/56/2
f 26/85/3 28/86/3 35/87/3 36/88/3
f 38/71/1 39/89/1 40/90/1 37/72/1
f 23/91/4 21/22/4 38/22/4 37/91/4
f 24/55/2 23/54/2 37/54/2 40/55/2
f 21/64/6 22/63/6 39/92/6 38/93/6
f 41/91/4 43/57/4 44/19/4 42/22/4
f 27/94/3 25/95/3 44/96/3 43/97/3
f 25/61/6 21/64/6 42/98/6 44/99/6
f 23/54/2 27/57/2 43/57/2 41/54/2
f 45/100/1 46/101/1 48/102/1 47/103/1
f 47/54/2 48/55/2 52/56/2 51/57/2
f 51/104/3 52/100/3 50/103/3 49/105/3
f 49/106/6 50/107/6 46/108/6 45/109/6
f 47/110/4 51/111/4 49/112/4 45/113/4
f 52/108/5 48/107/5 46/114/5 50/115/5
o Cylinder.001
v 0.000000 0.946754 -0.449945
v 0.000000 1.382794 -0.449945
v 0.076931 0.946754 -0.441916
v 0.076931 1.382794 -0.441916
v 0.150906 0.946754 -0.418137
v 0.150906 1.382794 -0.418137
v 0.219081 0.946754 -0.379522
v 0.219081 1.382794 -0.379522
v 0.278837 0.946754 -0.327556
v 0.278837 1.382794 -0.327556
v 0.327878 0.946754 -0.264234
v 0.327878 1.382794 -0.264234
v 0.364319 0.946754 -0.191991
v 0.364319 1.382794 -0.191991
v 0.386759 0.946754 -0.113602
v 0.386759 1.382794 -0.113602
v 0.394336 0.946754 -0.032081
v 0.394336 1.382794 -0.032081
v 0.386759 0.946754 0.049440
v 0.386759 1.382794 0.049440
v 0.364319 0.946754 0.127829
v 0.364319 1.382794 0.127829
v 0.327878 0.946754 0.200072
v 0.327878 1.382794 0.200072
v 0.278837 0.946754 0.263394
v 0.278837 1.382794 0.263394
v 0.219081 0.946754 0.315360
v 0.219081 1.382794 0.315360
v 0.150906 0.946754 0.353975
v 0.150906 1.382794 0.353975
v 0.076931 0.946754 0.377754
v 0.076931 1.382794 0.377754
v 0.000000 0.946754 0.385783
v 0.000000 1.382794 0.385783
v -0.076931 0.946754 0.377754
v -0.076931 1.382794 0.377754
v -0.150906 0.946754 0.353975
v -0.150906 1.382794 0.353975
v -0.219081 0.946754 0.315360
v -0.219081 1.382794 0.315360
v -0.278837 0.946754 0.263394
v -0.278837 1.382794 0.263394
v -0.327878 0.946754 0.200072
v -0.327878 1.382794 0.200072
v -0.364319 0.946754 0.127829
v -0.364319 1.382794 0.127829
v -0.386759 0.946754 0.049440
v -0.386759 1.382794 0.049440
v -0.394336 0.946754 -0.032081
v -0.394336 1.382794 -0.032081
v -0.386759 0.946754 -0.113602
v -0.386759 1.382794 -0.113602
v -0.364319 0.946754 -0.191991
v -0.364319 1.382794 -0.191991
v -0.327878 0.946754 -0.264234
v -0.327878 1.382794 -0.264234
v -0.278837 0.946754 -0.327556
v -0.278837 1.382794 -0.327556
v -0.219081 0.946754 -0.379522
v -0.219081 1.382794 -0.379522
v -0.150906 0.946754 -0.418137
v -0.150906 1.382794 -0.418137
v -0.076931 0.946754 -0.441916
v -0.076931 1.382794 -0.441916
vn 0.1038 -0.0000 -0.9946
vn 0.3060 -0.0000 -0.9520
vn 0.4928 -0.0000 -0.8701
vn 0.6562 -0.0000 -0.7546
vn 0.7906 -0.0000 -0.6123
vn 0.8928 -0.0000 -0.4504
vn 0.9614 -0.0000 -0.2752
vn 0.9957 -0.0000 -0.0925
vn 0.9957 -0.0000 0.0925
vn 0.9614 -0.0000 0.2752
vn 0.8928 -0.0000 0.4504
vn 0.7906 -0.0000 0.6123
vn 0.6562 -0.0000 0.7546
vn 0.4928 -0.0000 0.8701
vn 0.3060 -0.0000 0.9520
vn 0.1038 -0.0000 0.9946
vn -0.1038 -0.0000 0.9946
vn -0.3060 -0.0000 0.9520
vn -0.4928 -0.0000 0.8701
vn -0.6562 -0.0000 0.7546
vn -0.7906 -0.0000 0.6123
vn -0.8928 -0.0000 0.4504
vn -0.9614 -0.0000 0.2752
vn -0.9957 -0.0000 0.0925
vn -0.9957 -0.0000 -0.0925
vn -0.9614 -0.0000 -0.2752
vn -0.8928 -0.0000 -0.4504
vn -0.7906 -0.0000 -0.6123
vn -0.6562 -0.0000 -0.7546
vn -0.4928 -0.0000 -0.8701
vn -0.0000 1.0000 -0.0000
vn -0.3060 -0.0000 -0.9520
vn -0.1038 -0.0000 -0.9946
vn -0.0000 -1.0000 -0.0000
vt 1.000000 0.500000
vt 1.000000 1.000000
vt 0.968750 1.000000
vt 0.968750 0.500000
vt 0.937500 1.000000
vt 0.937500 0.500000
vt 0.906250 1.000000
vt 0.906250 0.500000
vt 0.875000 1.000000
vt 0.875000 0.500000
vt 0.843750 1.000000
vt 0.843750 0.500000
vt 0.812500 1.000000
vt 0.812500 0.500000
vt 0.781250 1.000000
vt 0.781250 0.500000
vt 0.129095 0.752718
vt 0.129095 0.501812
vt 0.153216 0.501812
vt 0.153216 0.752718
vt 0.177809 0.501812
vt 0.177809 0.752718
vt 0.201930 0.501812
vt 0.201930 0.752718
vt 0.224651 0.501812
vt 0.224651 0.752718
vt 0.245099 0.501812
vt 0.245099 0.752718
vt 0.500604 0.500604
vt 0.500604 0.249698
vt 0.517994 0.249698
vt 0.517994 0.500604
vt 0.538442 0.249698
vt 0.538442 0.500604
vt 0.561164 0.249698
vt 0.561164 0.500604
vt 0.585284 0.249698
vt 0.585284 0.500604
vt 0.609877 0.249698
vt 0.609877 0.500604
vt 0.633998 0.249698
vt 0.633998 0.500604
vt 0.656719 0.249698
vt 0.656719 0.500604
vt 0.677167 0.249698
vt 0.677167 0.500604
vt 0.806263 0.751510
vt 0.806263 0.500604
vt 0.826711 0.500604
vt 0.826711 0.751510
vt 0.849432 0.500604
vt 0.849432 0.751510
vt 0.873553 0.500604
vt 0.873553 0.751510
vt 0.898146 0.500604
vt 0.898146 0.751510
vt 0.922266 0.500604
vt 0.922266 0.751510
vt 0.218750 0.500000
vt 0.218750 1.000000
vt 0.187500 1.000000
vt 0.187500 0.500000
vt 0.156250 1.000000
vt 0.156250 0.500000
vt 0.125000 1.000000
vt 0.125000 0.500000
vt 0.093750 1.000000
vt 0.093750 0.500000
vt 0.062500 1.000000
vt 0.062500 0.500000
vt 0.500604 0.112552
vt 0.500604 0.137146
vt 0.495806 0.161266
vt 0.486395 0.183987
vt 0.472732 0.204436
vt 0.455342 0.221826
vt 0.434893 0.235489
vt 0.412172 0.244900
vt 0.388052 0.249698
vt 0.363459 0.249698
vt 0.339338 0.244900
vt 0.316617 0.235489
vt 0.296169 0.221825
vt 0.278779 0.204436
vt 0.265115 0.183987
vt 0.255704 0.161266
vt 0.250906 0.137146
vt 0.250906 0.112552
vt 0.255704 0.088432
vt 0.265115 0.065711
vt 0.278779 0.045262
vt 0.296169 0.027872
vt 0.316617 0.014209
vt 0.339338 0.004798
vt 0.363459 0.000000
vt 0.388052 0.000000
vt 0.412172 0.004798
vt 0.434893 0.014209
vt 0.455342 0.027872
vt 0.472732 0.045262
vt 0.486395 0.065711
vt 0.495806 0.088432
vt 0.031250 1.000000
vt 0.031250 0.500000
vt 0.000000 1.000000
vt 0.000000 0.500000
vt 0.500604 0.386844
vt 0.495806 0.410964
vt 0.486395 0.433685
vt 0.472732 0.454134
vt 0.455342 0.471524
vt 0.434893 0.485187
vt 0.412172 0.494598
vt 0.388052 0.499396
vt 0.363459 0.499396
vt 0.339338 0.494598
vt 0.316617 0.485187
vt 0.296169 0.471523
vt 0.278779 0.454134
vt 0.265115 0.433685
vt 0.255704 0.410964
vt 0.250906 0.386844
vt 0.250906 0.362250
vt 0.255704 0.338130
vt 0.265115 0.315409
vt 0.278779 0.294960
vt 0.296169 0.277570
vt 0.316617 0.263907
vt 0.339338 0.254496
vt 0.363459 0.249698
vt 0.388052 0.249698
vt 0.412172 0.254496
vt 0.434893 0.263907
vt 0.455342 0.277570
vt 0.472732 0.294960
vt 0.486395 0.315409
vt 0.495806 0.338130
vt 0.500604 0.362250
s 0
usemtl Material.003
f 53/116/7 54/117/7 56/118/7 55/119/7
f 55/119/8 56/118/8 58/120/8 57/121/8
f 57/121/9 58/120/9 60/122/9 59/123/9
f 59/123/10 60/122/10 62/124/10 61/125/10
f 61/125/11 62/124/11 64/126/11 63/127/11
f 63/127/12 64/126/12 66/128/12 65/129/12
f 65/129/13 66/128/13 68/130/13 67/131/13
f 67/132/14 68/133/14 70/134/14 69/135/14
f 69/135/15 70/134/15 72/136/15 71/137/15
f 71/137/16 72/136/16 74/138/16 73/139/16
f 73/139/17 74/138/17 76/140/17 75/141/17
f 75/141/18 76/140/18 78/142/18 77/143/18
f 77/144/19 78/145/19 80/146/19 79/147/19
f 79/147/20 80/146/20 82/148/20 81/149/20
f 81/149/21 82/148/21 84/150/21 83/151/21
f 83/151/22 84/150/22 86/152/22 85/153/22
f 85/153/23 86/152/23 88/154/23 87/155/23
f 87/155/24 88/154/24 90/156/24 89/157/24
f 89/157/25 90/156/25 92/158/25 91/159/25
f 91/159/26 92/158/26 94/160/26 93/161/26
f 93/162/27 94/163/27 96/164/27 95/165/27
f 95/165/28 96/164/28 98/166/28 97/167/28
f 97/167/29 98/166/29 100/168/29 99/169/29
f 99/169/30 100/168/30 102/170/30 101/171/30
f 101/171/31 102/170/31 104/172/31 103/173/31
f 103/174/32 104/175/32 106/176/32 105/177/32
f 105/177/33 106/176/33 108/178/33 107/179/33
f 107/179/34 108/178/34 110/180/34 109/181/34
f 109/181/35 110/180/35 112/182/35 111/183/35
f 111/183/36 112/182/36 114/184/36 113/185/36
f 56/186/37 54/187/37 116/188/37 114/189/37 112/190/37 110/191/37 108/192/37 106/193/37 104/194/37 102/195/37 100/196/37 98/197/37 96/198/37 94/199/37 92/200/37 90/201/37 88/202/37 86/203/37 84/204/37 82/205/37 80/206/37 78/207/37 76/208/37 74/209/37 72/210/37 70/211/37 68/212/37 66/213/37 64/214/37 62/215/37 60/216/37 58/217/37
f 113/185/38 114/184/38 116/218/38 115/219/38
f 115/219/39 116/218/39 54/220/39 53/221/39
f 53/222/40 55/223/40 57/224/40 59/225/40 61/226/40 63/227/40 65/228/40 67/229/40 69/230/40 71/231/40 73/232/40 75/233/40 77/234/40 79/235/40 81/236/40 83/237/40 85/238/40 87/239/40 89/240/40 91/241/40 93/242/40 95/243/40 97/244/40 99/245/40 101/246/40 103/247/40 105/248/40 107/249/40 109/250/40 111/251/40 113/252/40 115/253/40
o Cylinder.002
v 0.006957 -1.215482 -0.433236
v 0.006957 -0.779442 -0.433236
v 0.083888 -1.215482 -0.425207
v 0.083888 -0.779442 -0.425207
v 0.157863 -1.215482 -0.401428
v 0.157863 -0.779442 -0.401428
v 0.226038 -1.215482 -0.362813
v 0.226038 -0.779442 -0.362813
v 0.285794 -1.215482 -0.310846
v 0.285794 -0.779442 -0.310846
v 0.334835 -1.215482 -0.247525
v 0.334835 -0.779442 -0.247525
v 0.371275 -1.215482 -0.175281
v 0.371275 -0.779442 -0.175281
v 0.393715 -1.215482 -0.096893
v 0.393715 -0.779442 -0.096893
v 0.401292 -1.215482 -0.015372
v 0.401292 -0.779442 -0.015372
v 0.393715 -1.215482 0.066150
v 0.393715 -0.779442 0.066150
v 0.371275 -1.215482 0.144538
v 0.371275 -0.779442 0.144538
v 0.334835 -1.215482 0.216781
v 0.334835 -0.779442 0.216781
v 0.285794 -1.215482 0.280103
v 0.285794 -0.779442 0.280103
v 0.226038 -1.215482 0.332070
v 0.226038 -0.779442 0.332070
v 0.157863 -1.215482 0.370685
v 0.157863 -0.779442 0.370685
v 0.083888 -1.215482 0.394463
v 0.083888 -0.779442 0.394463
v 0.006957 -1.215482 0.402493
v 0.006957 -0.779442 0.402493
v -0.069974 -1.215482 0.394463
v -0.069974 -0.779442 0.394463
v -0.143949 -1.215482 0.370685
v -0.143949 -0.779442 0.370685
v -0.212124 -1.215482 0.332070
v -0.212124 -0.779442 0.332070
v -0.271881 -1.215482 0.280103
v -0.271881 -0.779442 0.280103
v -0.320921 -1.215482 0.216781
v -0.320921 -0.779442 0.216781
v -0.357362 -1.215482 0.144538
v -0.357362 -0.779442 0.144538
v -0.379802 -1.215482 0.066150
v -0.379802 -0.779442 0.066150
v -0.387379 -1.215482 -0.015372
v -0.387379 -0.779442 -0.015372
v -0.379802 -1.215482 -0.096893
v -0.379802 -0.779442 -0.096893
v -0.357362 -1.215482 -0.175281
v -0.357362 -0.779442 -0.175281
v -0.320921 -1.215482 -0.247525
v -0.320921 -0.779442 -0.247525
v -0.271881 -1.215482 -0.310846
v -0.271881 -0.779442 -0.310846
v -0.212124 -1.215482 -0.362813
v -0.212124 -0.779442 -0.362813
v -0.143949 -1.215482 -0.401428
v -0.143949 -0.779442 -0.401428
v -0.069974 -1.215482 -0.425207
v -0.069974 -0.779442 -0.425207
vn 0.1038 -0.0000 -0.9946
vn 0.3060 -0.0000 -0.9520
vn 0.4928 -0.0000 -0.8701
vn 0.6562 -0.0000 -0.7546
vn 0.7906 -0.0000 -0.6123
vn 0.8928 -0.0000 -0.4504
vn 0.9614 -0.0000 -0.2752
vn 0.9957 -0.0000 -0.0925
vn 0.9957 -0.0000 0.0925
vn 0.9614 -0.0000 0.2752
vn 0.8928 -0.0000 0.4504
vn 0.7906 -0.0000 0.6123
vn 0.6562 -0.0000 0.7546
vn 0.4928 -0.0000 0.8701
vn 0.3060 -0.0000 0.9520
vn 0.1038 -0.0000 0.9946
vn -0.1038 -0.0000 0.9946
vn -0.3060 -0.0000 0.9520
vn -0.4928 -0.0000 0.8701
vn -0.6562 -0.0000 0.7546
vn -0.7906 -0.0000 0.6123
vn -0.8928 -0.0000 0.4504
vn -0.9614 -0.0000 0.2752
vn -0.9957 -0.0000 0.0925
vn -0.9957 -0.0000 -0.0925
vn -0.9614 -0.0000 -0.2752
vn -0.8928 -0.0000 -0.4504
vn -0.7906 -0.0000 -0.6123
vn -0.6562 -0.0000 -0.7546
vn -0.4928 -0.0000 -0.8701
vn -0.0000 1.0000 -0.0000
vn -0.3060 -0.0000 -0.9520
vn -0.1038 -0.0000 -0.9946
vn -0.0000 -1.0000 -0.0000
vt 1.000000 0.500000
vt 1.000000 1.000000
vt 0.968750 1.000000
vt 0.968750 0.500000
vt 0.937500 1.000000
vt 0.937500 0.500000
vt 0.906250 1.000000
vt 0.906250 0.500000
vt 0.875000 1.000000
vt 0.875000 0.500000
vt 0.843750 1.000000
vt 0.843750 0.500000
vt 0.812500 1.000000
vt 0.812500 0.500000
vt 0.781250 1.000000
vt 0.781250 0.500000
vt 0.250906 1.000000
vt 0.250906 0.749094
vt 0.275027 0.749094
vt 0.275027 1.000000
vt 0.299620 0.749094
vt 0.299620 1.000000
vt 0.323740 0.749094
vt 0.323740 1.000000
vt 0.346461 0.749094
vt 0.346461 1.000000
vt 0.366910 0.749094
vt 0.366910 1.000000
vt 0.500604 0.751510
vt 0.500604 0.500604
vt 0.517994 0.500604
vt 0.517994 0.751510
vt 0.538442 0.500604
vt 0.538442 0.751510
vt 0.561164 0.500604
vt 0.561164 0.751510
vt 0.585284 0.500604
vt 0.585284 0.751510
vt 0.609877 0.500604
vt 0.609877 0.751510
vt 0.633998 0.500604
vt 0.633998 0.751510
vt 0.656719 0.500604
vt 0.656719 0.751510
vt 0.677167 0.500604
vt 0.677167 0.751510
vt 0.366910 1.000000
vt 0.366910 0.749094
vt 0.387358 0.749094
vt 0.387358 1.000000
vt 0.410079 0.749094
vt 0.410079 1.000000
vt 0.434200 0.749094
vt 0.434200 1.000000
vt 0.458793 0.749094
vt 0.458793 1.000000
vt 0.482913 0.749094
vt 0.482913 1.000000
vt 0.218750 0.500000
vt 0.218750 1.000000
vt 0.187500 1.000000
vt 0.187500 0.500000
vt 0.156250 1.000000
vt 0.156250 0.500000
vt 0.125000 1.000000
vt 0.125000 0.500000
vt 0.093750 1.000000
vt 0.093750 0.500000
vt 0.062500 1.000000
vt 0.062500 0.500000
vt 0.500604 0.611948
vt 0.500604 0.636541
vt 0.495806 0.660662
vt 0.486395 0.683383
vt 0.472732 0.703831
vt 0.455342 0.721221
vt 0.434893 0.734885
vt 0.412172 0.744296
vt 0.388052 0.749094
vt 0.363459 0.749094
vt 0.339338 0.744296
vt 0.316617 0.734885
vt 0.296169 0.721221
vt 0.278779 0.703831
vt 0.265115 0.683383
vt 0.255704 0.660662
vt 0.250906 0.636541
vt 0.250906 0.611948
vt 0.255704 0.587828
vt 0.265115 0.565107
vt 0.278779 0.544658
vt 0.296169 0.527268
vt 0.316617 0.513605
vt 0.339338 0.504194
vt 0.363459 0.499396
vt 0.388052 0.499396
vt 0.412172 0.504194
vt 0.434893 0.513605
vt 0.455342 0.527268
vt 0.472732 0.544658
vt 0.486395 0.565107
vt 0.495806 0.587828
vt 0.031250 1.000000
vt 0.031250 0.500000
vt 0.000000 1.000000
vt 0.000000 0.500000
vt 0.750302 0.137146
vt 0.745504 0.161266
vt 0.736093 0.183987
vt 0.722430 0.204436
vt 0.705040 0.221826
vt 0.684591 0.235489
vt 0.661870 0.244900
vt 0.637750 0.249698
vt 0.613157 0.249698
vt 0.589036 0.244900
vt 0.566315 0.235489
vt 0.545866 0.221826
vt 0.528477 0.204436
vt 0.514813 0.183987
vt 0.505402 0.161266
vt 0.500604 0.137146
vt 0.500604 0.112552
vt 0.505402 0.088432
vt 0.514813 0.065711
vt 0.528477 0.045262
vt 0.545867 0.027872
vt 0.566315 0.014209
vt 0.589036 0.004798
vt 0.613157 0.000000
vt 0.637750 0.000000
vt 0.661870 0.004798
vt 0.684591 0.014209
vt 0.705040 0.027872
vt 0.722430 0.045262
vt 0.736093 0.065711
vt 0.745504 0.088432
vt 0.750302 0.112552
s 0
usemtl Material.002
f 117/254/41 118/255/41 120/256/41 119/257/41
f 119/257/42 120/256/42 122/258/42 121/259/42
f 121/259/43 122/258/43 124/260/43 123/261/43
f 123/261/44 124/260/44 126/262/44 125/263/44
f 125/263/45 126/262/45 128/264/45 127/265/45
f 127/265/46 128/264/46 130/266/46 129/267/46
f 129/267/47 130/266/47 132/268/47 131/269/47
f 131/270/48 132/271/48 134/272/48 133/273/48
f 133/273/49 134/272/49 136/274/49 135/275/49
f 135/275/50 136/274/50 138/276/50 137/277/50
f 137/277/51 138/276/51 140/278/51 139/279/51
f 139/279/52 140/278/52 142/280/52 141/281/52
f 141/282/53 142/283/53 144/284/53 143/285/53
f 143/285/54 144/284/54 146/286/54 145/287/54
f 145/287/55 146/286/55 148/288/55 147/289/55
f 147/289/56 148/288/56 150/290/56 149/291/56
f 149/291/57 150/290/57 152/292/57 151/293/57
f 151/293/58 152/292/58 154/294/58 153/295/58
f 153/295/59 154/294/59 156/296/59 155/297/59
f 155/297/60 156/296/60 158/298/60 157/299/60
f 157/300/61 158/301/61 160/302/61 159/303/61
f 159/303/62 160/302/62 162/304/62 161/305/62
f 161/305/63 162/304/63 164/306/63 163/307/63
f 163/307/64 164/306/64 166/308/64 165/309/64
f 165/309/65 166/308/65 168/310/65 167/311/65
f 167/312/66 168/313/66 170/314/66 169/315/66
f 169/315/67 170/314/67 172/316/67 171/317/67
f 171/317/68 172/316/68 174/318/68 173/319/68
f 173/319/69 174/318/69 176/320/69 175/321/69
f 175/321/70 176/320/70 178/322/70 177/323/70
f 120/324/71 118/325/71 180/326/71 178/327/71 176/328/71 174/329/71 172/330/71 170/331/71 168/332/71 166/333/71 164/334/71 162/335/71 160/336/71 158/337/71 156/338/71 154/339/71 152/340/71 150/341/71 148/342/71 146/343/71 144/344/71 142/345/71 140/346/71 138/347/71 136/348/71 134/349/71 132/350/71 130/351/71 128/352/71 126/353/71 124/354/71 122/355/71
f 177/323/72 178/322/72 180/356/72 179/357/72
f 179/357/73 180/356/73 118/358/73 117/359/73
f 117/360/74 119/361/74 121/362/74 123/363/74 125/364/74 127/365/74 129/366/74 131/367/74 133/368/74 135/369/74 137/370/74 139/371/74 141/372/74 143/373/74 145/374/74 147/375/74 149/376/74 151/377/74 153/378/74 155/379/74 157/380/74 159/381/74 161/382/74 163/383/74 165/384/74 167/385/74 169/386/74 171/387/74 173/388/74 175/389/74 177/390/74 179/391/74
