# Blender 4.0.2
# www.blender.org
mtllib battery_box.mtl
o Cube.002
v -0.715499 -1.880414 -0.901630
v -0.715499 1.880414 -0.901630
v 0.715499 -1.880414 -0.901630
v 0.715499 1.880414 -0.901630
v -0.715499 -1.880414 0.026178
v -0.715499 1.880414 0.026178
v 0.715499 1.880414 0.026178
v 0.715499 -1.880414 0.026178
v -0.715499 -1.880414 0.026178
v -0.715499 1.880414 0.026178
v 0.715499 1.880414 0.026178
v 0.715499 -1.880414 0.026178
v -0.532599 -0.810421 0.026178
v -0.532599 0.972123 0.026178
v 0.532599 0.972123 0.026178
v 0.532599 -0.810421 0.026178
v -0.532599 -0.810421 -0.337059
v -0.532599 0.972123 -0.337059
v 0.532599 0.972123 -0.337059
v 0.532599 -0.810421 -0.337059
v -0.048712 1.575660 0.048712
v -0.048712 1.673085 0.048712
v -0.048712 1.575660 -0.048712
v -0.048712 1.673085 -0.048712
v 0.048712 1.575660 0.048712
v 0.048712 1.673085 0.048712
v 0.048712 1.575660 -0.048712
v 0.048712 1.673085 -0.048712
v 0.151560 1.673085 -0.048712
v 0.151560 1.575660 -0.048712
v 0.151560 1.575660 0.048712
v 0.151560 1.673085 0.048712
v -0.048712 1.767072 0.048712
v -0.048712 1.767072 -0.048712
v 0.048712 1.767072 -0.048712
v 0.048712 1.767072 0.048712
v -0.140575 1.575660 -0.048712
v -0.140575 1.575660 0.048712
v -0.140575 1.673085 0.048712
v -0.140575 1.673085 -0.048712
v -0.048712 1.484775 -0.048712
v -0.048712 1.484775 0.048712
v 0.048712 1.484775 -0.048712
v 0.048712 1.484775 0.048712
v -0.212144 -1.610389 0.059502
v -0.212144 -1.491385 0.059502
v -0.212144 -1.610389 -0.059502
v -0.212144 -1.491385 -0.059502
v 0.212144 -1.610389 0.059502
v 0.212144 -1.491385 0.059502
v 0.212144 -1.610389 -0.059502
v 0.212144 -1.491385 -0.059502
vn -1.0000 -0.0000 -0.0000
vn -0.0000 -0.0000 -1.0000
vn 1.0000 -0.0000 -0.0000
vn -0.0000 -1.0000 -0.0000
vn -0.0000 1.0000 -0.0000
vn -0.0000 -0.0000 1.0000
vt 0.375000 0.000000
vt 0.625000 0.000000
vt 0.625000 0.250000
vt 0.375000 0.250000
vt 0.625000 0.500000
vt 0.375000 0.500000
vt 0.625000 0.750000
vt 0.375000 0.750000
vt 0.125000 0.500000
vt 0.125000 0.750000
vt 0.875000 0.500000
vt 0.875000 0.750000
vt 0.593047 0.781953
vt 0.593047 0.968047
vt 0.406953 0.968047
vt 0.625000 1.000000
vt 0.375000 1.000000
vt 0.406953 0.781953
s 0
usemtl Material.001
f 5/1/1 6/2/1 2/3/1 1/4/1
f 1/4/2 2/3/2 4/5/2 3/6/2
f 3/6/3 4/5/3 7/7/3 8/8/3
f 1/9/4 3/6/4 8/8/4 5/10/4
f 4/5/5 2/11/5 6/12/5 7/7/5
f 8/8/5 7/7/5 11/7/5 12/8/5
f 7/7/5 6/12/5 10/12/5 11/7/5
f 5/10/5 8/8/5 12/8/5 9/10/5
f 6/2/5 5/1/5 9/1/5 10/2/5
f 15/13/4 14/14/4 18/14/4 19/13/4
f 13/15/6 14/14/6 10/16/6 9/17/6
f 15/13/6 16/18/6 12/8/6 11/7/6
f 16/18/6 13/15/6 9/17/6 12/8/6
f 14/14/6 15/13/6 11/7/6 10/16/6
f 20/18/6 19/13/6 18/14/6 17/15/6
f 16/18/1 15/13/1 19/13/1 20/18/1
f 13/15/5 16/18/5 20/18/5 17/15/5
f 14/14/3 13/15/3 17/15/3 18/14/3
f 22/2/5 24/3/5 40/3/5 39/2/5
f 23/4/2 24/3/2 28/5/2 27/6/2
f 28/5/5 26/7/5 32/7/5 29/5/5
f 25/8/6 26/7/6 22/16/6 21/17/6
f 21/10/1 23/9/1 41/9/1 42/10/1
f 24/3/1 22/2/1 33/2/1 34/3/1
f 30/6/3 29/5/3 32/7/3 31/8/3
f 27/6/2 28/5/2 29/5/2 30/6/2
f 26/7/6 25/8/6 31/8/6 32/7/6
f 25/8/4 27/6/4 30/6/4 31/8/4
f 35/5/5 34/11/5 33/12/5 36/7/5
f 22/16/6 26/7/6 36/7/6 33/16/6
f 28/5/2 24/3/2 34/3/2 35/5/2
f 26/7/3 28/5/3 35/5/3 36/7/3
f 38/1/1 39/2/1 40/3/1 37/4/1
f 23/9/4 21/10/4 38/10/4 37/9/4
f 24/3/2 23/4/2 37/4/2 40/3/2
f 21/17/6 22/16/6 39/16/6 38/17/6
f 41/9/4 43/6/4 44/8/4 42/10/4
f 27/6/3 25/8/3 44/8/3 43/6/3
f 25/8/6 21/17/6 42/17/6 44/8/6
f 23/4/2 27/6/2 43/6/2 41/4/2
f 45/1/1 46/2/1 48/3/1 47/4/1
f 47/4/2 48/3/2 52/5/2 51/6/2
f 51/6/3 52/5/3 50/7/3 49/8/3
f 49/8/6 50/7/6 46/16/6 45/17/6
f 47/9/4 51/6/4 49/8/4 45/10/4
f 52/5/5 48/11/5 46/12/5 50/7/5
o Cylinder.001
v 0.000000 0.946754 -0.449945
v 0.000000 1.382794 -0.449945
v 0.076931 0.946754 -0.441916
v 0.076931 1.382794 -0.441916
v 0.150906 0.946754 -0.418137
v 0.150906 1.382794 -0.418137
v 0.219081 0.946754 -0.379522
v 0.219081 1.382794 -0.379522
v 0.278837 0.946754 -0.327556
v 0.278837 1.382794 -0.327556
v 0.327878 0.946754 -0.264234
v 0.327878 1.382794 -0.264234
v 0.364319 0.946754 -0.191991
v 0.364319 1.382794 -0.191991
v 0.386759 0.946754 -0.113602
v 0.386759 1.382794 -0.113602
v 0.394336 0.946754 -0.032081
v 0.394336 1.382794 -0.032081
v 0.386759 0.946754 0.049440
v 0.386759 1.382794 0.049440
v 0.364319 0.946754 0.127829
v 0.364319 1.382794 0.127829
v 0.327878 0.946754 0.200072
v 0.327878 1.382794 0.200072
v 0.278837 0.946754 0.263394
v 0.278837 1.382794 0.263394
v 0.219081 0.946754 0.315360
v 0.219081 1.382794 0.315360
v 0.150906 0.946754 0.353975
v 0.150906 1.382794 0.353975
v 0.076931 0.946754 0.377754
v 0.076931 1.382794 0.377754
v 0.000000 0.946754 0.385783
v 0.000000 1.382794 0.385783
v -0.076931 0.946754 0.377754
v -0.076931 1.382794 0.377754
v -0.150906 0.946754 0.353975
v -0.150906 1.382794 0.353975
v -0.219081 0.946754 0.315360
v -0.219081 1.382794 0.315360
v -0.278837 0.946754 0.263394
v -0.278837 1.382794 0.263394
v -0.327878 0.946754 0.200072
v -0.327878 1.382794 0.200072
v -0.364319 0.946754 0.127829
v -0.364319 1.382794 0.127829
v -0.386759 0.946754 0.049440
v -0.386759 1.382794 0.049440
v -0.394336 0.946754 -0.032081
v -0.394336 1.382794 -0.032081
v -0.386759 0.946754 -0.113602
v -0.386759 1.382794 -0.113602
v -0.364319 0.946754 -0.191991
v -0.364319 1.382794 -0.191991
v -0.327878 0.946754 -0.264234
v -0.327878 1.382794 -0.264234
v -0.278837 0.946754 -0.327556
v -0.278837 1.382794 -0.327556
v -0.219081 0.946754 -0.379522
v -0.219081 1.382794 -0.379522
v -0.150906 0.946754 -0.418137
v -0.150906 1.382794 -0.418137
v -0.076931 0.946754 -0.441916
v -0.076931 1.382794 -0.441916
vn 0.1038 -0.0000 -0.9946
vn 0.3060 -0.0000 -0.9520
vn 0.4928 -0.0000 -0.8701
vn 0.6562 -0.0000 -0.7546
vn 0.7906 -0.0000 -0.6123
vn 0.8928 -0.0000 -0.4504
vn 0.9614 -0.0000 -0.2752
vn 0.9957 -0.0000 -0.0925
vn 0.9957 -0.0000 0.0925
vn 0.9614 -0.0000 0.2752
vn 0.8928 -0.0000 0.4504
vn 0.7906 -0.0000 0.6123
vn 0.6562 -0.0000 0.7546
vn 0.4928 -0.0000 0.8701
vn 0.3060 -0.0000 0.9520
vn 0.1038 -0.0000 0.9946
vn -0.1038 -0.0000 0.9946
vn -0.3060 -0.0000 0.9520
vn -0.4928 -0.0000 0.8701
vn -0.6562 -0.0000 0.7546
vn -0.7906 -0.0000 0.6123
vn -0.8928 -0.0000 0.4504
vn -0.9614 -0.0000 0.2752
vn -0.9957 -0.0000 0.0925
vn -0.9957 -0.0000 -0.0925
vn -0.9614 -0.0000 -0.2752
vn -0.8928 -0.0000 -0.4504
vn -0.7906 -0.0000 -0.6123
vn -0.6562 -0.0000 -0.7546
vn -0.4928 -0.0000 -0.8701
vn -0.0000 1.0000 -0.0000
vn -0.3060 -0.0000 -0.9520
vn -0.1038 -0.0000 -0.9946
vn -0.0000 -1.0000 -0.0000
vt 1.000000 0.500000
vt 1.000000 1.000000
vt 0.968750 1.000000
vt 0.968750 0.500000
vt 0.937500 1.000000
vt 0.937500 0.500000
vt 0.906250 1.000000
vt 0.906250 0.500000
vt 0.875000 1.000000
vt 0.875000 0.500000
vt 0.843750 1.000000
vt 0.843750 0.500000
vt 0.812500 1.000000
vt 0.812500 0.500000
vt 0.781250 1.000000
vt 0.781250 0.500000
vt 0.750000 1.000000
vt 0.750000 0.500000
vt 0.718750 1.000000
vt 0.718750 0.500000
vt 0.687500 1.000000
vt 0.687500 0.500000
vt 0.656250 1.000000
vt 0.656250 0.500000
vt 0.625000 1.000000
vt 0.625000 0.500000
vt 0.593750 1.000000
vt 0.593750 0.500000
vt 0.562500 1.000000
vt 0.562500 0.500000
vt 0.531250 1.000000
vt 0.531250 0.500000
vt 0.500000 1.000000
vt 0.500000 0.500000
vt 0.468750 1.000000
vt 0.468750 0.500000
vt 0.437500 1.000000
vt 0.437500 0.500000
vt 0.406250 1.000000
vt 0.406250 0.500000
vt 0.375000 1.000000
vt 0.375000 0.500000
vt 0.343750 1.000000
vt 0.343750 0.500000
vt 0.312500 1.000000
vt 0.312500 0.500000
vt 0.281250 1.000000
vt 0.281250 0.500000
vt 0.250000 1.000000
vt 0.250000 0.500000
vt 0.218750 1.000000
vt 0.218750 0.500000
vt 0.187500 1.000000
vt 0.187500 0.500000
vt 0.156250 1.000000
vt 0.156250 0.500000
vt 0.125000 1.000000
vt 0.125000 0.500000
vt 0.093750 1.000000
vt 0.093750 0.500000
vt 0.062500 1.000000
vt 0.062500 0.500000
vt 0.296822 0.485388
vt 0.250000 0.490000
vt 0.203178 0.485388
vt 0.158156 0.471731
vt 0.116663 0.449553
vt 0.080294 0.419706
vt 0.050447 0.383337
vt 0.028269 0.341844
vt 0.014612 0.296822
vt 0.010000 0.250000
vt 0.014612 0.203178
vt 0.028269 0.158156
vt 0.050447 0.116663
vt 0.080294 0.080294
vt 0.116663 0.050447
vt 0.158156 0.028269
vt 0.203178 0.014612
vt 0.250000 0.010000
vt 0.296822 0.014612
vt 0.341844 0.028269
vt 0.383337 0.050447
vt 0.419706 0.080294
vt 0.449553 0.116663
vt 0.471731 0.158156
vt 0.485388 0.203178
vt 0.490000 0.250000
vt 0.485388 0.296822
vt 0.471731 0.341844
vt 0.449553 0.383337
vt 0.419706 0.419706
vt 0.383337 0.449553
vt 0.341844 0.471731
vt 0.031250 1.000000
vt 0.031250 0.500000
vt 0.000000 1.000000
vt 0.000000 0.500000
vt 0.750000 0.490000
vt 0.796822 0.485388
vt 0.841844 0.471731
vt 0.883337 0.449553
vt 0.919706 0.419706
vt 0.949553 0.383337
vt 0.971731 0.341844
vt 0.985388 0.296822
vt 0.990000 0.250000
vt 0.985388 0.203178
vt 0.971731 0.158156
vt 0.949553 0.116663
vt 0.919706 0.080294
vt 0.883337 0.050447
vt 0.841844 0.028269
vt 0.796822 0.014612
vt 0.750000 0.010000
vt 0.703178 0.014612
vt 0.658156 0.028269
vt 0.616663 0.050447
vt 0.580294 0.080294
vt 0.550447 0.116663
vt 0.528269 0.158156
vt 0.514612 0.203178
vt 0.510000 0.250000
vt 0.514612 0.296822
vt 0.528269 0.341844
vt 0.550447 0.383337
vt 0.580294 0.419706
vt 0.616663 0.449553
vt 0.658156 0.471731
vt 0.703178 0.485388
s 0
f 53/19/7 54/20/7 56/21/7 55/22/7
f 55/22/8 56/21/8 58/23/8 57/24/8
f 57/24/9 58/23/9 60/25/9 59/26/9
f 59/26/10 60/25/10 62/27/10 61/28/10
f 61/28/11 62/27/11 64/29/11 63/30/11
f 63/30/12 64/29/12 66/31/12 65/32/12
f 65/32/13 66/31/13 68/33/13 67/34/13
f 67/34/14 68/33/14 70/35/14 69/36/14
f 69/36/15 70/35/15 72/37/15 71/38/15
f 71/38/16 72/37/16 74/39/16 73/40/16
f 73/40/17 74/39/17 76/41/17 75/42/17
f 75/42/18 76/41/18 78/43/18 77/44/18
f 77/44/19 78/43/19 80/45/19 79/46/19
f 79/46/20 80/45/20 82/47/20 81/48/20
f 81/48/21 82/47/21 84/49/21 83/50/21
f 83/50/22 84/49/22 86/51/22 85/52/22
f 85/52/23 86/51/23 88/53/23 87/54/23
f 87/54/24 88/53/24 90/55/24 89/56/24
f 89/56/25 90/55/25 92/57/25 91/58/25
f 91/58/26 92/57/26 94/59/26 93/60/26
f 93/60/27 94/59/27 96/61/27 95/62/27
f 95/62/28 96/61/28 98/63/28 97/64/28
f 97/64/29 98/63/29 100/65/29 99/66/29
f 99/66/30 100/65/30 102/67/30 101/68/30
f 101/68/31 102/67/31 104/69/31 103/70/31
f 103/70/32 104/69/32 106/71/32 105/72/32
f 105/72/33 106/71/33 108/73/33 107/74/33
f 107/74/34 108/73/34 110/75/34 109/76/34
f 109/76/35 110/75/35 112/77/35 111/78/35
f 111/78/36 112/77/36 114/79/36 113/80/36
f 56/81/37 54/82/37 116/83/37 114/84/37 112/85/37 110/86/37 108/87/37 106/88/37 104/89/37 102/90/37 100/91/37 98/92/37 96/93/37 94/94/37 92/95/37 90/96/37 88/97/37 86/98/37 84/99/37 82/100/37 80/101/37 78/102/37 76/103/37 74/104/37 72/105/37 70/106/37 68/107/37 66/108/37 64/109/37 62/110/37 60/111/37 58/112/37
f 113/80/38 114/79/38 116/113/38 115/114/38
f 115/114/39 116/113/39 54/115/39 53/116/39
f 53/117/40 55/118/40 57/119/40 59/120/40 61/121/40 63/122/40 65/123/40 67/124/40 69/125/40 71/126/40 73/127/40 75/128/40 77/129/40 79/130/40 81/131/40 83/132/40 85/133/40 87/134/40 89/135/40 91/136/40 93/137/40 95/138/40 97/139/40 99/140/40 101/141/40 103/142/40 105/143/40 107/144/40 109/145/40 111/146/40 113/147/40 115/148/40
o Cylinder.002
v 0.006957 -1.215482 -0.433236
v 0.006957 -0.779442 -0.433236
v 0.083888 -1.215482 -0.425207
v 0.083888 -0.779442 -0.425207
v 0.157863 -1.215482 -0.401428
v 0.157863 -0.779442 -0.401428
v 0.226038 -1.215482 -0.362813
v 0.226038 -0.779442 -0.362813
v 0.285794 -1.215482 -0.310846
v 0.285794 -0.779442 -0.310846
v 0.334835 -1.215482 -0.247525
v 0.334835 -0.779442 -0.247525
v 0.371275 -1.215482 -0.175281
v 0.371275 -0.779442 -0.175281
v 0.393715 -1.215482 -0.096893
v 0.393715 -0.779442 -0.096893
v 0.401292 -1.215482 -0.015372
v 0.401292 -0.779442 -0.015372
v 0.393715 -1.215482 0.066150
v 0.393715 -0.779442 0.066150
v 0.371275 -1.215482 0.144538
v 0.371275 -0.779442 0.144538
v 0.334835 -1.215482 0.216781
v 0.334835 -0.779442 0.216781
v 0.285794 -1.215482 0.280103
v 0.285794 -0.779442 0.280103
v 0.226038 -1.215482 0.332070
v 0.226038 -0.779442 0.332070
v 0.157863 -1.215482 0.370685
v 0.157863 -0.779442 0.370685
v 0.083888 -1.215482 0.394463
v 0.083888 -0.779442 0.394463
v 0.006957 -1.215482 0.402493
v 0.006957 -0.779442 0.402493
v -0.069974 -1.215482 0.394463
v -0.069974 -0.779442 0.394463
v -0.143949 -1.215482 0.370685
v -0.143949 -0.779442 0.370685
v -0.212124 -1.215482 0.332070
v -0.212124 -0.779442 0.332070
v -0.271881 -1.215482 0.280103
v -0.271881 -0.779442 0.280103
v -0.320921 -1.215482 0.216781
v -0.320921 -0.779442 0.216781
v -0.357362 -1.215482 0.144538
v -0.357362 -0.779442 0.144538
v -0.379802 -1.215482 0.066150
v -0.379802 -0.779442 0.066150
v -0.387379 -1.215482 -0.015372
v -0.387379 -0.779442 -0.015372
v -0.379802 -1.215482 -0.096893
v -0.379802 -0.779442 -0.096893
v -0.357362 -1.215482 -0.175281
v -0.357362 -0.779442 -0.175281
v -0.320921 -1.215482 -0.247525
v -0.320921 -0.779442 -0.247525
v -0.271881 -1.215482 -0.310846
v -0.271881 -0.779442 -0.310846
v -0.212124 -1.215482 -0.362813
v -0.212124 -0.779442 -0.362813
v -0.143949 -1.215482 -0.401428
v -0.143949 -0.779442 -0.401428
v -0.069974 -1.215482 -0.425207
v -0.069974 -0.779442 -0.425207
vn 0.1038 -0.0000 -0.9946
vn 0.3060 -0.0000 -0.9520
vn 0.4928 -0.0000 -0.8701
vn 0.6562 -0.0000 -0.7546
vn 0.7906 -0.0000 -0.6123
vn 0.8928 -0.0000 -0.4504
vn 0.9614 -0.0000 -0.2752
vn 0.9957 -0.0000 -0.0925
vn 0.9957 -0.0000 0.0925
vn 0.9614 -0.0000 0.2752
vn 0.8928 -0.0000 0.4504
vn 0.7906 -0.0000 0.6123
vn 0.6562 -0.0000 0.7546
vn 0.4928 -0.0000 0.8701
vn 0.3060 -0.0000 0.9520
vn 0.1038 -0.0000 0.9946
vn -0.1038 -0.0000 0.9946
vn -0.3060 -0.0000 0.9520
vn -0.4928 -0.0000 0.8701
vn -0.6562 -0.0000 0.7546
vn -0.7906 -0.0000 0.6123
vn -0.8928 -0.0000 0.4504
vn -0.9614 -0.0000 0.2752
vn -0.9957 -0.0000 0.0925
vn -0.9957 -0.0000 -0.0925
vn -0.9614 -0.0000 -0.2752
vn -0.8928 -0.0000 -0.4504
vn -0.7906 -0.0000 -0.6123
vn -0.6562 -0.0000 -0.7546
vn -0.4928 -0.0000 -0.8701
vn -0.0000 1.0000 -0.0000
vn -0.3060 -0.0000 -0.9520
vn -0.1038 -0.0000 -0.9946
vn -0.0000 -1.0000 -0.0000
vt 1.000000 0.500000
vt 1.000000 1.000000
vt 0.968750 1.000000
vt 0.968750 0.500000
vt 0.937500 1.000000
vt 0.937500 0.500000
vt 0.906250 1.000000
vt 0.906250 0.500000
vt 0.875000 1.000000
vt 0.875000 0.500000
vt 0.843750 1.000000
vt 0.843750 0.500000
vt 0.812500 1.000000
vt 0.812500 0.500000
vt 0.781250 1.000000
vt 0.781250 0.500000
vt 0.750000 1.000000
vt 0.750000 0.500000
vt 0.718750 1.000000
vt 0.718750 0.500000
vt 0.687500 1.000000
vt 0.687500 0.500000
vt 0.656250 1.000000
vt 0.656250 0.500000
vt 0.625000 1.000000
vt 0.625000 0.500000
vt 0.593750 1.000000
vt 0.593750 0.500000
vt 0.562500 1.000000
vt 0.562500 0.500000
vt 0.531250 1.000000
vt 0.531250 0.500000
vt 0.500000 1.000000
vt 0.500000 0.500000
vt 0.468750 1.000000
vt 0.468750 0.500000
vt 0.437500 1.000000
vt 0.437500 0.500000
vt 0.406250 1.000000
vt 0.406250 0.500000
vt 0.375000 1.000000
vt 0.375000 0.500000
vt 0.343750 1.000000
vt 0.343750 0.500000
vt 0.312500 1.000000
vt 0.312500 0.500000
vt 0.281250 1.000000
vt 0.281250 0.500000
vt 0.250000 1.000000
vt 0.250000 0.500000
vt 0.218750 1.000000
vt 0.218750 0.500000
vt 0.187500 1.000000
vt 0.187500 0.500000
vt 0.156250 1.000000
vt 0.156250 0.500000
vt 0.125000 1.000000
vt 0.125000 0.500000
vt 0.093750 1.000000
vt 0.093750 0.500000
vt 0.062500 1.000000
vt 0.062500 0.500000
vt 0.296822 0.485388
vt 0.250000 0.490000
vt 0.203178 0.485388
vt 0.158156 0.471731
vt 0.116663 0.449553
vt 0.080294 0.419706
vt 0.050447 0.383337
vt 0.028269 0.341844
vt 0.014612 0.296822
vt 0.010000 0.250000
vt 0.014612 0.203178
vt 0.028269 0.158156
vt 0.050447 0.116663
vt 0.080294 0.080294
vt 0.116663 0.050447
vt 0.158156 0.028269
vt 0.203178 0.014612
vt 0.250000 0.010000
vt 0.296822 0.014612
vt 0.341844 0.028269
vt 0.383337 0.050447
vt 0.419706 0.080294
vt 0.449553 0.116663
vt 0.471731 0.158156
vt 0.485388 0.203178
vt 0.490000 0.250000
vt 0.485388 0.296822
vt 0.471731 0.341844
vt 0.449553 0.383337
vt 0.419706 0.419706
vt 0.383337 0.449553
vt 0.341844 0.471731
vt 0.031250 1.000000
vt 0.031250 0.500000
vt 0.000000 1.000000
vt 0.000000 0.500000
vt 0.750000 0.490000
vt 0.796822 0.485388
vt 0.841844 0.471731
vt 0.883337 0.449553
vt 0.919706 0.419706
vt 0.949553 0.383337
vt 0.971731 0.341844
vt 0.985388 0.296822
vt 0.990000 0.250000
vt 0.985388 0.203178
vt 0.971731 0.158156
vt 0.949553 0.116663
vt 0.919706 0.080294
vt 0.883337 0.050447
vt 0.841844 0.028269
vt 0.796822 0.014612
vt 0.750000 0.010000
vt 0.703178 0.014612
vt 0.658156 0.028269
vt 0.616663 0.050447
vt 0.580294 0.080294
vt 0.550447 0.116663
vt 0.528269 0.158156
vt 0.514612 0.203178
vt 0.510000 0.250000
vt 0.514612 0.296822
vt 0.528269 0.341844
vt 0.550447 0.383337
vt 0.580294 0.419706
vt 0.616663 0.449553
vt 0.658156 0.471731
vt 0.703178 0.485388
s 0
f 117/149/41 118/150/41 120/151/41 119/152/41
f 119/152/42 120/151/42 122/153/42 121/154/42
f 121/154/43 122/153/43 124/155/43 123/156/43
f 123/156/44 124/155/44 126/157/44 125/158/44
f 125/158/45 126/157/45 128/159/45 127/160/45
f 127/160/46 128/159/46 130/161/46 129/162/46
f 129/162/47 130/161/47 132/163/47 131/164/47
f 131/164/48 132/163/48 134/165/48 133/166/48
f 133/166/49 134/165/49 136/167/49 135/168/49
f 135/168/50 136/167/50 138/169/50 137/170/50
f 137/170/51 138/169/51 140/171/51 139/172/51
f 139/172/52 140/171/52 142/173/52 141/174/52
f 141/174/53 142/173/53 144/175/53 143/176/53
f 143/176/54 144/175/54 146/177/54 145/178/54
f 145/178/55 146/177/55 148/179/55 147/180/55
f 147/180/56 148/179/56 150/181/56 149/182/56
f 149/182/57 150/181/57 152/183/57 151/184/57
f 151/184/58 152/183/58 154/185/58 153/186/58
f 153/186/59 154/185/59 156/187/59 155/188/59
f 155/188/60 156/187/60 158/189/60 157/190/60
f 157/190/61 158/189/61 160/191/61 159/192/61
f 159/192/62 160/191/62 162/193/62 161/194/62
f 161/194/63 162/193/63 164/195/63 163/196/63
f 163/196/64 164/195/64 166/197/64 165/198/64
f 165/198/65 166/197/65 168/199/65 167/200/65
f 167/200/66 168/199/66 170/201/66 169/202/66
f 169/202/67 170/201/67 172/203/67 171/204/67
f 171/204/68 172/203/68 174/205/68 173/206/68
f 173/206/69 174/205/69 176/207/69 175/208/69
f 175/208/70 176/207/70 178/209/70 177/210/70
f 120/211/71 118/212/71 180/213/71 178/214/71 176/215/71 174/216/71 172/217/71 170/218/71 168/219/71 166/220/71 164/221/71 162/222/71 160/223/71 158/224/71 156/225/71 154/226/71 152/227/71 150/228/71 148/229/71 146/230/71 144/231/71 142/232/71 140/233/71 138/234/71 136/235/71 134/236/71 132/237/71 130/238/71 128/239/71 126/240/71 124/241/71 122/242/71
f 177/210/72 178/209/72 180/243/72 179/244/72
f 179/244/73 180/243/73 118/245/73 117/246/73
f 117/247/74 119/248/74 121/249/74 123/250/74 125/251/74 127/252/74 129/253/74 131/254/74 133/255/74 135/256/74 137/257/74 139/258/74 141/259/74 143/260/74 145/261/74 147/262/74 149/263/74 151/264/74 153/265/74 155/266/74 157/267/74 159/268/74 161/269/74 163/270/74 165/271/74 167/272/74 169/273/74 171/274/74 173/275/74 175/276/74 177/277/74 179/278/74
