# Blender 4.0.2
# www.blender.org
mtllib bear_chair.mtl
o Cube
v 1.000000 0.152087 -1.000000
v 1.000000 -0.152087 -1.000000
v 1.000000 0.152087 1.000000
v 1.000000 -0.152087 1.000000
v -1.000000 0.152087 -1.000000
v -1.000000 -0.152087 -1.000000
v -1.000000 0.152087 1.000000
v -1.000000 -0.152087 1.000000
v -1.000000 -0.152087 0.000000
v 0.000000 -0.152087 -1.000000
v 0.000000 -0.152087 1.000000
v 1.000000 -0.152087 0.000000
v 0.698592 -0.235108 0.998591
v -1.000000 -0.152087 0.000000
v -1.000000 -0.152087 1.000000
v 0.000000 -0.152087 -1.000000
v -1.000000 -0.152087 -1.000000
v 0.000000 -0.152087 1.000000
v 1.000000 -0.152087 1.000000
v 1.000000 -0.152087 0.000000
v 1.000000 -0.152087 -1.000000
v 0.000000 -0.152087 0.000000
v 0.998592 -0.235108 0.998591
v 0.998592 -0.235108 0.698591
v 0.698592 -0.235108 0.698591
v -1.000455 -0.235108 0.699087
v -1.000455 -0.235108 0.999087
v -0.700455 -0.235108 0.999087
v -0.700455 -0.235108 0.699087
v 1.002113 -0.235108 -0.702113
v 1.002113 -0.235108 -1.002113
v 0.702113 -0.235108 -1.002113
v 0.702113 -0.235108 -0.702113
v -0.702113 -0.235108 -0.998591
v -1.002113 -0.235108 -0.998591
v -1.002113 -0.235108 -0.698591
v -0.702113 -0.235108 -0.698591
v 0.698592 -1.355075 0.998591
v 0.998592 -1.355075 0.998591
v 0.998592 -1.355075 0.698591
v 0.698592 -1.355075 0.698591
v -1.000455 -1.355075 0.699087
v -1.000455 -1.355075 0.999087
v -0.700455 -1.355075 0.999087
v -0.700455 -1.355075 0.699087
v 1.002113 -1.355075 -0.702113
v 1.002113 -1.355075 -1.002113
v 0.702113 -1.355075 -1.002113
v 0.702113 -1.355075 -0.702113
v -0.702113 -1.355075 -0.998591
v -1.002113 -1.355075 -0.998591
v -1.002113 -1.355075 -0.698591
v -0.702113 -1.355075 -0.698591
v 1.000000 0.152087 -1.000000
v 1.000000 -0.152087 -1.000000
v 1.000000 0.152087 1.000000
v 1.000000 -0.152087 1.000000
v 1.000000 -0.152087 0.000000
v 0.688812 0.152087 1.000000
v 0.688812 0.152087 -1.000000
v 1.000000 1.924969 0.345789
v 1.000000 1.924969 -0.345789
v 0.688812 1.924969 -0.345789
v 0.688812 1.924969 0.345789
v 1.000000 1.828656 0.765052
v 1.000000 1.828656 -0.765052
v 0.688812 1.828656 -0.765052
v 0.688812 1.828656 0.765052
v 1.000000 1.756896 0.858907
v 1.000000 1.756896 -0.858907
v 0.688812 1.756896 -0.858907
v 0.688812 1.756896 0.858907
v 1.000000 1.665450 0.918127
v 1.000000 1.665450 -0.918127
v 0.688812 1.665450 -0.918127
v 0.688812 1.665450 0.918127
v 1.000000 1.536882 0.959657
v 1.000000 1.536882 -0.959657
v 0.688812 1.536882 -0.959657
v 0.688812 1.536882 0.959657
v 1.000000 1.422883 0.978057
v 1.000000 1.150957 1.000000
v 1.000000 1.150957 -1.000000
v 1.000000 1.422883 -0.978057
v 0.688812 1.422883 -0.978057
v 0.688812 1.150957 -1.000000
v 0.688812 1.150957 1.000000
v 0.688812 1.422883 0.978057
v 1.000000 2.199597 0.464288
v 0.688812 2.199597 0.464288
v 0.688812 2.199597 -0.464288
v 1.000000 2.199597 -0.464288
v 1.000000 2.157727 0.646554
v 0.688812 2.157727 0.646554
v 0.688812 2.157727 -0.646554
v 1.000000 2.157727 -0.646554
v 1.000000 2.197805 0.425139
v 0.688812 2.197805 0.425140
v 0.688812 2.197805 -0.425139
v 1.000000 2.197805 -0.425140
v 1.000000 2.109927 0.741166
v 0.688812 2.109927 0.741166
v 0.688812 2.109927 -0.741166
v 1.000000 2.109927 -0.741166
v 1.000000 2.190922 0.391501
v 0.688812 2.190922 0.391500
v 0.688812 2.190922 -0.391501
v 1.000000 2.190922 -0.391500
v 1.000000 2.096785 0.753889
v 1.000000 2.073602 0.765052
v 0.688812 2.073602 0.765052
v 0.688812 2.096785 0.753890
v 0.688812 2.096785 -0.753889
v 0.688812 2.073602 -0.765052
v 1.000000 2.073602 -0.765052
v 1.000000 2.096785 -0.753890
v 1.000000 2.157591 0.345789
v 1.000000 2.181615 0.371249
v 0.688812 2.181615 0.371249
v 0.688812 2.157591 0.345789
v 0.688812 2.157591 -0.345789
v 0.688812 2.181615 -0.371249
v 1.000000 2.181615 -0.371249
v 1.000000 2.157591 -0.345789
vn -0.0000 -0.0000 1.0000
vn -1.0000 -0.0000 -0.0000
vn -0.0000 1.0000 -0.0000
vn -0.0000 -0.0000 -1.0000
vn -0.0000 -1.0000 -0.0000
vn -0.0000 -0.0170 0.9999
vn -1.0000 0.0055 -0.0000
vn -0.0000 -0.9931 0.1174
vn -0.0000 -0.9930 -0.1180
vn 0.9999 -0.0170 -0.0000
vn -0.1180 -0.9930 -0.0000
vn 1.0000 -0.0000 -0.0000
vn -0.0000 -0.9930 -0.1179
vn 0.1177 -0.9930 -0.0000
vn -0.0000 -0.0110 0.9999
vn -0.1174 -0.9931 -0.0000
vn -0.0000 0.0254 -0.9997
vn 0.9997 0.0254 -0.0000
vn 0.1174 -0.9931 -0.0000
vn -0.0000 -0.0170 -0.9999
vn -0.0000 -0.9930 0.1180
vn -0.9997 0.0254 -0.0000
vn -0.0000 0.8926 -0.4509
vn -0.0000 0.8926 0.4509
vn -0.0000 0.5436 -0.8394
vn -0.0000 0.7944 -0.6074
vn -0.0000 0.3074 -0.9516
vn -0.0000 0.9746 -0.2239
vn -0.0000 0.1593 -0.9872
vn -0.0000 0.7944 0.6074
vn -0.0000 0.5436 0.8394
vn -0.0000 0.3074 0.9516
vn -0.0000 0.0804 0.9968
vn -0.0000 0.0804 -0.9968
vn -0.0000 0.1593 0.9872
vn -0.0000 0.6956 0.7184
vn -0.0000 0.9086 0.4176
vn -0.0000 0.9990 0.0457
vn -0.0000 0.9797 0.2005
vn -0.0000 0.6956 -0.7184
vn -0.0000 0.9746 0.2239
vn -0.0000 0.9990 -0.0457
vn -0.0000 0.4338 0.9010
vn -0.0000 0.4338 -0.9010
vn -0.0000 0.9797 -0.2005
vn -0.0000 0.7273 -0.6863
vn -0.0000 0.7273 0.6863
vn -0.0000 0.9086 -0.4176
vt 0.003981 0.967011
vt 0.003981 0.842743
vt 0.023361 0.842743
vt 0.128537 0.842743
vt 0.128537 0.967011
vt 0.066259 0.967011
vt 0.534054 0.128537
vt 0.534054 0.003981
vt 0.658610 0.003981
vt 0.658610 0.128537
vt 0.596332 0.128537
vt 0.719863 0.559477
vt 0.136499 0.967002
vt 0.136499 0.842737
vt 0.241675 0.842737
vt 0.261056 0.842737
vt 0.261056 0.967002
vt 0.198777 0.967002
vt 0.502377 0.895708
vt 0.483693 0.895708
vt 0.483693 0.877024
vt 0.502377 0.877024
vt 0.736812 0.504555
vt 0.799090 0.504555
vt 0.755583 0.538467
vt 0.736899 0.538467
vt 0.502377 0.850379
vt 0.502377 0.869063
vt 0.483693 0.869063
vt 0.483693 0.850379
vt 0.552794 0.162534
vt 0.534111 0.162534
vt 0.331296 0.975067
vt 0.331296 0.912789
vt 0.375022 0.956515
vt 0.375022 0.975199
vt 0.579383 0.894148
vt 0.579383 0.912832
vt 0.560699 0.912832
vt 0.560699 0.894148
vt 0.920914 0.537549
vt 0.939598 0.537549
vt 0.939598 0.995101
vt 0.920914 0.995101
vt 0.287789 0.974980
vt 0.287789 0.956296
vt 0.736812 0.003981
vt 0.799090 0.003981
vt 0.799002 0.037977
vt 0.780319 0.037977
vt 0.269017 0.912789
vt 0.269105 0.956296
vt 0.666572 0.038218
vt 0.685255 0.038146
vt 0.687030 0.496759
vt 0.668347 0.496832
vt 0.331296 0.850511
vt 0.287758 0.869166
vt 0.287758 0.850482
vt 0.269074 0.869166
vt 0.877291 0.503635
vt 0.939569 0.503635
vt 0.799002 0.496594
vt 0.780319 0.496594
vt 0.393574 0.912789
vt 0.393705 0.956515
vt 0.807052 0.003981
vt 0.869330 0.004222
vt 0.869330 0.038148
vt 0.850646 0.038076
vt 0.666572 0.004222
vt 0.728850 0.003981
vt 0.552794 0.621150
vt 0.534111 0.621150
vt 0.374803 0.869063
vt 0.393486 0.869063
vt 0.877291 0.004222
vt 0.939569 0.003981
vt 0.895975 0.038061
vt 0.877291 0.038133
vt 0.374803 0.850379
vt 0.658523 0.162534
vt 0.639839 0.162534
vt 0.552737 0.912832
vt 0.534054 0.912832
vt 0.534054 0.894148
vt 0.552737 0.894148
vt 0.897750 0.495601
vt 0.879066 0.495674
vt 0.693217 0.504793
vt 0.711901 0.504793
vt 0.711901 0.963410
vt 0.693217 0.963410
vt 0.867555 0.495689
vt 0.848872 0.495616
vt 0.807052 0.503650
vt 0.825735 0.503650
vt 0.825735 0.962267
vt 0.807052 0.962267
vt 0.658523 0.621150
vt 0.639839 0.621150
vt 0.974205 0.503635
vt 0.992888 0.503635
vt 0.992888 0.961179
vt 0.974205 0.961179
vt 0.666572 0.504793
vt 0.685256 0.504793
vt 0.685256 0.963410
vt 0.666572 0.963410
vt 0.974176 0.003981
vt 0.992859 0.003981
vt 0.992859 0.461525
vt 0.974176 0.461525
vt 0.833697 0.503650
vt 0.852380 0.503650
vt 0.852380 0.962267
vt 0.833697 0.962267
vt 0.947531 0.003981
vt 0.966214 0.003981
vt 0.966214 0.461533
vt 0.947531 0.461533
vt 0.947560 0.503635
vt 0.966243 0.503635
vt 0.966243 0.961188
vt 0.947560 0.961188
vt 0.755583 0.996019
vt 0.736899 0.996019
vt 0.534054 0.753668
vt 0.534054 0.629112
vt 0.658610 0.629112
vt 0.658610 0.753668
vt 0.596332 0.753668
vt 0.639230 0.886187
vt 0.534054 0.886187
vt 0.534054 0.761630
vt 0.639230 0.761630
vt 0.475731 0.893450
vt 0.456351 0.893450
vt 0.456351 0.850379
vt 0.475731 0.850379
vt 0.241675 0.021862
vt 0.261056 0.021862
vt 0.261056 0.041793
vt 0.241675 0.041793
vt 0.003981 0.021859
vt 0.023361 0.021859
vt 0.023361 0.041789
vt 0.003981 0.041789
vt 0.261056 0.224129
vt 0.241675 0.224129
vt 0.241675 0.186519
vt 0.261056 0.186519
vt 0.241675 0.156803
vt 0.261056 0.156803
vt 0.261056 0.276831
vt 0.241675 0.276831
vt 0.241675 0.003981
vt 0.261056 0.003981
vt 0.261056 0.323481
vt 0.241675 0.323481
vt 0.023361 0.186515
vt 0.003981 0.186515
vt 0.003981 0.156801
vt 0.023361 0.156801
vt 0.003981 0.434664
vt 0.023361 0.434664
vt 0.526092 0.842417
vt 0.401536 0.842417
vt 0.401536 0.433389
vt 0.402902 0.322038
vt 0.404048 0.275357
vt 0.406635 0.222709
vt 0.410323 0.185263
vt 0.416168 0.155878
vt 0.442279 0.116438
vt 0.485349 0.116438
vt 0.511460 0.155878
vt 0.517305 0.185263
vt 0.520993 0.222709
vt 0.523580 0.275357
vt 0.524726 0.322038
vt 0.526092 0.433389
vt 0.023361 0.224126
vt 0.003981 0.224126
vt 0.393574 0.842418
vt 0.269017 0.842418
vt 0.269017 0.433389
vt 0.270384 0.322038
vt 0.271530 0.275357
vt 0.274116 0.222709
vt 0.277804 0.185263
vt 0.283650 0.155878
vt 0.309760 0.116438
vt 0.352831 0.116438
vt 0.378942 0.155878
vt 0.384787 0.185263
vt 0.388475 0.222709
vt 0.391061 0.275357
vt 0.392207 0.322038
vt 0.393574 0.433389
vt 0.241675 0.434666
vt 0.261056 0.434666
vt 0.023361 0.276827
vt 0.003981 0.276827
vt 0.003981 0.323479
vt 0.023361 0.323479
vt 0.023361 0.047212
vt 0.003981 0.047212
vt 0.421047 0.857222
vt 0.401667 0.857222
vt 0.401667 0.853334
vt 0.421047 0.853334
vt 0.719863 0.524174
vt 0.719863 0.504793
vt 0.722301 0.504793
vt 0.722301 0.524174
vt 0.401667 0.850379
vt 0.421047 0.850379
vt 0.416168 0.055575
vt 0.416863 0.046081
vt 0.417655 0.040700
vt 0.423548 0.021126
vt 0.434899 0.003981
vt 0.437337 0.004715
vt 0.439432 0.007533
vt 0.440693 0.011344
vt 0.442279 0.021182
vt 0.283650 0.055575
vt 0.284345 0.046081
vt 0.285137 0.040700
vt 0.291029 0.021126
vt 0.302381 0.003981
vt 0.304819 0.004715
vt 0.306914 0.007533
vt 0.308175 0.011344
vt 0.309760 0.021182
vt 0.261056 0.047216
vt 0.241675 0.047216
vt 0.003981 0.003981
vt 0.023361 0.003981
vt 0.352831 0.021182
vt 0.354416 0.011344
vt 0.355678 0.007533
vt 0.357773 0.004715
vt 0.360211 0.003981
vt 0.371562 0.021126
vt 0.377454 0.040700
vt 0.378247 0.046081
vt 0.378942 0.055575
vt 0.485349 0.021182
vt 0.486935 0.011344
vt 0.488196 0.007533
vt 0.490291 0.004715
vt 0.492729 0.003981
vt 0.504080 0.021126
vt 0.509972 0.040700
vt 0.510765 0.046081
vt 0.511460 0.055575
vt 0.003981 0.056730
vt 0.023361 0.056730
vt 0.241675 0.056734
vt 0.261056 0.056734
vt 0.722301 0.532135
vt 0.722301 0.551516
vt 0.719863 0.551516
vt 0.719863 0.532135
vt 0.448389 0.962179
vt 0.429009 0.962179
vt 0.429009 0.867146
vt 0.448389 0.867146
vt 0.421047 0.962180
vt 0.401667 0.962180
vt 0.401667 0.867145
vt 0.421047 0.867145
vt 0.448389 0.853334
vt 0.429009 0.853334
vt 0.429009 0.850379
vt 0.448389 0.850379
vt 0.429009 0.857223
vt 0.448389 0.857223
s 0
usemtl Material
f 4/1/1 3/2/1 59/3/1 7/4/1 8/5/1 11/6/1
f 8/7/2 7/8/2 5/9/2 6/10/2 9/11/2
f 11/12/3 8/12/3 15/12/3 18/12/3
f 2/12/3 1/12/3 54/12/3 55/12/3
f 6/13/4 5/14/4 60/15/4 1/16/4 2/17/4 10/18/4
f 2/12/3 12/12/3 20/12/3 21/12/3
f 41/19/5 40/20/5 39/21/5 38/22/5
f 10/12/3 2/12/3 21/12/3 16/12/3
f 19/23/6 18/24/6 13/25/6 23/26/6
f 42/27/5 45/28/5 44/29/5 43/30/5
f 14/11/7 26/31/7 27/32/7 15/7/7 8/7/7 9/11/7
f 20/33/8 22/34/8 33/35/8 30/36/8
f 48/37/5 47/38/5 46/39/5 49/40/5
f 6/12/3 10/12/3 16/12/3 17/12/3
f 4/12/3 11/12/3 18/12/3 19/12/3
f 12/12/3 4/12/3 19/12/3 20/12/3
f 28/41/1 27/42/1 43/43/1 44/44/1
f 22/34/9 20/33/9 24/45/9 25/46/9
f 20/47/10 19/48/10 23/49/10 24/50/10
f 18/51/11 22/34/11 25/46/11 13/52/11
f 31/53/12 30/54/12 46/55/12 47/56/12
f 14/57/13 22/34/13 29/58/13 26/59/13
f 22/34/14 18/51/14 28/60/14 29/58/14
f 18/61/15 15/62/15 27/42/15 28/41/15
f 24/50/12 23/49/12 39/63/12 40/64/12
f 22/34/16 16/65/16 32/66/16 33/35/16
f 16/67/17 21/68/17 31/69/17 32/70/17
f 21/71/18 20/72/18 30/54/18 31/53/18
f 27/32/2 26/31/2 42/73/2 43/74/2
f 16/65/19 22/34/19 37/75/19 34/76/19
f 17/77/20 16/78/20 34/79/20 35/80/20
f 22/34/21 14/57/21 36/81/21 37/75/21
f 9/11/22 6/10/22 17/10/22 35/82/22 36/83/22 14/11/22
f 51/84/5 50/85/5 53/86/5 52/87/5
f 35/80/4 34/79/4 50/88/4 51/89/4
f 13/90/2 25/91/2 41/92/2 38/93/2
f 32/70/4 31/69/4 47/94/4 48/95/4
f 29/96/12 28/97/12 44/98/12 45/99/12
f 36/83/2 35/82/2 51/100/2 52/101/2
f 25/102/4 24/103/4 40/104/4 41/105/4
f 33/106/2 32/107/2 48/108/2 49/109/2
f 26/110/4 29/111/4 45/112/4 42/113/4
f 34/114/12 37/115/12 53/116/12 50/117/12
f 30/118/1 33/119/1 49/120/1 46/121/1
f 37/122/1 36/123/1 52/124/1 53/125/1
f 23/26/1 13/25/1 38/126/1 39/127/1
f 55/128/12 54/129/12 56/130/12 57/131/12 58/132/12
f 12/12/3 2/12/3 55/12/3 58/12/3
f 1/12/3 3/12/3 56/12/3 54/12/3
f 4/12/3 12/12/3 58/12/3 57/12/3
f 3/12/3 4/12/3 57/12/3 56/12/3
f 60/133/3 5/134/3 7/135/3 59/136/3
f 62/137/3 63/138/3 64/139/3 61/140/3
f 95/141/23 96/142/23 104/143/23 103/144/23
f 93/145/24 94/146/24 102/147/24 101/148/24
f 74/149/25 75/150/25 71/151/25 70/152/25
f 70/152/26 71/151/26 67/153/26 66/154/26
f 78/155/27 79/156/27 75/150/27 74/149/27
f 96/142/28 95/141/28 91/157/28 92/158/28
f 84/159/29 85/160/29 79/156/29 78/155/29
f 72/161/30 69/162/30 65/163/30 68/164/30
f 59/3/1 3/2/1 82/165/1 87/166/1
f 60/167/2 59/168/2 87/169/2 88/170/2 80/171/2 76/172/2 72/173/2 68/174/2 64/175/2 63/176/2 67/177/2 71/178/2 75/179/2 79/180/2 85/181/2 86/182/2
f 76/183/31 73/184/31 69/162/31 72/161/31
f 3/185/12 1/186/12 83/187/12 84/188/12 78/189/12 74/190/12 70/191/12 66/192/12 62/193/12 61/194/12 65/195/12 69/196/12 73/197/12 77/198/12 81/199/12 82/200/12
f 1/16/4 60/15/4 86/201/4 83/202/4
f 80/203/32 77/204/32 73/184/32 76/183/32
f 87/166/33 82/165/33 81/205/33 88/206/33
f 83/202/34 86/201/34 85/160/34 84/159/34
f 88/206/35 81/205/35 77/204/35 80/203/35
f 112/207/36 109/208/36 101/148/36 102/147/36
f 122/209/37 123/210/37 108/211/37 107/212/37
f 99/213/38 100/214/38 92/215/38 91/216/38
f 107/212/39 108/211/39 100/217/39 99/218/39
f 64/175/2 68/174/2 111/219/2 112/220/2 102/221/2 94/222/2 90/223/2 98/224/2 106/225/2 119/226/2 120/227/2
f 62/193/12 66/192/12 115/228/12 116/229/12 104/230/12 96/231/12 92/232/12 100/233/12 108/234/12 123/235/12 124/236/12
f 116/237/40 113/238/40 103/144/40 104/143/40
f 94/146/41 93/145/41 89/239/41 90/240/41
f 61/194/12 117/241/12 118/242/12 105/243/12 97/244/12 89/245/12 93/246/12 101/247/12 109/248/12 110/249/12 65/195/12
f 63/176/2 121/250/2 122/251/2 107/252/2 99/253/2 91/254/2 95/255/2 103/256/2 113/257/2 114/258/2 67/177/2
f 68/164/1 65/163/1 110/259/1 111/260/1
f 66/154/4 67/153/4 114/261/4 115/262/4
f 97/263/42 98/264/42 90/265/42 89/266/42
f 61/267/4 64/268/4 120/269/4 117/270/4
f 63/271/1 62/272/1 124/273/1 121/274/1
f 111/260/43 110/259/43 109/208/43 112/207/43
f 115/262/44 114/261/44 113/238/44 116/237/44
f 105/275/45 106/276/45 98/277/45 97/278/45
f 117/270/46 120/269/46 119/279/46 118/280/46
f 121/274/47 124/273/47 123/210/47 122/209/47
f 118/280/48 119/279/48 106/276/48 105/275/48
