# Blender 4.0.2
# www.blender.org
mtllib coffee_icon.mtl
o Cube
v 0.926233 1.000000 -0.104348
v 0.926233 -1.000000 -0.104348
v 0.926233 1.000000 0.104348
v 0.926233 -1.000000 0.104348
v -0.926233 1.000000 -0.104348
v -0.926233 -1.000000 -0.104348
v -0.926233 1.000000 0.104348
v -0.926233 -1.000000 0.104348
v 0.926233 -0.799642 -0.104348
v 0.926233 -0.799642 0.104348
v 0.926233 -0.415066 0.104348
v 0.926233 -0.415066 -0.104348
v 0.926233 -0.500000 -0.104348
v 0.926233 -0.500000 0.104348
v 0.926233 -1.000000 0.000000
v 0.926233 -0.799642 0.052174
v 0.926233 -0.799642 -0.052174
v 0.926233 0.333159 0.104348
v 0.926233 0.784117 -0.104348
v 0.926233 0.333159 -0.104348
v 0.926233 0.784117 0.104348
v 1.295322 -0.415066 -0.104348
v 1.295322 -0.799642 -0.104348
v 1.295322 -0.415066 0.104348
v 1.295322 -0.799642 0.104348
v 1.295322 -0.799642 0.052174
v 1.295322 -0.799642 -0.052174
v 1.295322 0.784117 0.104348
v 1.295322 0.333159 0.104348
v 1.295322 0.784117 -0.104348
v 1.295322 0.333159 -0.104348
v 1.758123 -0.415066 -0.104348
v 1.758123 -0.415066 0.104348
v 1.758123 0.333159 0.104348
v 1.758123 0.333159 -0.104348
v 1.295322 -0.415877 -0.104348
v 1.295322 -0.415877 0.104348
v 1.758123 -0.415877 -0.104348
v 1.758123 -0.415877 0.104348
v 1.758123 -0.488473 -0.104348
v 1.704712 -0.627688 -0.104348
v 1.598853 -0.741978 -0.104348
v 1.469908 -0.799642 -0.104348
v 1.469908 -0.799642 0.104348
v 1.598853 -0.741978 0.104348
v 1.704712 -0.627688 0.104348
v 1.758123 -0.488473 0.104348
v 1.469908 -0.799642 0.052174
v 1.598853 -0.741978 0.052174
v 1.758123 -0.488473 0.052174
v 1.704712 -0.627688 0.052174
v 1.469908 -0.799642 -0.052174
v 1.598853 -0.741978 -0.052174
v 1.758123 -0.488473 -0.052174
v 1.704712 -0.627688 -0.052174
v 1.758123 0.472948 0.104348
v 1.704712 0.612163 0.104348
v 1.598853 0.726453 0.104348
v 1.469908 0.784117 0.104348
v 1.469908 0.784117 -0.104348
v 1.598853 0.726453 -0.104348
v 1.704712 0.612163 -0.104348
v 1.758123 0.472948 -0.104348
vn -0.0000 1.0000 -0.0000
vn -0.0000 -0.0000 1.0000
vn -1.0000 -0.0000 -0.0000
vn -0.0000 -1.0000 -0.0000
vn 1.0000 -0.0000 -0.0000
vn -0.0000 -0.0000 -1.0000
vn 0.7336 -0.6795 -0.0000
vn 0.7336 0.6795 -0.0000
vn 0.9336 -0.3582 -0.0000
vn 0.4082 -0.9129 -0.0000
vn 0.4082 0.9129 -0.0000
vn 0.9336 0.3582 -0.0000
vt 0.625000 0.500000
vt 0.875000 0.500000
vt 0.875000 0.750000
vt 0.625000 0.750000
vt 0.375000 0.750000
vt 0.437500 0.750000
vt 0.500000 0.750000
vt 0.562500 0.750000
vt 0.593750 0.750000
vt 0.609375 0.750000
vt 0.625000 1.000000
vt 0.375000 1.000000
vt 0.375000 0.000000
vt 0.625000 0.000000
vt 0.625000 0.250000
vt 0.375000 0.250000
vt 0.125000 0.500000
vt 0.375000 0.500000
vt 0.375000 0.625000
vt 0.125000 0.750000
vt 0.609375 0.500000
vt 0.593750 0.500000
vt 0.562500 0.500000
vt 0.500000 0.500000
vt 0.437500 0.500000
vt 0.500000 0.562500
vt 0.500000 0.687500
vt 0.509371 0.750000
vt 0.527945 0.750000
vt 0.550570 0.750000
vt 0.527945 0.687500
vt 0.509371 0.687500
vt 0.607377 0.500000
vt 0.603417 0.500000
vt 0.598593 0.500000
vt 0.598594 0.750000
vt 0.603417 0.750000
vt 0.607377 0.750000
vt 0.609375 0.750000
vt 0.603417 0.500000
vt 0.527945 0.562500
vt 0.527945 0.687500
vt 0.509371 0.562500
vt 0.500000 0.750000
vt 0.550570 0.500000
vt 0.550570 0.687500
vt 0.550570 0.562500
vt 0.598594 0.500000
vt 0.598593 0.750000
vt 0.527945 0.500000
vt 0.509371 0.500000
s 0
usemtl Material
f 1/1/1 5/2/1 7/3/1 3/4/1
f 4/5/2 14/6/2 10/7/2 11/8/2 18/9/2 21/10/2 3/4/2 7/11/2 8/12/2
f 8/13/3 7/14/3 5/15/3 6/16/3
f 6/17/4 2/18/4 15/19/4 4/5/4 8/20/4
f 19/21/5 1/1/5 3/4/5 21/10/5
f 6/16/6 5/15/6 1/1/6 19/21/6 20/22/6 12/23/6 9/24/6 13/25/6 2/18/6
f 2/18/5 13/25/5 9/24/5 17/26/5 16/27/5 10/7/5 14/6/5 4/5/5 15/19/5
f 18/9/4 20/22/4 31/22/4 29/9/4
f 12/23/5 20/22/5 18/9/5 11/8/5
f 21/10/2 18/9/2 29/9/2 28/10/2
f 34/9/2 29/9/2 37/9/2 39/9/2
f 24/8/2 25/7/2 44/7/2 45/28/2 46/29/2 47/30/2 33/8/2
f 20/22/6 19/21/6 30/21/6 31/22/6
f 16/27/4 17/26/4 27/26/4 26/27/4
f 19/21/1 21/10/1 28/10/1 30/21/1
f 9/24/6 12/23/6 22/23/6 23/24/6
f 12/23/1 11/8/1 24/8/1 22/23/1
f 17/26/4 9/24/4 23/24/4 27/26/4
f 11/8/2 10/7/2 25/7/2 24/8/2
f 10/7/4 16/27/4 26/27/4 25/7/4
f 51/31/7 46/29/7 45/28/7 49/32/7
f 31/22/6 30/21/6 60/21/6 61/33/6 62/34/6 63/35/6 35/22/6
f 28/10/2 29/9/2 34/9/2 56/36/2 57/37/2 58/38/2 59/39/2
f 61/33/8 58/38/8 57/37/8 62/40/8
f 30/21/1 28/10/1 59/10/1 60/21/1
f 27/26/4 23/24/4 43/24/4 52/26/4
f 22/23/1 24/8/1 33/8/1 32/23/1
f 55/41/7 51/42/7 49/32/7 53/43/7
f 37/9/4 36/22/4 38/22/4 39/9/4
f 31/22/6 35/22/6 38/22/6 36/22/6
f 29/9/3 31/22/3 36/22/3 37/9/3
f 35/22/5 34/9/5 39/9/5 38/22/5
f 25/7/4 26/27/4 48/27/4 44/44/4
f 26/27/4 27/26/4 52/26/4 48/27/4
f 40/45/5 32/23/5 33/8/5 47/30/5 50/46/5 54/47/5
f 35/22/5 63/48/5 56/49/5 34/9/5
f 41/50/7 55/41/7 53/43/7 42/51/7
f 50/46/9 47/30/9 46/29/9 51/31/9
f 44/44/10 48/27/10 49/32/10 45/28/10
f 54/47/9 50/46/9 51/42/9 55/41/9
f 48/27/10 52/26/10 53/43/10 49/32/10
f 40/45/9 54/47/9 55/41/9 41/50/9
f 52/26/10 43/24/10 42/51/10 53/43/10
f 60/21/11 59/10/11 58/38/11 61/33/11
f 56/49/12 63/48/12 62/40/12 57/37/12
f 23/24/6 22/23/6 32/23/6 40/45/6 41/50/6 42/51/6 43/24/6
o Cube.001
v -0.749253 1.164809 0.102673
v -0.749253 1.164809 -0.102673
v -0.295475 2.525856 0.102673
v -0.295475 2.525856 -0.102673
v -0.749253 1.164809 0.102673
v -0.295475 2.008164 0.102673
v -0.295475 2.008164 -0.102673
v -0.749253 1.164809 -0.102673
v -0.295475 2.525856 0.102673
v -0.749253 1.489879 0.102673
v -0.749253 1.489879 -0.102673
v -0.295475 2.525856 -0.102673
vn -0.0000 1.0000 -0.0000
vn -1.0000 -0.0000 -0.0000
vn 1.0000 -0.0000 -0.0000
vn -0.0000 -0.0000 -1.0000
vn 0.8806 -0.4738 -0.0000
vn -0.9160 0.4012 -0.0000
vn -0.0000 -0.0000 1.0000
vt 0.625000 0.500000
vt 0.625000 0.750000
vt 0.375000 0.000000
vt 0.434709 0.000000
vt 0.434709 0.250000
vt 0.375000 0.250000
vt 0.529909 0.500000
vt 0.529909 0.750000
vt 0.125000 0.750000
vt 0.125000 0.500000
vt 0.625000 0.000000
vt 0.625000 0.250000
vt 0.375000 1.000000
vt 0.434709 1.000000
s 0
f 67/52/13 75/52/13 72/53/13 66/53/13
f 64/54/14 73/55/14 74/56/14 65/57/14
f 70/58/15 67/52/15 66/53/15 69/59/15
f 65/57/16 74/56/16 75/52/16 67/52/16 70/58/16 71/57/16
f 68/60/17 71/61/17 70/58/17 69/59/17
f 65/61/13 71/61/13 68/60/13 64/60/13
f 72/62/18 75/63/18 74/56/18 73/55/18
f 68/64/19 69/59/19 66/53/19 72/53/19 73/65/19 64/64/19
o Cube.002
v -0.036362 1.337175 0.108586
v -0.036362 1.337175 -0.096760
v 0.417416 2.698222 0.108586
v 0.417416 2.698222 -0.096760
v -0.036362 1.337175 0.108586
v 0.417416 2.180529 0.108586
v 0.417416 2.180529 -0.096760
v -0.036362 1.337175 -0.096760
v 0.417416 2.698222 0.108586
v -0.036362 1.662244 0.108586
v -0.036362 1.662244 -0.096760
v 0.417416 2.698222 -0.096760
vn -0.0000 1.0000 -0.0000
vn -1.0000 -0.0000 -0.0000
vn 1.0000 -0.0000 -0.0000
vn -0.0000 -0.0000 -1.0000
vn 0.8806 -0.4738 -0.0000
vn -0.9160 0.4012 -0.0000
vn -0.0000 -0.0000 1.0000
vt 0.625000 0.500000
vt 0.625000 0.750000
vt 0.375000 0.000000
vt 0.434709 0.000000
vt 0.434709 0.250000
vt 0.375000 0.250000
vt 0.529909 0.500000
vt 0.529909 0.750000
vt 0.125000 0.750000
vt 0.125000 0.500000
vt 0.625000 0.000000
vt 0.625000 0.250000
vt 0.375000 1.000000
vt 0.434709 1.000000
s 0
f 79/66/20 87/66/20 84/67/20 78/67/20
f 76/68/21 85/69/21 86/70/21 77/71/21
f 82/72/22 79/66/22 78/67/22 81/73/22
f 77/71/23 86/70/23 87/66/23 79/66/23 82/72/23 83/71/23
f 80/74/24 83/75/24 82/72/24 81/73/24
f 77/75/20 83/75/20 80/74/20 76/74/20
f 84/76/25 87/77/25 86/70/25 85/69/25
f 80/78/26 81/73/26 78/67/26 84/67/26 85/79/26 76/78/26
o Cube.003
v 0.534640 1.105163 0.099967
v 0.534640 1.105163 -0.105379
v 0.988418 2.466209 0.099967
v 0.988418 2.466209 -0.105379
v 0.534640 1.105163 0.099967
v 0.988418 1.948517 0.099967
v 0.988418 1.948517 -0.105379
v 0.534640 1.105163 -0.105379
v 0.988418 2.466209 0.099967
v 0.534640 1.430232 0.099967
v 0.534640 1.430232 -0.105379
v 0.988418 2.466209 -0.105379
vn -0.0000 1.0000 -0.0000
vn -1.0000 -0.0000 -0.0000
vn 1.0000 -0.0000 -0.0000
vn -0.0000 -0.0000 -1.0000
vn 0.8806 -0.4738 -0.0000
vn -0.9160 0.4012 -0.0000
vn -0.0000 -0.0000 1.0000
vt 0.625000 0.500000
vt 0.625000 0.750000
vt 0.375000 0.000000
vt 0.434709 0.000000
vt 0.434709 0.250000
vt 0.375000 0.250000
vt 0.529909 0.500000
vt 0.529909 0.750000
vt 0.125000 0.750000
vt 0.125000 0.500000
vt 0.625000 0.000000
vt 0.625000 0.250000
vt 0.375000 1.000000
vt 0.434709 1.000000
s 0
f 91/80/27 99/80/27 96/81/27 90/81/27
f 88/82/28 97/83/28 98/84/28 89/85/28
f 94/86/29 91/80/29 90/81/29 93/87/29
f 89/85/30 98/84/30 99/80/30 91/80/30 94/86/30 95/85/30
f 92/88/31 95/89/31 94/86/31 93/87/31
f 89/89/27 95/89/27 92/88/27 88/88/27
f 96/90/32 99/91/32 98/84/32 97/83/32
f 92/92/33 93/87/33 90/81/33 96/81/33 97/93/33 88/92/33
