# Blender 4.0.2
# www.blender.org
mtllib crt.mtl
o Cube
v 0.965633 0.754073 1.000000
v 0.965633 -0.754073 1.000000
v -0.965633 0.754073 1.000000
v -0.965633 -0.754073 1.000000
v -0.965633 -0.754073 0.933682
v -0.965633 0.754073 0.933682
v 0.965633 0.754073 0.933682
v 0.965633 -0.754073 0.933682
v 0.986681 -0.948964 0.512012
v -0.986681 -0.948964 0.512012
v 0.986681 0.748870 0.512012
v -0.986681 0.748870 0.512012
v 0.986681 -0.948964 -0.619743
v -0.986681 -0.948964 -0.619743
v 0.986681 0.542097 -0.619743
v -0.986681 0.542097 -0.619743
v 0.776633 -1.075774 0.474566
v -0.776633 -1.075774 0.474566
v 0.848745 -0.948964 -0.381317
v -0.848745 -0.948964 -0.381317
v 0.986681 -0.948964 0.512012
v -0.986681 -0.948964 0.512012
v 0.986681 -0.948964 -0.619743
v -0.986681 -0.948964 -0.619743
v 0.776633 -1.316577 0.474566
v -0.776633 -1.316577 0.474566
v 0.848745 -1.333989 -0.381317
v -0.848745 -1.333989 -0.381317
v 0.986681 -0.948964 -0.919378
v -0.986681 -0.948964 -0.919378
v 0.986681 0.542097 -0.919378
v -0.986681 0.542097 -0.919378
v 0.848745 -0.948964 0.474566
v -0.848745 -0.948964 0.474566
v 0.848745 -1.333989 0.474566
v -0.848745 -1.333989 0.474566
v 0.921283 -1.255885 1.189425
v -0.921283 -1.255885 1.189425
v 0.921283 -1.340258 1.189425
v -0.921283 -1.340258 1.189425
v 1.114906 1.000000 0.512012
v 1.211560 0.903346 0.512012
v 1.211560 -0.903346 0.512012
v 1.114906 -1.000000 0.512012
v -1.211560 0.903346 0.512012
v -1.114906 1.000000 0.512012
v -1.114906 -1.000000 0.512012
v -1.211560 -0.903346 0.512012
v -1.211560 -0.903346 1.000000
v -1.114906 -1.000000 1.000000
v -1.143216 -0.931655 1.000000
v -1.114906 1.000000 1.000000
v -1.211560 0.903346 1.000000
v -1.143216 0.931655 1.000000
v 1.211560 0.903346 1.000000
v 1.114906 1.000000 1.000000
v 1.143216 0.931655 1.000000
v 1.114906 -1.000000 1.000000
v 1.211560 -0.903346 1.000000
v 1.143216 -0.931655 1.000000
vn -0.0000 1.0000 -0.0000
vn -0.0000 -0.0000 1.0000
vn 1.0000 -0.0000 -0.0000
vn -1.0000 -0.0000 -0.0000
vn -0.0000 -1.0000 -0.0000
vn -0.0000 0.9837 -0.1797
vn -0.0000 -0.0000 -1.0000
vn -0.9801 -0.0000 -0.1983
vn -0.0000 0.9697 0.2443
vn 0.9801 -0.0000 -0.1983
vn -0.0000 -0.9995 -0.0331
vn -0.7071 -0.7071 -0.0000
vn 0.7071 0.7071 -0.0000
vn -0.7071 0.7071 -0.0000
vn 0.7071 -0.7071 -0.0000
vt 0.405741 0.974627
vt 0.405741 0.775373
vt 0.594259 0.974627
vt 0.616457 0.992949
vt 0.612918 1.000000
vt 0.387082 1.000000
vt 0.383543 0.992949
vt 0.634972 0.500000
vt 0.865028 0.500000
vt 0.865028 0.750000
vt 0.634972 0.750000
vt 0.387082 0.500000
vt 0.612918 0.500000
vt 0.612918 0.750000
vt 0.387082 0.750000
vt 0.375000 0.990028
vt 0.375000 0.759972
vt 0.383543 0.757051
vt 0.594259 0.775373
vt 0.616457 0.757051
vt 0.625000 0.759972
vt 0.625000 0.990028
vt 0.596890 0.273201
vt 0.596890 0.476799
vt 0.387082 0.000000
vt 0.612918 0.000000
vt 0.612918 0.250000
vt 0.387082 0.250000
vt 0.134972 0.500000
vt 0.365028 0.500000
vt 0.365028 0.750000
vt 0.134972 0.750000
vt 0.875000 0.500000
vt 0.865028 0.500000
vt 0.625000 0.500000
vt 0.000000 0.000000
vt 0.375000 0.500000
vt 0.403110 0.273201
vt 0.403110 0.476799
vt 0.403110 0.287433
vt 0.403110 0.462567
vt 0.403110 0.462567
vt 0.403110 0.294873
vt 0.403110 0.294873
vt 0.403110 0.455127
vt 0.375000 0.250000
vt 0.381041 0.995014
vt 0.618959 0.995014
vt 0.618959 0.754986
vt 0.381041 0.754986
vt 0.125000 0.750000
vt 0.125000 0.500000
vt 0.875000 0.750000
s 0
usemtl Material
f 4/1/1 2/2/1 8/2/1 5/1/1
f 4/1/2 3/3/2 54/4/2 53/5/2 49/6/2 51/7/2
f 41/8/1 46/9/1 52/10/1 56/11/1
f 43/12/3 42/13/3 55/14/3 59/15/3
f 2/2/2 4/1/2 51/7/2 50/16/2 58/17/2 60/18/2
f 1/19/2 2/2/2 60/18/2 59/15/2 55/14/2 57/20/2
f 3/3/2 1/19/2 57/20/2 56/21/2 52/22/2 54/4/2
f 8/2/2 7/19/2 6/3/2 5/1/2
f 2/2/4 1/19/4 7/19/4 8/2/4
f 1/19/5 3/3/5 6/3/5 7/19/5
f 3/3/3 4/1/3 5/1/3 6/3/3
f 12/23/6 11/24/6 15/24/6 16/23/6
f 49/25/4 53/26/4 45/27/4 48/28/4
f 47/29/5 44/30/5 58/31/5 50/32/5
f 45/33/7 46/34/7 41/35/7 42/36/7 43/37/7 44/30/7 11/24/7 12/23/7 48/36/7
f 14/38/4 16/23/4 32/23/4 30/38/4
f 11/24/3 9/39/3 13/39/3 15/24/3
f 10/38/4 12/23/4 16/23/4 14/38/4
f 9/39/1 10/38/1 22/38/1 21/39/1
f 34/40/4 20/40/4 28/40/4 36/40/4
f 13/39/1 9/39/1 21/39/1 23/39/1
f 14/38/1 13/39/1 23/39/1 24/38/1
f 10/38/1 14/38/1 24/38/1 22/38/1
f 34/40/5 33/41/5 21/39/5 22/38/5
f 19/42/5 20/40/5 24/38/5 23/39/5
f 33/41/5 19/42/5 23/39/5 21/39/5
f 20/40/5 34/40/5 22/38/5 24/38/5
f 35/41/5 36/40/5 28/40/5 27/42/5
f 20/40/7 19/42/7 27/42/7 28/40/7
f 19/42/3 33/41/3 35/41/3 27/42/3
f 18/43/8 26/44/8 40/44/8 38/43/8
f 30/38/7 32/23/7 31/24/7 29/39/7
f 13/39/5 14/38/5 30/38/5 29/39/5
f 16/23/1 15/24/1 31/24/1 32/23/1
f 15/24/3 13/39/3 29/39/3 31/24/3
f 18/43/2 17/45/2 33/41/2 34/40/2
f 25/45/2 26/44/2 36/40/2 35/41/2
f 26/44/2 18/43/2 34/40/2 36/40/2
f 17/45/2 25/45/2 35/41/2 33/41/2
f 37/45/2 38/43/2 40/44/2 39/45/2
f 17/45/9 18/43/9 38/43/9 37/45/9
f 25/45/10 17/45/10 37/45/10 39/45/10
f 26/44/11 25/45/11 39/45/11 40/44/11
f 47/46/7 48/28/7 12/23/7 10/38/7 9/39/7 11/24/7 44/30/7
f 49/47/2 50/16/2 51/7/2
f 52/48/2 53/5/2 54/4/2
f 55/14/2 56/49/2 57/20/2
f 58/17/2 59/50/2 60/18/2
f 47/29/12 50/32/12 49/51/12 48/52/12
f 41/8/13 56/11/13 55/14/13 42/13/13
f 52/10/14 46/9/14 45/33/14 53/53/14
f 58/31/15 44/30/15 43/12/15 59/15/15
