# Blender 4.0.2
# www.blender.org
mtllib crt.mtl
o Cube
v 0.965633 0.754073 1.000000
v 0.965633 -0.754073 1.000000
v -0.965633 0.754073 1.000000
v -0.965633 -0.754073 1.000000
v -0.965633 -0.754073 0.933682
v -0.965633 0.754073 0.933682
v 0.965633 0.754073 0.933682
v 0.965633 -0.754073 0.933682
v 0.986681 -0.948964 0.512012
v -0.986681 -0.948964 0.512012
v 0.986681 0.748870 0.512012
v -0.986681 0.748870 0.512012
v 0.986681 -0.948964 -0.619743
v -0.986681 -0.948964 -0.619743
v 0.986681 0.542097 -0.619743
v -0.986681 0.542097 -0.619743
v 0.776633 -1.075774 0.474566
v -0.776633 -1.075774 0.474566
v 0.848745 -0.948964 -0.381317
v -0.848745 -0.948964 -0.381317
v 0.986681 -0.948964 0.512012
v -0.986681 -0.948964 0.512012
v 0.986681 -0.948964 -0.619743
v -0.986681 -0.948964 -0.619743
v 0.776633 -1.316577 0.474566
v -0.776633 -1.316577 0.474566
v 0.848745 -1.333989 -0.381317
v -0.848745 -1.333989 -0.381317
v 0.986681 -0.948964 -0.919378
v -0.986681 -0.948964 -0.919378
v 0.986681 0.542097 -0.919378
v -0.986681 0.542097 -0.919378
v 0.848745 -0.948964 0.474566
v -0.848745 -0.948964 0.474566
v 0.848745 -1.333989 0.474566
v -0.848745 -1.333989 0.474566
v 0.921283 -1.255885 1.189425
v -0.921283 -1.255885 1.189425
v 0.921283 -1.340258 1.189425
v -0.921283 -1.340258 1.189425
v 1.114906 1.000000 0.512012
v 1.211560 0.903346 0.512012
v 1.211560 -0.903346 0.512012
v 1.114906 -1.000000 0.512012
v -1.211560 0.903346 0.512012
v -1.114906 1.000000 0.512012
v -1.114906 -1.000000 0.512012
v -1.211560 -0.903346 0.512012
v -1.211560 -0.903346 1.000000
v -1.114906 -1.000000 1.000000
v -1.143216 -0.931655 1.000000
v -1.114906 1.000000 1.000000
v -1.211560 0.903346 1.000000
v -1.143216 0.931655 1.000000
v 1.211560 0.903346 1.000000
v 1.114906 1.000000 1.000000
v 1.143216 0.931655 1.000000
v 1.114906 -1.000000 1.000000
v 1.211560 -0.903346 1.000000
v 1.143216 -0.931655 1.000000
vn -0.0000 1.0000 -0.0000
vn -0.0000 -0.0000 1.0000
vn 1.0000 -0.0000 -0.0000
vn -1.0000 -0.0000 -0.0000
vn -0.0000 -1.0000 -0.0000
vn -0.0000 0.9837 -0.1797
vn -0.0000 -0.0000 -1.0000
vn -0.9801 -0.0000 -0.1983
vn -0.0000 0.9697 0.2443
vn 0.9801 -0.0000 -0.1983
vn -0.0000 -0.9995 -0.0331
vn -0.7071 -0.7071 -0.0000
vn 0.7071 0.7071 -0.0000
vn -0.7071 0.7071 -0.0000
vn 0.7071 -0.7071 -0.0000
vt 0.637387 0.395508
vt 0.637387 0.173426
vt 0.648172 0.173426
vt 0.648172 0.395508
vt 0.597393 0.039994
vt 0.352132 0.039994
vt 0.323253 0.011115
vt 0.327856 0.000000
vt 0.621669 -0.000000
vt 0.626272 0.011115
vt 0.079359 0.000000
vt 0.079359 0.256413
vt 0.000000 0.256413
vt 0.000000 0.000000
vt 0.832626 0.939565
vt 0.832626 0.731809
vt 0.911985 0.731809
vt 0.911985 0.939565
vt 0.597393 0.354065
vt 0.637387 0.015718
vt 0.637387 0.378341
vt 0.626273 0.382944
vt 0.352132 0.354065
vt 0.621669 0.394059
vt 0.327856 0.394059
vt 0.323253 0.382944
vt 0.312138 0.378341
vt 0.312138 0.015718
vt 0.882649 0.709579
vt 0.637387 0.709579
vt 0.637387 0.395508
vt 0.882649 0.395508
vt 0.637387 0.000000
vt 0.648172 0.000000
vt 0.298251 0.920297
vt 0.298251 0.698215
vt 0.309036 0.698215
vt 0.309036 0.920297
vt 0.922770 0.709580
vt 0.922770 0.883006
vt 0.911985 0.883006
vt 0.911985 0.709580
vt 0.079359 0.226923
vt 0.263410 0.023777
vt 0.263410 0.250700
vt 0.000000 0.486398
vt 0.000000 0.278642
vt 0.079359 0.278642
vt 0.079359 0.486398
vt 0.741252 0.022229
vt 0.741252 0.278642
vt 0.661893 0.278642
vt 0.661893 0.022229
vt 0.327856 0.788118
vt 0.312138 0.772400
vt 0.312138 0.409777
vt 0.327856 0.394059
vt 0.621669 0.394059
vt 0.637387 0.409777
vt 0.352978 0.430630
vt 0.352978 0.751547
vt 0.621669 0.788118
vt 0.263410 0.422161
vt 0.312138 0.250700
vt 0.312138 0.422161
vt 0.832626 0.942359
vt 0.637387 0.942359
vt 0.637387 0.758307
vt 0.808849 0.758307
vt 0.079359 0.422161
vt 0.403110 0.476799
vt 0.403110 0.273201
vt 0.803866 0.366110
vt 0.803866 0.226923
vt 0.848142 0.226923
vt 0.848142 0.366110
vt 0.809956 0.015862
vt 0.809956 0.211061
vt 0.803866 0.000000
vt 0.949144 0.211061
vt 0.949144 0.015862
vt 0.987918 0.000000
vt 0.987918 0.226923
vt 0.428392 0.983317
vt 0.428392 0.788118
vt 0.567579 0.788118
vt 0.567579 0.983317
vt 0.249523 0.698215
vt 0.249523 0.422161
vt 0.312138 0.698215
vt 0.848142 0.366110
vt 0.848142 0.226923
vt 0.892417 0.226923
vt 0.892417 0.366110
vt 0.998902 0.574123
vt 0.998902 0.601813
vt 0.882649 0.621170
vt 0.882649 0.611468
vt 0.242483 0.807316
vt 0.000000 0.807316
vt -0.000000 0.486398
vt 0.242483 0.486398
vt 0.249523 0.925137
vt 0.249523 0.698215
vt 0.298251 0.925137
vt 0.312138 0.023777
vt 0.637387 0.709579
vt 0.808849 0.709579
vt 0.761874 0.011727
vt 0.761874 0.264326
vt 0.741252 0.276053
vt 0.741252 0.000000
vt 0.801035 0.264326
vt 0.801035 0.011727
vt 0.803866 0.000000
vt 0.803866 0.276053
vt 0.648172 0.299647
vt 0.648172 0.000000
vt 0.661893 0.000000
vt 0.661893 0.299647
vt 0.998902 0.395508
vt 0.882649 0.399586
vt 0.567579 0.796587
vt 0.593943 0.788118
vt 0.593943 0.910223
vt 0.584706 0.913190
vt 0.428392 0.802028
vt 0.428392 0.980643
vt 0.312138 1.000000
vt 0.312138 0.788118
vt 0.637387 0.772399
vt 0.629087 0.751547
vt 0.629087 0.430630
vt 0.661893 0.000000
vt 0.741252 0.000000
vt 0.832626 0.709580
vt 0.911985 0.709580
vt 0.670401 0.299647
vt 0.670401 0.379005
vt 0.648172 0.379005
s 0
usemtl Material
f 4/1/1 2/2/1 8/3/1 5/4/1
f 4/5/2 3/6/2 54/7/2 53/8/2 49/9/2 51/10/2
f 41/11/1 46/12/1 52/13/1 56/14/1
f 43/15/3 42/16/3 55/17/3 59/18/3
f 2/19/2 4/5/2 51/10/2 50/20/2 58/21/2 60/22/2
f 1/23/2 2/19/2 60/22/2 59/24/2 55/25/2 57/26/2
f 3/6/2 1/23/2 57/26/2 56/27/2 52/28/2 54/7/2
f 8/29/2 7/30/2 6/31/2 5/32/2
f 2/2/4 1/33/4 7/34/4 8/3/4
f 1/35/5 3/36/5 6/37/5 7/38/5
f 3/39/3 4/40/3 5/41/3 6/42/3
f 12/43/6 11/11/6 15/44/6 16/45/6
f 49/46/4 53/47/4 45/48/4 48/49/4
f 47/50/5 44/51/5 58/52/5 50/53/5
f 45/54/7 46/55/7 41/56/7 42/57/7 43/58/7 44/59/7 11/60/7 12/61/7 48/62/7
f 14/63/4 16/45/4 32/64/4 30/65/4
f 11/66/3 9/67/3 13/68/3 15/69/3
f 10/70/4 12/43/4 16/45/4 14/63/4
f 9/71/1 10/72/1 22/72/1 21/71/1
f 34/73/4 20/74/4 28/75/4 36/76/4
f 13/71/1 9/71/1 21/71/1 23/71/1
f 14/72/1 13/71/1 23/71/1 24/72/1
f 10/72/1 14/72/1 24/72/1 22/72/1
f 34/77/5 33/78/5 21/74/5 22/79/5
f 19/80/5 20/81/5 24/82/5 23/83/5
f 33/78/5 19/80/5 23/83/5 21/74/5
f 20/81/5 34/77/5 22/79/5 24/82/5
f 35/84/5 36/85/5 28/86/5 27/87/5
f 20/88/7 19/89/7 27/65/7 28/90/7
f 19/91/3 33/92/3 35/93/3 27/94/3
f 18/95/8 26/96/8 40/97/8 38/98/8
f 30/99/7 32/100/7 31/101/7 29/102/7
f 13/103/5 14/104/5 30/36/5 29/105/5
f 16/45/1 15/44/1 31/106/1 32/64/1
f 15/69/3 13/68/3 29/107/3 31/108/3
f 18/109/2 17/110/2 33/111/2 34/112/2
f 25/113/2 26/114/2 36/115/2 35/116/2
f 26/114/2 18/109/2 34/112/2 36/115/2
f 17/110/2 25/113/2 35/116/2 33/111/2
f 37/117/2 38/118/2 40/119/2 39/120/2
f 17/121/9 18/95/9 38/98/9 37/122/9
f 25/123/10 17/124/10 37/125/10 39/126/10
f 26/127/11 25/128/11 39/129/11 40/130/11
f 47/131/7 48/62/7 12/61/7 10/132/7 9/133/7 11/60/7 44/59/7
f 49/9/2 50/20/2 51/10/2
f 52/28/2 53/8/2 54/7/2
f 55/25/2 56/27/2 57/26/2
f 58/21/2 59/24/2 60/22/2
f 47/50/12 50/53/12 49/134/12 48/135/12
f 41/136/13 56/137/13 55/17/13 42/16/13
f 52/13/14 46/12/14 45/48/14 53/47/14
f 58/138/15 44/139/15 43/140/15 59/117/15
