# Blender 4.0.2
# www.blender.org
mtllib desk.mtl
o Cube
v 2.000000 0.082371 -1.000000
v 1.929052 -0.082371 -0.937789
v 2.000000 0.082371 1.000000
v 1.917666 -0.082371 0.928620
v -2.000000 0.082371 -1.000000
v -1.924033 -0.082371 -0.929119
v -2.000000 0.082371 1.000000
v -1.938650 -0.082371 0.940398
v -1.924033 -0.082371 -0.734537
v -1.729451 -0.082371 -0.929119
v -1.750448 -0.082371 0.940398
v 1.917666 -0.082371 0.726947
v -1.729451 -0.082371 -0.734537
v 1.709690 -0.082371 -0.937789
v -2.000000 -0.082371 -1.000000
v -1.938650 -0.082371 0.751627
v -1.750448 -0.082371 0.751627
v -2.000000 -0.082371 0.000000
v -2.000000 -0.082371 1.000000
v 1.708965 -0.082371 0.928620
v 1.708965 -0.082371 0.726947
v 0.000000 -0.082371 1.000000
v 2.000000 -0.082371 1.000000
v 1.929052 -0.082371 -0.721500
v 1.709690 -0.082371 -0.721500
v 2.000000 -0.082371 0.000000
v 2.000000 -0.082371 -1.000000
v 0.000000 -0.082371 -1.000000
v 0.000000 -0.082371 0.000000
v -1.729451 -2.098743 -0.929119
v -1.924033 -2.098743 -0.929119
v -1.924033 -2.098743 -0.734537
v -1.729451 -2.098743 -0.734537
v -1.938650 -2.098743 0.751627
v -1.938650 -2.098743 0.940398
v -1.750448 -2.098743 0.940398
v -1.750448 -2.098743 0.751627
v 1.708965 -2.098743 0.928620
v 1.917666 -2.098743 0.928620
v 1.917666 -2.098743 0.726947
v 1.708965 -2.098743 0.726947
v 1.929052 -2.098743 -0.721500
v 1.929052 -2.098743 -0.937789
v 1.709690 -2.098743 -0.937789
v 1.709690 -2.098743 -0.721500
vn -0.0000 1.0000 -0.0000
vn -0.0000 -0.0000 1.0000
vn -1.0000 -0.0000 -0.0000
vn 1.0000 -0.0000 -0.0000
vn -0.0000 -0.0000 -1.0000
vn -0.0000 -1.0000 -0.0000
vt 0.625000 0.500000
vt 0.875000 0.500000
vt 0.875000 0.750000
vt 0.625000 0.750000
vt 0.375000 0.750000
vt 0.625000 1.000000
vt 0.375000 1.000000
vt 0.375000 0.875000
vt 0.375000 0.000000
vt 0.625000 0.000000
vt 0.625000 0.250000
vt 0.375000 0.250000
vt 0.375000 0.125000
vt 0.262190 0.737810
vt 0.262190 0.637190
vt 0.375000 0.500000
vt 0.375000 0.625000
vt 0.375000 0.375000
vt 0.239927 0.614927
vt 0.135073 0.614927
vt 0.287756 0.537755
vt 0.337244 0.537756
vt 0.230194 0.644806
vt 0.230194 0.730194
vt 0.239927 0.510073
vt 0.135073 0.510073
vt 0.125000 0.500000
vt 0.250000 0.500000
vt 0.125000 0.625000
vt 0.250000 0.625000
vt 0.144806 0.644806
vt 0.144806 0.730194
vt 0.125000 0.750000
vt 0.250000 0.750000
vt 0.362810 0.737810
vt 0.362810 0.637190
vt 0.337244 0.587244
vt 0.287756 0.587244
s 0
usemtl Material
f 1/1/1 5/2/1 7/3/1 3/4/1
f 23/5/2 3/4/2 7/6/2 19/7/2 22/8/2
f 19/9/3 7/10/3 5/11/3 15/12/3 18/13/3
f 20/14/3 21/15/3 41/15/3 38/14/3
f 27/16/4 1/1/4 3/4/4 23/5/4 26/17/4
f 15/12/5 5/11/5 1/1/5 27/16/5 28/18/5
f 13/19/2 9/20/2 32/20/2 33/19/2
f 14/21/5 2/22/5 43/22/5 44/21/5
f 17/23/4 11/24/4 36/24/4 37/23/4
f 10/25/6 6/26/6 15/27/6 28/28/6
f 6/26/6 9/20/6 18/29/6 15/27/6
f 13/19/6 10/25/6 28/28/6 29/30/6
f 9/20/6 13/19/6 29/30/6 18/29/6
f 16/31/6 8/32/6 19/33/6 18/29/6
f 8/32/6 11/24/6 22/34/6 19/33/6
f 11/24/6 17/23/6 29/30/6 22/34/6
f 17/23/6 16/31/6 18/29/6 29/30/6
f 20/14/6 4/35/6 23/5/6 22/34/6
f 4/35/6 12/36/6 26/17/6 23/5/6
f 21/15/6 20/14/6 22/34/6 29/30/6
f 12/36/6 21/15/6 29/30/6 26/17/6
f 24/37/6 2/22/6 27/16/6 26/17/6
f 2/22/6 14/21/6 28/28/6 27/16/6
f 14/21/6 25/38/6 29/30/6 28/28/6
f 25/38/6 24/37/6 26/17/6 29/30/6
f 41/15/6 40/36/6 39/35/6 38/14/6
f 34/31/6 37/23/6 36/24/6 35/32/6
f 31/26/6 30/25/6 33/19/6 32/20/6
f 44/21/6 43/22/6 42/37/6 45/38/6
f 16/31/5 17/23/5 37/23/5 34/31/5
f 25/38/3 14/21/3 44/21/3 45/38/3
f 21/15/5 12/36/5 40/36/5 41/15/5
f 24/37/2 25/38/2 45/38/2 42/37/2
f 6/26/5 10/25/5 30/25/5 31/26/5
f 8/32/3 16/31/3 34/31/3 35/32/3
f 9/20/3 6/26/3 31/26/3 32/20/3
f 4/35/2 20/14/2 38/14/2 39/35/2
f 11/24/2 8/32/2 35/32/2 36/24/2
f 2/22/4 24/37/4 42/37/4 43/22/4
f 10/25/4 13/19/4 33/19/4 30/25/4
f 12/36/4 4/35/4 39/35/4 40/36/4
