# Blender 4.0.2
# www.blender.org
mtllib easel.mtl
o Cube
v 0.723539 3.226763 -0.148175
v 0.723539 2.930413 -0.148175
v 0.723539 3.226763 0.148175
v 0.723539 2.930413 0.148175
v -0.723539 3.226763 -0.148175
v -0.723539 2.930413 -0.148175
v -0.723539 3.226763 0.148175
v -0.723539 2.930413 0.148175
v -1.023539 2.930413 -0.148175
v -1.023539 2.930413 0.148175
v 1.023539 3.226763 -0.148175
v 1.023539 2.930413 -0.148175
v -1.023539 3.226763 0.148175
v 1.023539 3.226763 0.148175
v 1.023539 2.930413 0.148175
v -1.023539 3.226763 -0.148175
v -1.014703 -0.735995 -0.148175
v -1.014703 -0.735995 0.148175
v 1.023963 -0.735995 0.148175
v 1.023963 -0.735995 -0.148175
v -1.014703 -1.035995 -0.148175
v -1.014703 -1.035995 0.148175
v 1.023963 -1.035995 0.148175
v 1.023963 -1.035995 -0.148175
v -1.223539 -3.653894 -0.148175
v -1.223539 -3.653894 0.148175
v 1.223539 -3.653894 0.148175
v 1.223539 -3.653894 -0.148175
v -1.523539 -3.653894 -0.148175
v -1.523539 -3.653894 0.148175
v 1.523539 -3.653894 0.148175
v 1.523539 -3.653894 -0.148175
v 0.250000 2.930413 -0.148175
v -0.251789 3.226763 -0.148175
v 0.250000 3.226763 -0.148175
v -0.251789 2.930413 -0.148175
v -0.251789 3.226763 -0.380867
v 0.250000 3.226763 -0.380867
v 0.250000 2.930413 -0.380867
v -0.251789 2.930413 -0.380867
v 0.250000 -3.650285 -1.790376
v -0.251789 -3.650285 -1.790376
v 0.250000 -3.650285 -2.023068
v -0.251789 -3.650285 -2.023068
v 0.723539 3.765352 -0.148175
v 0.723539 3.765352 0.148175
v -0.723539 3.765352 0.148175
v -0.723539 3.765352 -0.148175
v 1.023539 3.765352 -0.148175
v 1.023539 3.765352 0.148175
v -1.023539 3.765352 0.148175
v -1.023539 3.765352 -0.148175
vn -0.0000 1.0000 -0.0000
vn -0.0000 -0.0000 1.0000
vn -0.0000 -0.0000 -1.0000
vn -0.0000 -1.0000 -0.0000
vn -1.0000 -0.0000 -0.0000
vn 1.0000 -0.0000 -0.0000
vn -0.9971 0.0757 -0.0000
vn 0.9969 -0.0792 -0.0000
vn -0.9967 -0.0817 -0.0000
vn 0.9971 0.0757 -0.0000
vn 0.9968 -0.0795 -0.0000
vn -0.9971 -0.0760 -0.0000
vn -0.0000 0.2421 -0.9702
vn -0.0000 -0.2421 0.9702
vt 0.625000 0.500000
vt 0.750000 0.500000
vt 0.812500 0.500000
vt 0.875000 0.500000
vt 0.875000 0.750000
vt 0.625000 0.750000
vt 0.375000 0.750000
vt 0.625000 1.000000
vt 0.375000 1.000000
vt 0.625000 0.250000
vt 0.375000 0.250000
vt 0.125000 0.500000
vt 0.187500 0.500000
vt 0.250000 0.500000
vt 0.375000 0.500000
vt 0.125000 0.750000
vt 0.375000 0.000000
vt 0.625000 0.000000
vt 0.625000 0.312500
vt 0.375000 0.312500
vt 0.375000 0.375000
vt 0.625000 0.375000
s 0
usemtl Material
f 1/1/1 35/2/1 34/3/1 5/4/1 7/5/1 3/6/1
f 4/7/2 3/6/2 7/8/2 8/9/2
f 5/10/3 6/11/3 9/11/3 16/10/3
f 6/12/4 36/13/4 33/14/4 2/15/4 4/7/4 8/16/4
f 3/6/2 14/6/2 50/6/2 46/6/2
f 10/17/5 13/18/5 16/10/5 9/11/5
f 12/15/6 11/1/6 14/6/6 15/7/6
f 8/9/2 7/8/2 13/8/2 10/9/2
f 3/6/2 4/7/2 15/7/2 14/6/2
f 2/15/3 1/1/3 11/1/3 12/15/3
f 10/17/7 9/11/7 29/11/7 30/17/7
f 13/8/2 7/8/2 47/8/2 51/8/2
f 6/12/8 8/16/8 18/16/8 17/12/8
f 4/7/9 2/15/9 20/15/9 19/7/9
f 10/9/2 30/9/2 26/9/2 22/9/2 23/7/2 27/7/2 31/7/2 15/7/2 4/7/2 19/7/2 18/9/2 8/9/2
f 17/11/1 18/16/1 19/7/1 20/15/1
f 9/11/3 6/11/3 17/11/3 20/15/3 2/15/3 12/15/3 32/15/3 28/15/3 24/15/3 21/11/3 25/11/3 29/11/3
f 21/11/4 24/15/4 23/7/4 22/9/4
f 27/7/4 28/15/4 32/15/4 31/7/4
f 25/12/4 26/16/4 30/16/4 29/12/4
f 15/7/10 31/7/10 32/15/10 12/15/10
f 21/11/11 22/9/11 26/9/11 25/11/11
f 23/7/12 24/15/12 28/15/12 27/7/12
f 6/11/3 5/10/3 34/19/3 36/20/3
f 33/21/3 35/22/3 1/1/3 2/15/3
f 36/20/5 40/20/5 44/20/5 42/20/5
f 40/20/3 37/19/3 38/22/3 39/21/3
f 34/3/1 35/2/1 38/2/1 37/3/1
f 36/20/5 34/19/5 37/19/5 40/20/5
f 35/22/6 33/21/6 39/21/6 38/22/6
f 41/14/4 42/13/4 44/13/4 43/14/4
f 40/20/13 39/21/13 43/21/13 44/20/13
f 33/14/14 36/13/14 42/13/14 41/14/14
f 39/21/6 33/21/6 41/21/6 43/21/6
f 45/1/1 46/6/1 50/6/1 49/1/1
f 47/5/1 48/4/1 52/4/1 51/5/1
f 7/5/6 5/4/6 48/4/6 47/5/6
f 1/1/5 3/6/5 46/6/5 45/1/5
f 16/10/5 13/18/5 51/18/5 52/10/5
f 5/10/3 16/10/3 52/10/3 48/10/3
f 11/1/3 1/1/3 45/1/3 49/1/3
f 14/6/6 11/1/6 49/1/6 50/6/6
