# Blender 4.0.2
# www.blender.org
mtllib keycap.mtl
o Cube
v -0.056966 -0.026861 0.058536
v -0.056966 -0.026861 -0.058536
v 0.060106 -0.026861 0.058536
v 0.060106 -0.026861 -0.058536
v -0.044329 0.031267 0.045899
v -0.056966 0.018630 0.058536
v -0.044329 0.031267 -0.045899
v -0.056966 0.018630 -0.058536
v 0.047469 0.031267 0.045899
v 0.060106 0.018630 0.058536
v 0.047469 0.031267 -0.045899
v 0.060106 0.018630 -0.058536
vn -0.0000 1.0000 -0.0000
vn -0.0000 -1.0000 -0.0000
vn -0.0000 -0.0000 -1.0000
vn -1.0000 -0.0000 -0.0000
vn 1.0000 -0.0000 -0.0000
vn -0.7071 0.7071 -0.0000
vn 0.7071 0.7071 -0.0000
vn -0.0000 0.7071 0.7071
vn -0.0000 0.7071 -0.7071
vn -0.0000 -0.0000 1.0000
vt 0.502319 0.444211
vt 0.502319 0.055789
vt 0.890741 0.055789
vt 0.890741 0.444211
vt 0.497681 0.497681
vt 0.002319 0.497681
vt 0.002319 0.002319
vt 0.497681 0.002319
vt 0.248273 0.502319
vt 0.248273 0.997681
vt 0.055789 0.997681
vt 0.055789 0.502319
vt 0.754096 0.997681
vt 0.754096 0.502319
vt 0.946580 0.502319
vt 0.946580 0.997681
vt 0.503504 0.997681
vt 0.503504 0.502319
vt 0.695988 0.502319
vt 0.695988 0.997681
vt 0.944211 0.002319
vt 0.944211 0.497681
vt 0.749458 0.555789
vt 0.749458 0.944211
vt 0.306381 0.502319
vt 0.306381 0.997681
vt 0.252911 0.944211
vt 0.252911 0.555789
vt 0.002319 0.944211
vt 0.002319 0.555789
vt 0.498865 0.502319
vt 0.498865 0.997681
s 0
usemtl Material
f 9/1/1 11/2/1 7/3/1 5/4/1
f 1/5/2 2/6/2 4/7/2 3/8/2
f 4/9/3 2/10/3 8/11/3 12/12/3
f 6/13/4 8/14/4 2/15/4 1/16/4
f 3/17/5 4/18/5 12/19/5 10/20/5
f 5/4/6 7/3/6 8/21/6 6/22/6
f 11/23/7 9/24/7 10/20/7 12/19/7
f 6/25/8 10/26/8 9/27/8 5/28/8
f 12/12/9 8/11/9 7/29/9 11/30/9
f 1/31/10 3/32/10 10/26/10 6/25/10
