# Blender 4.0.2
# www.blender.org
mtllib office_window.mtl
o Cube
v -1.000000 -2.000000 0.299559
v 1.000000 -2.000000 0.299559
v -1.000000 -2.000000 0.299559
v 1.000000 -2.000000 0.299559
v 1.000000 2.000000 -0.100000
v 1.000000 -2.000000 -0.100000
v 0.842287 1.839868 0.100000
v 0.842287 -1.839868 0.100000
v -1.000000 2.000000 -0.100000
v -1.000000 -2.000000 -0.100000
v -0.842287 1.839868 0.100000
v -0.842287 -1.839868 0.100000
v -1.000000 -2.000000 0.100000
v -1.000000 2.000000 0.100000
v 1.000000 2.000000 0.100000
v 1.000000 -2.000000 0.100000
v -0.795038 -1.803001 0.042716
v -0.798718 1.808168 0.042716
v 0.798718 1.808168 0.042716
v 0.795038 -1.803001 0.042716
v -0.798718 0.756294 0.042716
v 0.798718 0.756294 0.042716
v -0.797676 -0.503422 0.042716
v 0.797676 -0.503422 0.042716
v -0.797676 0.617393 0.042716
v -0.842287 1.839868 0.042716
v 0.842287 1.839868 0.042716
v 0.797676 0.617393 0.042716
v -0.795038 -0.640464 0.042716
v -0.842287 0.688461 0.042716
v 0.842287 0.688461 0.042716
v 0.795038 -0.640464 0.042716
v 0.842287 -0.575704 0.042716
v 0.842287 -1.839868 0.042716
v -0.842287 -1.839868 0.042716
v -0.842287 -0.575704 0.042716
v -0.798718 0.756294 -0.054792
v -0.798718 1.808168 -0.054792
v 0.798718 1.808168 -0.054792
v 0.798718 0.756294 -0.054792
v -0.797676 -0.503422 -0.054792
v -0.797676 0.617393 -0.054792
v 0.797676 0.617393 -0.054792
v 0.797676 -0.503422 -0.054792
v 0.795038 -0.640464 -0.054792
v 0.795038 -1.803001 -0.054792
v -0.795038 -1.803001 -0.054792
v -0.795038 -0.640464 -0.054792
v -1.000000 -2.166270 -0.100000
v -1.000000 -2.166270 0.100000
v 1.000000 -2.166270 -0.100000
v 1.000000 -2.166270 0.100000
v -1.000000 -2.000000 0.299559
v 1.000000 -2.000000 0.299559
v -1.000000 -2.166270 0.161065
v -1.000000 -2.000000 0.299559
v 1.000000 -2.000000 0.299559
v 1.000000 -2.166270 0.161065
vn -0.0000 1.0000 -0.0000
vn -0.0000 -1.0000 -0.0000
vn -1.0000 -0.0000 -0.0000
vn 1.0000 -0.0000 -0.0000
vn -0.0000 -0.0000 -1.0000
vn -0.0000 -0.0000 1.0000
vn -0.0000 -0.6400 0.7684
vt 0.375000 0.750000
vt 0.375000 1.000000
vt 0.471971 0.693032
vt 0.240790 0.693032
vt 0.240790 0.461851
vt 0.471971 0.461851
vt 0.778974 0.620063
vt 0.778974 0.814783
vt 0.712761 0.814783
vt 0.712762 0.620063
vt 0.231181 0.231181
vt 0.000000 0.231181
vt -0.000000 0.000000
vt 0.231181 -0.000000
vt 0.471971 0.461851
vt 0.240790 0.461851
vt 0.240790 0.230671
vt 0.471971 0.230671
vt 0.000000 0.693032
vt 0.000000 0.461851
vt 0.231181 0.461851
vt 0.231181 0.693032
vt 0.694531 0.683842
vt 0.694531 0.471171
vt 0.712761 0.461917
vt 0.712761 0.693097
vt 0.499811 0.471171
vt 0.499811 0.683842
vt 0.481581 0.693097
vt 0.481581 0.461917
vt 0.777539 0.927493
vt 0.712761 0.927493
vt 0.712761 0.814783
vt 0.777539 0.814783
vt 0.778976 0.000000
vt 0.778976 0.212671
vt 0.712761 0.212671
vt 0.712761 0.139608
vt 0.712761 0.066546
vt 0.712761 0.000000
vt 0.712761 0.620063
vt 0.712761 0.425342
vt 0.778976 0.425342
vt 0.778976 0.620063
vt 0.712761 0.425342
vt 0.712761 0.212671
vt 0.778976 0.212671
vt 0.778976 0.279217
vt 0.778976 0.352279
vt 0.778976 0.425342
vt 0.225417 0.702642
vt 0.225417 0.887290
vt 0.112710 0.887290
vt 0.112710 0.702642
vt 0.891682 0.368815
vt 0.891682 0.552612
vt 0.778976 0.552612
vt 0.778976 0.368815
vt 0.671265 0.755723
vt 0.671265 0.694929
vt 0.676301 0.693097
vt 0.676301 0.759643
vt 0.486617 0.694929
vt 0.486617 0.755723
vt 0.481581 0.759643
vt 0.481581 0.693097
vt 0.671144 0.828528
vt 0.671144 0.763750
vt 0.676301 0.832706
vt 0.486737 0.763750
vt 0.486737 0.828528
vt 0.481581 0.832706
vt 0.487042 0.836448
vt 0.487042 0.903638
vt 0.481581 0.905768
vt 0.670840 0.903638
vt 0.676301 0.905768
vt 0.670840 0.836448
vt 0.956460 0.553463
vt 0.891682 0.553463
vt 0.891682 0.369055
vt 0.956460 0.369055
vt 0.952475 0.369055
vt 0.891682 0.369055
vt 0.891682 0.184407
vt 0.952475 0.184407
vt 0.958875 0.183797
vt 0.891686 0.183797
vt 0.891686 -0.000000
vt 0.958875 -0.000000
vt 0.846162 0.916570
vt 0.778974 0.916570
vt 0.778974 0.803860
vt 0.846162 0.803860
vt 0.000000 0.887290
vt 0.000000 0.702641
vt 0.112710 0.702641
vt 0.112710 0.887290
vt 0.891682 0.184407
vt 0.891682 0.368815
vt 0.778976 0.368815
vt 0.778976 0.184407
vt 0.778974 0.620063
vt 0.891684 0.620063
vt 0.891684 0.803860
vt 0.913352 0.803860
vt 0.974145 0.803860
vt 0.974145 0.916570
vt 0.913352 0.916570
vt 0.778976 0.184407
vt 0.778976 0.000000
vt 0.891686 -0.000000
vt 0.891686 0.184407
vt 0.913351 0.803860
vt 0.913352 0.916570
vt 0.846162 0.916570
vt 0.060793 1.000000
vt 0.000000 1.000000
vt -0.000000 0.887290
vt 0.060793 0.887290
vt 0.891684 0.620063
vt 0.956462 0.620063
vt 0.956462 0.732773
vt 0.891684 0.732773
vt 0.712761 0.461917
vt 0.481581 0.461917
vt 0.481581 0.230744
vt 0.712761 0.230744
vt 0.240790 -0.000000
vt 0.240790 0.231181
vt 0.481581 0.230671
vt 0.481581 0.461851
vt 0.231181 0.702641
vt 0.000000 0.702641
vt 0.240790 0.301765
vt 0.231181 0.461851
vt 0.471461 0.693032
vt 0.471461 0.924212
vt 0.240790 0.924213
vt 0.240790 0.693032
vt 0.471971 0.000000
vt 0.481581 0.160086
vt 0.712761 0.160162
vt 0.481581 0.160162
vt 0.481581 0.000000
vt 0.712761 0.000000
s 0
usemtl Material
f 2/1/1 1/2/1 3/2/1 4/1/1
f 5/3/1 9/4/1 14/5/1 15/6/1
f 7/7/2 11/8/2 26/9/2 27/10/2
f 13/11/3 14/12/3 9/13/3 10/14/3
f 6/15/4 5/16/4 15/17/4 16/18/4
f 10/19/5 9/20/5 5/21/5 6/22/5
f 12/23/6 11/24/6 14/25/6 13/26/6
f 7/27/6 8/28/6 16/29/6 15/30/6
f 11/24/6 7/27/6 15/30/6 14/25/6
f 8/28/6 12/23/6 13/26/6 16/29/6
f 24/31/3 28/32/3 43/33/3 44/34/3
f 11/35/4 12/36/4 35/37/4 36/38/4 30/39/4 26/40/4
f 12/41/1 8/42/1 34/43/1 35/44/1
f 8/45/3 7/46/3 27/47/3 31/48/3 33/49/3 34/50/3
f 19/51/2 18/52/2 38/53/2 39/54/2
f 32/55/2 29/56/2 48/57/2 45/58/2
f 21/59/6 18/60/6 26/61/6 30/62/6
f 19/63/6 22/64/6 31/65/6 27/66/6
f 18/60/6 19/63/6 27/66/6 26/61/6
f 22/64/6 21/59/6 30/62/6 31/65/6
f 23/67/6 25/68/6 30/62/6 36/69/6
f 28/70/6 24/71/6 33/72/6 31/65/6
f 25/68/6 28/70/6 31/65/6 30/62/6
f 24/71/6 23/67/6 36/69/6 33/72/6
f 32/73/6 20/74/6 34/75/6 33/72/6
f 20/74/6 17/76/6 35/77/6 34/75/6
f 17/76/6 29/78/6 36/69/6 35/77/6
f 29/78/6 32/73/6 33/72/6 36/69/6
f 44/79/6 43/80/6 42/81/6 41/82/6
f 40/83/6 39/84/6 38/85/6 37/86/6
f 46/87/6 45/88/6 48/89/6 47/90/6
f 20/91/3 32/92/3 45/93/3 46/94/3
f 21/95/1 22/96/1 40/97/1 37/98/1
f 28/99/2 25/100/2 42/101/2 43/102/2
f 17/93/1 20/103/1 46/104/1 47/105/1
f 18/106/4 21/107/4 37/108/4 38/109/4
f 23/110/1 24/111/1 44/112/1 41/113/1
f 29/94/4 17/114/4 47/115/4 48/116/4
f 22/117/3 19/118/3 39/119/3 40/120/3
f 25/121/4 23/122/4 41/123/4 42/124/4
f 49/125/2 51/126/2 52/127/2 50/128/2
f 13/11/3 10/14/3 49/129/3 50/130/3
f 6/15/4 16/18/4 52/131/4 51/132/4
f 10/19/5 6/22/5 51/133/5 49/134/5
f 13/11/3 50/130/3 55/135/3 56/136/3 53/136/3
f 16/137/1 13/138/1 53/139/1 54/140/1
f 52/131/4 16/18/4 54/141/4 57/141/4 58/142/4
f 55/143/7 58/144/7 57/145/7 56/146/7
f 50/128/2 52/127/2 58/144/2 55/143/2
