# Blender 4.0.2
# www.blender.org
mtllib other_half_torus.mtl
o Torus.001
v -0.000000 0.595000 -1.015428
v -0.181899 0.559668 -0.954232
v -0.294318 0.467168 -0.794017
v -0.294318 0.352832 -0.595981
v -0.181899 0.260332 -0.435766
v -0.000000 0.225000 -0.374570
v 0.181898 0.260332 -0.435766
v 0.294318 0.352832 -0.595981
v 0.294318 0.467168 -0.794017
v 0.181898 0.559668 -0.954232
v -0.000000 1.118234 -0.391862
v -0.181899 1.051832 -0.367694
v -0.294318 0.877989 -0.304420
v -0.294318 0.663107 -0.226209
v -0.181899 0.489264 -0.162936
v -0.000000 0.422862 -0.138767
v 0.181898 0.489264 -0.162936
v 0.294318 0.663107 -0.226209
v 0.294318 0.877989 -0.304420
v 0.181898 1.051832 -0.367694
v -0.000000 1.118234 0.422146
v -0.181899 1.051832 0.397978
v -0.294318 0.877989 0.334704
v -0.294318 0.663107 0.256493
v -0.181899 0.489264 0.193220
v -0.000000 0.422862 0.169051
v 0.181898 0.489264 0.193220
v 0.294318 0.663107 0.256493
v 0.294318 0.877989 0.334704
v 0.181898 1.051832 0.397978
v -0.000000 0.595000 1.045713
v -0.181899 0.559668 0.984516
v -0.294318 0.467168 0.824301
v -0.294318 0.352832 0.626265
v -0.181899 0.260332 0.466050
v -0.000000 0.225000 0.404854
v 0.181898 0.260332 0.466050
v 0.294318 0.352832 0.626265
v 0.294318 0.467168 0.824301
v 0.181898 0.559668 0.984516
v 0.000000 -0.206641 1.187063
v -0.181898 -0.194371 1.117473
v -0.294318 -0.162246 0.935284
v -0.294318 -0.122537 0.710086
v -0.181899 -0.090412 0.527896
v 0.000000 -0.078142 0.458306
v 0.181899 -0.090412 0.527896
v 0.294318 -0.122537 0.710086
v 0.294318 -0.162246 0.935284
v 0.181899 -0.194371 1.117473
vn -0.3429 0.7196 -0.6038
vn -0.8397 0.4160 -0.3490
vn -1.0000 -0.0000 -0.0000
vn -0.8397 -0.4160 0.3490
vn -0.3429 -0.7196 0.6038
vn 0.3429 -0.7196 0.6038
vn 0.8397 -0.4160 0.3490
vn 1.0000 -0.0000 -0.0000
vn 0.8397 0.4160 -0.3490
vn 0.3429 0.7196 -0.6038
vn -0.3429 0.9394 -0.0000
vn -0.8397 0.5430 -0.0000
vn -0.8397 -0.5430 -0.0000
vn -0.3429 -0.9394 -0.0000
vn 0.3429 -0.9394 -0.0000
vn 0.8397 -0.5430 -0.0000
vn 0.8397 0.5430 -0.0000
vn 0.3429 0.9394 -0.0000
vn -0.3429 0.7196 0.6038
vn -0.8397 0.4160 0.3490
vn -0.8397 -0.4160 -0.3490
vn -0.3429 -0.7196 -0.6038
vn 0.3429 -0.7196 -0.6038
vn 0.8397 -0.4160 -0.3490
vn 0.8397 0.4160 0.3490
vn 0.3429 0.7196 0.6038
vn -0.3429 0.1631 0.9251
vn -0.8397 0.0943 0.5348
vn -0.8397 -0.0943 -0.5348
vn -0.3429 -0.1631 -0.9251
vn 0.3429 -0.1631 -0.9251
vn 0.8397 -0.0943 -0.5348
vn 0.8397 0.0943 0.5348
vn 0.3429 0.1631 0.9251
vn -0.0000 -0.8660 -0.5000
vn -0.0000 -0.9848 -0.1736
vt 0.888889 0.600000
vt 1.000000 0.600000
vt 1.000000 0.700000
vt 0.888889 0.700000
vt 1.000000 0.800000
vt 0.888889 0.800000
vt 1.000000 0.900000
vt 0.888889 0.900000
vt 1.000000 1.000000
vt 0.888889 1.000000
vt 0.888889 -0.000000
vt 1.000000 -0.000000
vt 1.000000 0.100000
vt 0.888889 0.100000
vt 1.000000 0.200000
vt 0.888889 0.200000
vt 1.000000 0.300000
vt 0.888889 0.300000
vt 1.000000 0.400000
vt 0.888889 0.400000
vt 1.000000 0.500000
vt 0.888889 0.500000
vt 0.000000 0.600000
vt 0.111111 0.600000
vt 0.111111 0.700000
vt 0.000000 0.700000
vt 0.111111 0.800000
vt 0.000000 0.800000
vt 0.111111 0.900000
vt 0.000000 0.900000
vt 0.111111 1.000000
vt 0.000000 1.000000
vt 0.000000 -0.000000
vt 0.111111 -0.000000
vt 0.111111 0.100000
vt 0.000000 0.100000
vt 0.111111 0.200000
vt 0.000000 0.200000
vt 0.111111 0.300000
vt 0.000000 0.300000
vt 0.111111 0.400000
vt 0.000000 0.400000
vt 0.111111 0.500000
vt 0.000000 0.500000
vt 0.222222 0.600000
vt 0.222222 0.700000
vt 0.222222 0.800000
vt 0.222222 0.900000
vt 0.222222 1.000000
vt 0.222222 -0.000000
vt 0.222222 0.100000
vt 0.222222 0.200000
vt 0.222222 0.300000
vt 0.222222 0.400000
vt 0.222222 0.500000
vt 0.333333 0.600000
vt 0.333333 0.700000
vt 0.333333 0.800000
vt 0.333333 0.900000
vt 0.333333 1.000000
vt 0.333333 -0.000000
vt 0.333333 0.100000
vt 0.333333 0.200000
vt 0.333333 0.300000
vt 0.333333 0.400000
vt 0.333333 0.500000
s 0
f 1/1/1 2/4/1 12/3/1 11/2/1
f 2/4/2 3/6/2 13/5/2 12/3/2
f 3/6/3 4/8/3 14/7/3 13/5/3
f 4/8/4 5/10/4 15/9/4 14/7/4
f 5/11/5 6/14/5 16/13/5 15/12/5
f 6/14/6 7/16/6 17/15/6 16/13/6
f 7/16/7 8/18/7 18/17/7 17/15/7
f 8/18/8 9/20/8 19/19/8 18/17/8
f 9/20/9 10/22/9 20/21/9 19/19/9
f 10/22/10 1/1/10 11/2/10 20/21/10
f 11/23/11 12/26/11 22/25/11 21/24/11
f 12/26/12 13/28/12 23/27/12 22/25/12
f 13/28/3 14/30/3 24/29/3 23/27/3
f 14/30/13 15/32/13 25/31/13 24/29/13
f 15/33/14 16/36/14 26/35/14 25/34/14
f 16/36/15 17/38/15 27/37/15 26/35/15
f 17/38/16 18/40/16 28/39/16 27/37/16
f 18/40/8 19/42/8 29/41/8 28/39/8
f 19/42/17 20/44/17 30/43/17 29/41/17
f 20/44/18 11/23/18 21/24/18 30/43/18
f 21/24/19 22/25/19 32/46/19 31/45/19
f 22/25/20 23/27/20 33/47/20 32/46/20
f 23/27/3 24/29/3 34/48/3 33/47/3
f 24/29/21 25/31/21 35/49/21 34/48/21
f 25/34/22 26/35/22 36/51/22 35/50/22
f 26/35/23 27/37/23 37/52/23 36/51/23
f 27/37/24 28/39/24 38/53/24 37/52/24
f 28/39/8 29/41/8 39/54/8 38/53/8
f 29/41/25 30/43/25 40/55/25 39/54/25
f 30/43/26 21/24/26 31/45/26 40/55/26
f 31/45/27 32/46/27 42/57/27 41/56/27
f 32/46/28 33/47/28 43/58/28 42/57/28
f 33/47/3 34/48/3 44/59/3 43/58/3
f 34/48/29 35/49/29 45/60/29 44/59/29
f 35/50/30 36/51/30 46/62/30 45/61/30
f 36/51/31 37/52/31 47/63/31 46/62/31
f 37/52/32 38/53/32 48/64/32 47/63/32
f 38/53/8 39/54/8 49/65/8 48/64/8
f 39/54/33 40/55/33 50/66/33 49/65/33
f 40/55/34 31/45/34 41/56/34 50/66/34
f 1/1/35 10/22/35 9/20/35 8/18/35 7/16/35 6/14/35 5/11/35 4/8/35 3/6/35 2/4/35
f 41/56/36 42/57/36 43/58/36 44/59/36 45/61/36 46/62/36 47/63/36 48/64/36 49/65/36 50/66/36
