# Blender 4.0.2
# www.blender.org
mtllib paper.mtl
o Cube
v 0.526053 0.024489 -0.707569
v 0.526053 -0.024489 -0.707569
v 0.526053 0.024489 0.707569
v 0.526053 -0.024489 0.707569
v -0.526053 -0.024489 -0.707569
v -0.526053 -0.024489 0.707569
v 0.526053 0.024489 0.000000
v -0.457637 0.024489 -0.000415
v -0.526053 0.024489 -0.707569
v 0.000000 0.024489 0.707569
v -0.526053 0.024489 0.707569
v 0.000000 0.024489 -0.707569
v 0.000000 0.024489 0.000000
v 0.000000 0.024489 0.353784
v 0.000000 0.024489 -0.353784
v -0.526053 0.024489 0.353784
v -0.526053 0.024489 -0.353784
v -0.457637 0.010746 -0.000415
v -0.501132 0.024489 -0.551242
v -0.491861 0.024489 -0.563712
v -0.503236 0.024489 -0.575857
v -0.491861 0.024489 0.551329
v -0.501132 0.024489 0.538859
v -0.503077 0.024489 0.563522
v -0.458653 0.024489 0.538859
v -0.467924 0.024489 0.551329
v -0.449665 0.024489 0.554391
v -0.467924 0.024489 -0.563712
v -0.458653 0.024489 -0.551242
v -0.449624 0.024489 -0.566544
v -0.491861 0.024489 -0.522833
v -0.501132 0.024489 -0.535303
v -0.502935 0.024489 -0.510601
v -0.467924 0.024489 0.510450
v -0.458653 0.024489 0.522920
v -0.449667 0.024489 0.507380
v -0.458653 0.024489 -0.535303
v -0.467924 0.024489 -0.522833
v -0.449711 0.024489 -0.519537
v -0.501132 0.024489 0.522920
v -0.491861 0.024489 0.510450
v -0.503071 0.024489 0.498256
v -0.501674 0.024489 -0.008974
v -0.492403 0.024489 -0.021444
v -0.502585 0.024489 -0.033854
v -0.457637 0.024489 0.008145
v -0.466908 0.024489 0.020615
v -0.449484 0.024489 0.026551
v -0.492403 0.024489 0.020615
v -0.501674 0.024489 0.008145
v -0.502582 0.024489 0.033025
v -0.466908 0.024489 -0.021444
v -0.457637 0.024489 -0.008974
v -0.449479 0.024489 -0.027369
v -0.501132 0.010746 -0.535303
v -0.491861 0.010746 -0.522833
v -0.491861 0.010746 -0.563712
v -0.501132 0.010746 -0.551242
v -0.458653 0.010746 0.522920
v -0.467924 0.010746 0.510450
v -0.467924 0.010746 0.551329
v -0.458653 0.010746 0.538859
v -0.501132 0.010746 0.538859
v -0.491861 0.010746 0.551329
v -0.491861 0.010746 0.510450
v -0.501132 0.010746 0.522920
v -0.458653 0.010746 -0.551242
v -0.467924 0.010746 -0.563712
v -0.467924 0.010746 -0.522833
v -0.458653 0.010746 -0.535303
v -0.466908 0.010746 0.020615
v -0.457637 0.010746 0.008145
v -0.457637 0.010746 -0.008974
v -0.466908 0.010746 -0.021444
v -0.501674 0.010746 0.008145
v -0.492403 0.010746 0.020615
v -0.492403 0.010746 -0.021444
v -0.501674 0.010746 -0.008974
vn -0.0000 -0.0000 1.0000
vn -1.0000 -0.0000 -0.0000
vn -0.0000 -1.0000 -0.0000
vn 1.0000 -0.0000 -0.0000
vn -0.0000 -0.0000 -1.0000
vn -0.0000 1.0000 -0.0000
vn 0.8025 -0.0000 -0.5966
vn 0.8025 -0.0000 0.5966
vn -0.8025 -0.0000 0.5966
vn -0.8025 -0.0000 -0.5966
vt 0.002339 0.330994
vt 0.002339 0.002339
vt 0.166667 0.002339
vt 0.330994 0.002339
vt 0.330994 0.330994
vt 0.002339 0.664328
vt 0.002339 0.335672
vt 0.084503 0.335672
vt 0.248831 0.335672
vt 0.330994 0.335672
vt 0.330994 0.664328
vt 0.664328 0.002339
vt 0.664328 0.330994
vt 0.335672 0.330994
vt 0.335672 0.002339
vt 0.664328 0.664328
vt 0.335672 0.664328
vt 0.335672 0.500000
vt 0.335672 0.335672
vt 0.664328 0.335672
vt 0.002339 0.997661
vt 0.002339 0.669006
vt 0.166667 0.669006
vt 0.330994 0.669006
vt 0.330994 0.997661
vt 0.664328 0.833333
vt 0.500000 0.833333
vt 0.500000 0.751169
vt 0.500000 0.669006
vt 0.664328 0.669006
vt 0.664328 0.997661
vt 0.500000 0.997661
vt 0.500000 0.915497
vt 0.359591 0.827167
vt 0.354148 0.828546
vt 0.346184 0.828546
vt 0.343004 0.825663
vt 0.335672 0.751169
vt 0.669006 0.045805
vt 0.669006 0.042103
vt 0.761227 0.042103
vt 0.761227 0.045805
vt 0.669006 0.103372
vt 0.669006 0.095894
vt 0.761227 0.095894
vt 0.761227 0.103372
vt 0.669006 0.074148
vt 0.669006 0.070447
vt 0.761227 0.070447
vt 0.761227 0.074148
vt 0.669006 0.115527
vt 0.669006 0.108049
vt 0.761227 0.108049
vt 0.761227 0.115527
vt 0.342894 0.951917
vt 0.343457 0.957654
vt 0.343457 0.961355
vt 0.342800 0.967072
vt 0.335672 0.997661
vt 0.335672 0.915497
vt 0.669006 0.127682
vt 0.669006 0.120205
vt 0.761227 0.120205
vt 0.761227 0.127682
vt 0.359534 0.715498
vt 0.356727 0.711889
vt 0.356727 0.708187
vt 0.359534 0.704580
vt 0.669006 0.139837
vt 0.669006 0.132360
vt 0.761227 0.132360
vt 0.761227 0.139837
vt 0.669006 0.148491
vt 0.669006 0.144515
vt 0.761227 0.144515
vt 0.761227 0.148491
vt 0.346353 0.964252
vt 0.353830 0.964252
vt 0.359547 0.964909
vt 0.669006 0.013199
vt 0.669006 0.005235
vt 0.761227 0.005235
vt 0.761227 0.013199
vt 0.669006 0.179164
vt 0.671902 0.176268
vt 0.679379 0.176268
vt 0.682275 0.179164
vt 0.682275 0.182866
vt 0.679379 0.185762
vt 0.671902 0.185762
vt 0.669006 0.182866
vt 0.669006 0.031633
vt 0.669006 0.023669
vt 0.761227 0.023669
vt 0.761227 0.031633
vt 0.343287 0.831442
vt 0.343287 0.835418
vt 0.343003 0.841196
vt 0.669006 0.155157
vt 0.669006 0.153169
vt 0.761227 0.153169
vt 0.761227 0.155157
vt 0.669006 0.193336
vt 0.671902 0.190440
vt 0.679379 0.190440
vt 0.682275 0.193336
vt 0.682275 0.197038
vt 0.679379 0.199934
vt 0.671902 0.199934
vt 0.669006 0.197038
vt 0.669006 0.164718
vt 0.671902 0.161822
vt 0.679866 0.161822
vt 0.682762 0.164718
vt 0.682762 0.168694
vt 0.679866 0.171590
vt 0.671902 0.171590
vt 0.669006 0.168694
vt 0.669006 0.166706
vt 0.342849 0.702459
vt 0.343457 0.708187
vt 0.343457 0.711889
vt 0.342851 0.717617
vt 0.335672 0.669006
vt 0.359592 0.839689
vt 0.357044 0.835418
vt 0.357044 0.833430
vt 0.669006 0.088320
vt 0.669006 0.084618
vt 0.761227 0.084618
vt 0.761227 0.088320
vt 0.346184 0.838314
vt 0.354148 0.838314
vt 0.356727 0.961355
vt 0.356727 0.957654
vt 0.359520 0.953992
vt 0.357044 0.831442
vt 0.353830 0.705291
vt 0.346353 0.705291
vt 0.669006 0.157144
vt 0.761227 0.157144
vt 0.353830 0.954758
vt 0.346353 0.954758
vt 0.346353 0.714785
vt 0.353830 0.714785
vt 0.669006 0.053379
vt 0.761227 0.053379
vt 0.761227 0.056275
vt 0.669006 0.056275
vt 0.761227 0.062873
vt 0.669006 0.062873
vt 0.669006 0.059977
vt 0.761227 0.059977
vt 0.669006 0.067551
vt 0.761227 0.067551
vt 0.761227 0.077045
vt 0.669006 0.077045
vt 0.669006 0.002339
vt 0.761227 0.002339
vt 0.669006 0.081722
vt 0.761227 0.081722
vt 0.761227 0.091216
vt 0.669006 0.091216
vt 0.761227 0.034529
vt 0.669006 0.034529
vt 0.669006 0.039207
vt 0.761227 0.039207
vt 0.761227 0.016095
vt 0.669006 0.016095
vt 0.669006 0.020773
vt 0.761227 0.020773
vt 0.761227 0.048701
vt 0.669006 0.048701
s 0
usemtl Material
f 4/1/1 3/2/1 10/3/1 11/4/1 6/5/1
f 6/6/2 11/7/2 16/8/2 17/9/2 9/10/2 5/11/2
f 5/12/3 2/13/3 4/14/3 6/15/3
f 2/16/4 1/17/4 7/18/4 3/19/4 4/20/4
f 5/21/5 9/22/5 12/23/5 1/24/5 2/25/5
f 7/26/6 13/27/6 14/28/6 10/29/6 3/30/6
f 1/31/6 12/32/6 15/33/6 13/27/6 7/26/6
f 48/34/6 47/35/6 49/36/6 51/37/6 16/38/6 14/28/6
f 37/39/2 29/40/2 67/41/2 70/42/2
f 28/43/1 20/44/1 57/45/1 68/46/1
f 25/47/2 35/48/2 59/49/2 62/50/2
f 22/51/5 26/52/5 61/53/5 64/54/5
f 33/55/6 32/56/6 19/57/6 21/58/6 9/59/6 17/60/6
f 31/61/5 38/62/5 69/63/5 56/64/5
f 36/65/6 35/66/6 25/67/6 27/68/6 10/29/6 14/28/6
f 34/69/1 41/70/1 65/71/1 60/72/1
f 43/73/4 50/74/4 75/75/4 78/76/4
f 21/58/6 20/77/6 28/78/6 30/79/6 12/32/6 9/59/6
f 49/80/5 47/81/5 71/82/5 76/83/5
f 67/84/6 68/85/6 57/86/6 58/87/6 55/88/6 56/89/6 69/90/6 70/91/6
f 52/92/1 44/93/1 77/94/1 74/95/1
f 51/37/6 50/96/6 43/97/6 45/98/6 17/60/6 16/38/6
f 8/99/2 53/100/2 73/101/2 18/102/2
f 59/103/6 60/104/6 65/105/6 66/106/6 63/107/6 64/108/6 61/109/6 62/110/6
f 73/111/6 74/112/6 77/113/6 78/114/6 75/115/6 76/116/6 71/117/6 72/118/6 18/119/6
f 24/120/6 23/121/6 40/122/6 42/123/6 16/38/6 11/124/6
f 54/125/6 53/126/6 8/127/6 13/27/6 15/33/6
f 40/128/4 23/129/4 63/130/4 66/131/4
f 45/98/6 44/132/6 52/133/6 54/125/6 15/33/6 17/60/6
f 30/79/6 29/134/6 37/135/6 39/136/6 15/33/6 12/32/6
f 8/127/6 46/137/6 48/34/6 14/28/6 13/27/6
f 27/68/6 26/138/6 22/139/6 24/120/6 11/124/6 10/29/6
f 46/140/2 8/99/2 18/102/2 72/141/2
f 39/136/6 38/142/6 31/143/6 33/55/6 17/60/6 15/33/6
f 42/123/6 41/144/6 34/145/6 36/65/6 14/28/6 16/38/6
f 19/57/6 20/77/6 21/58/6
f 22/139/6 23/121/6 24/120/6
f 25/67/6 26/138/6 27/68/6
f 28/78/6 29/134/6 30/79/6
f 31/143/6 32/56/6 33/55/6
f 34/145/6 35/66/6 36/65/6
f 37/135/6 38/142/6 39/136/6
f 40/122/6 41/144/6 42/123/6
f 43/97/6 44/132/6 45/98/6
f 46/137/6 47/35/6 48/34/6
f 49/36/6 50/96/6 51/37/6
f 52/133/6 53/126/6 54/125/6
f 31/146/7 56/147/7 55/148/7 32/149/7
f 57/150/8 20/151/8 19/152/8 58/153/8
f 34/154/9 60/155/9 59/49/9 35/48/9
f 61/156/10 26/157/10 25/47/10 62/50/10
f 71/82/10 47/81/10 46/158/10 72/159/10
f 22/160/7 64/161/7 63/130/7 23/129/7
f 65/162/8 41/163/8 40/128/8 66/131/8
f 52/92/9 74/95/9 73/164/9 53/165/9
f 67/41/9 29/40/9 28/166/9 68/167/9
f 49/80/7 76/83/7 75/168/7 50/169/7
f 77/94/8 44/93/8 43/170/8 78/171/8
f 69/172/10 38/173/10 37/39/10 70/42/10
f 19/152/4 32/149/4 55/148/4 58/153/4
