# Blender 4.0.2
# www.blender.org
mtllib safe_door.mtl
o Cube.001
v -0.745094 -0.992842 0.072220
v -0.745094 0.992842 0.072220
v -0.745094 -0.992842 -0.072220
v -0.745094 0.992842 -0.072220
v 0.590507 -0.296824 0.072220
v 0.590507 0.296824 0.072220
v 0.745094 -0.992842 -0.072220
v 0.745094 0.992842 -0.072220
v -0.126661 -0.296824 0.072220
v -0.126661 0.296824 0.072220
v -0.281248 -0.992842 0.072220
v 0.745094 -0.992842 0.072220
v 0.745094 0.992842 0.072220
v -0.281248 0.992842 0.072220
v -0.126661 -0.296824 0.072220
v 0.590507 -0.296824 0.072220
v 0.590507 0.296824 0.072220
v -0.126661 0.296824 0.072220
v 0.098426 -0.198200 0.130350
v 0.492987 -0.198200 0.130350
v 0.492987 0.198200 0.130350
v 0.098426 0.198200 0.130350
v -0.126661 -0.296824 0.130350
v 0.590507 -0.296824 0.130350
v 0.590507 0.296824 0.130350
v -0.126661 0.296824 0.130350
v 0.098426 -0.198200 0.100612
v 0.492987 -0.198200 0.100612
v 0.492987 0.198200 0.100612
v 0.098426 0.198200 0.100612
vn -1.0000 -0.0000 -0.0000
vn -0.0000 -0.0000 -1.0000
vn 1.0000 -0.0000 -0.0000
vn -0.0000 -1.0000 -0.0000
vn -0.0000 1.0000 -0.0000
vn -0.0000 -0.0000 1.0000
vt 0.375000 0.000000
vt 0.625000 0.000000
vt 0.625000 0.250000
vt 0.375000 0.250000
vt 0.625000 0.500000
vt 0.375000 0.500000
vt 0.625000 0.750000
vt 0.375000 0.750000
vt 0.125000 0.500000
vt 0.250000 0.750000
vt 0.125000 0.750000
vt 0.875000 0.500000
vt 0.875000 0.750000
vt 0.750000 0.750000
vt 0.394463 0.768827
vt 0.605537 0.768827
vt 0.375000 0.875000
vt 0.625000 0.875000
vt 0.625000 1.000000
vt 0.375000 1.000000
vt 0.394463 0.856173
vt 0.605537 0.856173
vt 0.570471 0.780839
vt 0.570471 0.844161
vt 0.429529 0.780839
vt 0.429529 0.844161
s 0
f 1/1/1 2/2/1 4/3/1 3/4/1
f 3/4/2 4/3/2 8/5/2 7/6/2
f 7/6/3 8/5/3 13/7/3 12/8/3
f 3/9/4 7/6/4 12/8/4 11/10/4 1/11/4
f 8/5/5 4/12/5 2/13/5 14/14/5 13/7/5
f 5/15/5 6/16/5 17/16/5 16/15/5
f 11/17/6 14/18/6 2/19/6 1/20/6
f 5/15/6 9/21/6 11/17/6 12/8/6
f 6/16/6 5/15/6 12/8/6 13/7/6
f 10/22/6 6/16/6 13/7/6 14/18/6
f 9/21/6 10/22/6 14/18/6 11/17/6
f 17/16/5 18/22/5 26/22/5 25/16/5
f 6/16/5 10/22/5 18/22/5 17/16/5
f 9/21/5 5/15/5 16/15/5 15/21/5
f 10/22/5 9/21/5 15/21/5 18/22/5
f 21/23/4 22/24/4 30/24/4 29/23/4
f 15/21/4 16/15/4 24/15/4 23/21/4
f 18/22/1 15/21/1 23/21/1 26/22/1
f 16/15/3 17/16/3 25/16/3 24/15/3
f 20/25/6 19/26/6 23/21/6 24/15/6
f 21/23/6 20/25/6 24/15/6 25/16/6
f 22/24/6 21/23/6 25/16/6 26/22/6
f 19/26/6 22/24/6 26/22/6 23/21/6
f 28/25/6 29/23/6 30/24/6 27/26/6
f 19/26/5 20/25/5 28/25/5 27/26/5
f 22/24/3 19/26/3 27/26/3 30/24/3
f 20/25/1 21/23/1 29/23/1 28/25/1
