# Blender 4.0.2
# www.blender.org
mtllib safe_door.mtl
o Cube.001
v -0.745094 -0.992842 0.072220
v -0.745094 0.992842 0.072220
v -0.745094 -0.992842 -0.072220
v -0.745094 0.992842 -0.072220
v 0.590507 -0.296824 0.072220
v 0.590507 0.296824 0.072220
v 0.745094 -0.992842 -0.072220
v 0.745094 0.992842 -0.072220
v -0.126661 -0.296824 0.072220
v -0.126661 0.296824 0.072220
v -0.281248 -0.992842 0.072220
v 0.745094 -0.992842 0.072220
v 0.745094 0.992842 0.072220
v -0.281248 0.992842 0.072220
v -0.126661 -0.296824 0.072220
v 0.590507 -0.296824 0.072220
v 0.590507 0.296824 0.072220
v -0.126661 0.296824 0.072220
v 0.098426 -0.198200 0.130350
v 0.492987 -0.198200 0.130350
v 0.492987 0.198200 0.130350
v 0.098426 0.198200 0.130350
v -0.126661 -0.296824 0.130350
v 0.590507 -0.296824 0.130350
v 0.590507 0.296824 0.130350
v -0.126661 0.296824 0.130350
v 0.098426 -0.198200 0.100612
v 0.492987 -0.198200 0.100612
v 0.492987 0.198200 0.100612
v 0.098426 0.198200 0.100612
vn -1.0000 -0.0000 -0.0000
vn -0.0000 -0.0000 -1.0000
vn 1.0000 -0.0000 -0.0000
vn -0.0000 -1.0000 -0.0000
vn -0.0000 1.0000 -0.0000
vn -0.0000 -0.0000 1.0000
vt 0.360081 0.362655
vt 0.002957 0.362656
vt 0.002957 0.002957
vt 0.360081 0.002957
vt 0.550805 0.725694
vt 0.550805 0.368570
vt 0.818814 0.368570
vt 0.818814 0.725694
vt 0.723119 0.362655
vt 0.365995 0.362656
vt 0.365995 0.002957
vt 0.723119 0.002957
vt 0.270966 0.728268
vt 0.002957 0.728268
vt 0.002957 0.368570
vt 0.187544 0.368570
vt 0.270966 0.368570
vt 0.544890 0.728268
vt 0.276881 0.728268
vt 0.276881 0.368570
vt 0.360303 0.368570
vt 0.544890 0.368570
vt 0.495415 0.734183
vt 0.913620 0.360081
vt 0.913620 0.002957
vt 0.997043 0.002957
vt 0.997043 0.360081
vt 0.756836 0.234903
vt 0.885818 0.234903
vt 0.729034 0.360081
vt 0.756836 0.128136
vt 0.729034 0.002957
vt 0.885818 0.128136
vt 0.679787 0.876367
vt 0.550805 0.876367
vt 0.550805 0.731608
vt 0.679787 0.731608
vt 0.341002 0.814152
vt 0.411963 0.814152
vt 0.411963 0.888207
vt 0.341002 0.888207
vt 0.814683 0.876367
vt 0.685701 0.876367
vt 0.685701 0.731608
vt 0.814683 0.731608
vt 0.002957 0.734183
vt 0.109724 0.734183
vt 0.109724 0.878942
vt 0.002957 0.878942
vt 0.222406 0.878942
vt 0.115639 0.878942
vt 0.115639 0.734183
vt 0.222406 0.734183
vt 0.317350 0.845626
vt 0.317350 0.774664
vt 0.335087 0.734183
vt 0.335087 0.863165
vt 0.246058 0.845626
vt 0.228320 0.863165
vt 0.246058 0.774664
vt 0.228320 0.734183
vt 0.820598 0.802900
vt 0.820598 0.731608
vt 0.891559 0.731608
vt 0.891559 0.802900
vt 0.417878 0.814152
vt 0.488839 0.814152
vt 0.488839 0.888207
vt 0.417878 0.888207
vt 0.341002 0.734183
vt 0.412294 0.734183
vt 0.412294 0.808238
vt 0.341002 0.808238
vt 0.489501 0.808238
vt 0.418208 0.808238
vt 0.418208 0.734183
vt 0.489501 0.734183
s 0
usemtl Material
f 1/1/1 2/2/1 4/3/1 3/4/1
f 3/5/2 4/6/2 8/7/2 7/8/2
f 7/9/3 8/10/3 13/11/3 12/12/3
f 3/13/4 7/14/4 12/15/4 11/16/4 1/17/4
f 8/18/5 4/19/5 2/20/5 14/21/5 13/22/5
f 5/23/5 6/23/5 17/23/5 16/23/5
f 11/24/6 14/25/6 2/26/6 1/27/6
f 5/28/6 9/29/6 11/24/6 12/30/6
f 6/31/6 5/28/6 12/30/6 13/32/6
f 10/33/6 6/31/6 13/32/6 14/25/6
f 9/29/6 10/33/6 14/25/6 11/24/6
f 17/34/5 18/35/5 26/36/5 25/37/5
f 6/23/5 10/23/5 18/23/5 17/23/5
f 9/23/5 5/23/5 16/23/5 15/23/5
f 10/23/5 9/23/5 15/23/5 18/23/5
f 21/38/4 22/39/4 30/40/4 29/41/4
f 15/42/4 16/43/4 24/44/4 23/45/4
f 18/46/1 15/47/1 23/48/1 26/49/1
f 16/50/3 17/51/3 25/52/3 24/53/3
f 20/54/6 19/55/6 23/56/6 24/57/6
f 21/58/6 20/54/6 24/57/6 25/59/6
f 22/60/6 21/58/6 25/59/6 26/61/6
f 19/55/6 22/60/6 26/61/6 23/56/6
f 28/62/6 29/63/6 30/64/6 27/65/6
f 19/66/5 20/67/5 28/68/5 27/69/5
f 22/70/3 19/71/3 27/72/3 30/73/3
f 20/74/1 21/75/1 29/76/1 28/77/1
