# Blender 4.0.2
# www.blender.org
mtllib safe.mtl
o Cube
v 1.000000 -1.246518 -1.000000
v 0.750752 0.997270 1.000000
v 0.750752 -0.997270 1.000000
v -1.000000 -1.246518 -1.000000
v -0.750752 0.997270 1.000000
v -0.750752 -0.997270 1.000000
v -1.000000 -1.246518 1.000000
v 1.000000 -1.246518 1.000000
v -0.750752 -0.997270 -0.502285
v -0.750752 0.997270 -0.502285
v 0.750752 0.997270 -0.502285
v 0.750752 -0.997270 -0.502285
v 0.915698 1.246518 -1.000000
v 1.000000 1.162215 -1.000000
v -1.000000 1.162215 -1.000000
v -0.915698 1.246518 -1.000000
v -0.915698 1.246518 1.000000
v -1.000000 1.162215 1.000000
v -0.940389 1.186907 1.000000
v 1.000000 1.162215 1.000000
v 0.915698 1.246518 1.000000
v 0.940389 1.186907 1.000000
vn -1.0000 -0.0000 -0.0000
vn 1.0000 -0.0000 -0.0000
vn -0.0000 -0.0000 1.0000
vn -0.0000 -1.0000 -0.0000
vn -0.0000 1.0000 -0.0000
vn 0.7071 0.7071 -0.0000
vn -0.7071 0.7071 -0.0000
vn -0.0000 -0.0000 -1.0000
vt 0.375000 0.000000
vt 0.616546 0.000000
vt 0.616546 0.250000
vt 0.375000 0.250000
vt 0.600006 0.968844
vt 0.399994 0.968844
vt 0.619022 0.992549
vt 0.616546 1.000000
vt 0.375000 1.000000
vt 0.125000 0.500000
vt 0.375000 0.500000
vt 0.375000 0.750000
vt 0.125000 0.750000
vt 0.635538 0.500000
vt 0.864462 0.500000
vt 0.864462 0.750000
vt 0.635538 0.750000
vt 0.616546 0.500000
vt 0.616546 0.750000
vt 0.600006 0.781156
vt 0.619022 0.757451
vt 0.625000 0.760538
vt 0.625000 0.989462
vt 0.399994 0.781156
vt 0.619022 0.757451
vt 0.620773 0.994731
vt 0.620773 0.755269
vt 0.625000 0.000000
vt 0.625000 0.250000
vt 0.625000 0.260538
vt 0.625000 0.489462
s 0
usemtl Material
f 7/1/1 18/2/1 15/3/1 4/4/1
f 5/5/2 6/6/2 9/6/2 10/5/2
f 6/6/3 5/5/3 19/7/3 18/8/3 7/9/3
f 4/10/4 1/11/4 8/12/4 7/13/4
f 13/14/5 16/15/5 17/16/5 21/17/5
f 1/11/2 14/18/2 20/19/2 8/12/2
f 5/5/3 2/20/3 22/21/3 21/22/3 17/23/3 19/7/3
f 2/20/3 3/24/3 8/12/3 20/19/3 22/25/3
f 3/24/3 6/6/3 7/9/3 8/12/3
f 12/24/3 11/20/3 10/5/3 9/6/3
f 6/6/5 3/24/5 12/24/5 9/6/5
f 3/24/1 2/20/1 11/20/1 12/24/1
f 2/20/4 5/5/4 10/5/4 11/20/4
f 17/26/3 18/8/3 19/7/3
f 20/19/3 21/27/3 22/21/3
f 13/14/6 21/17/6 20/19/6 14/18/6
f 17/28/7 16/29/7 15/3/7 18/2/7
f 4/4/8 15/3/8 16/30/8 13/31/8 14/18/8 1/11/8
