# Blender 4.0.2
# www.blender.org
mtllib window_two_pane.mtl
o Cube
v 1.000000 1.500000 -0.100000
v 1.000000 -1.500000 -0.100000
v -1.000000 1.500000 -0.100000
v -1.000000 -1.500000 -0.100000
v 0.881867 1.381868 -0.038625
v 0.881867 0.073478 -0.038625
v -0.881867 0.073478 -0.038625
v -0.881867 1.381868 -0.038625
v 0.881867 -0.073478 -0.038625
v 0.881867 -1.381868 -0.038625
v -0.881867 -1.381868 -0.038625
v -0.881867 -0.073478 -0.038625
v 0.881867 0.073478 0.053244
v 0.928624 0.044396 0.100000
v 0.928624 1.428624 0.100000
v 0.881867 1.381868 0.053244
v -0.928624 1.428624 0.100000
v -0.881867 1.381868 0.053244
v -0.881867 0.073478 0.053244
v -0.928624 0.044396 0.100000
v 0.881867 -1.381868 0.053244
v 0.928624 -1.428624 0.100000
v 0.928624 -0.044396 0.100000
v 0.881867 -0.073478 0.053244
v -0.928624 -0.044396 0.100000
v -0.881867 -0.073478 0.053244
v -0.881867 -1.381868 0.053244
v -0.928624 -1.428624 0.100000
v 1.000000 1.500000 0.072068
v 0.972068 1.472068 0.100000
v 0.972068 -1.472068 0.100000
v 1.000000 -1.500000 0.072068
v -0.972068 1.472068 0.100000
v -1.000000 1.500000 0.072068
v -1.000000 -1.500000 0.072068
v -0.972068 -1.472068 0.100000
v -1.000000 0.000000 0.072068
v -0.972068 0.000000 0.100000
v 1.000000 0.000000 0.072068
v 0.972068 0.000000 0.100000
vn -0.0000 -0.0000 1.0000
vn -0.0000 -0.0000 -1.0000
vn -0.0000 -1.0000 -0.0000
vn -1.0000 -0.0000 -0.0000
vn -0.0000 1.0000 -0.0000
vn 1.0000 -0.0000 -0.0000
vn -0.7071 -0.0000 0.7071
vn -0.0000 0.8491 0.5282
vn -0.0000 -0.7071 0.7071
vn 0.7071 -0.0000 0.7071
vn -0.0000 0.7071 0.7071
vn -0.0000 -0.8491 0.5282
vt 0.008552 0.607732
vt 0.008552 0.308142
vt 0.017394 0.317178
vt 0.017394 0.598891
vt 0.404216 0.308142
vt 0.404216 0.607732
vt 0.395374 0.598891
vt 0.395374 0.317178
vt 0.008552 0.008552
vt 0.404216 0.008552
vt 0.395374 0.017394
vt 0.017394 0.017394
vt 0.415635 0.613417
vt 0.415635 0.002867
vt 0.822668 0.002867
vt 0.822668 0.613417
vt 0.967465 0.755048
vt 0.967465 0.396099
vt 0.985988 0.396099
vt 0.985988 0.755048
vt 0.664739 0.885431
vt 0.664739 0.619152
vt 0.683436 0.619152
vt 0.683436 0.885431
vt 0.021391 0.628668
vt 0.021391 0.987617
vt 0.002867 0.987617
vt 0.002867 0.628668
vt 0.828403 0.613417
vt 0.828403 0.308142
vt 0.828403 0.002867
vt 0.863422 0.002867
vt 0.863422 0.613417
vt 0.634572 0.619152
vt 0.634572 0.885431
vt 0.615875 0.885431
vt 0.615875 0.619152
vt 0.909911 0.409900
vt 0.909911 0.002867
vt 0.944604 0.002867
vt 0.944604 0.409900
vt 0.975267 0.012383
vt 0.975267 0.371332
vt 0.956744 0.371332
vt 0.956744 0.012383
vt 0.707868 0.619152
vt 0.707868 0.885431
vt 0.689171 0.885431
vt 0.689171 0.619152
vt 0.909911 0.822668
vt 0.909911 0.415635
vt 0.944604 0.415635
vt 0.944604 0.822668
vt 0.338127 0.978101
vt 0.071848 0.978101
vt 0.071848 0.619152
vt 0.338127 0.619152
vt 0.610141 0.978101
vt 0.343862 0.978101
vt 0.343862 0.619152
vt 0.610141 0.619152
vt 0.395374 0.299107
vt 0.017394 0.299107
vt 0.047590 0.987617
vt 0.047590 0.628668
vt 0.066113 0.628668
vt 0.066113 0.987617
vt 0.026909 0.026909
vt 0.026909 0.293188
vt 0.031623 0.619152
vt 0.031623 0.997133
vt 0.956744 0.764563
vt 0.956744 0.386583
vt 0.385859 0.293188
vt 0.385859 0.026909
vt 0.026909 0.323096
vt 0.026909 0.589375
vt 0.985988 0.002867
vt 0.985988 0.380848
vt 0.037358 0.997133
vt 0.037358 0.619152
vt 0.385859 0.589375
vt 0.385859 0.323096
vt 0.640307 0.885431
vt 0.640307 0.619152
vt 0.659004 0.619152
vt 0.659004 0.885431
vt 0.409900 0.002867
vt 0.409900 0.308142
vt 0.002867 0.613417
vt 0.002867 0.308142
vt 0.409900 0.613417
vt 0.002867 0.002867
vt 0.951009 0.008552
vt 0.951009 0.404216
vt 0.951009 0.421320
vt 0.951009 0.816984
vt 0.869157 0.613417
vt 0.869157 0.002867
vt 0.904176 0.002867
vt 0.904176 0.308142
vt 0.904176 0.613417
s 0
usemtl Material
f 31/1/1 40/2/1 23/3/1 22/4/1
f 38/5/1 36/6/1 28/7/1 25/8/1
f 36/6/1 31/1/1 22/4/1 28/7/1
f 30/9/1 33/10/1 17/11/1 15/12/1
f 4/13/2 3/14/2 1/15/2 2/16/2
f 16/17/3 18/18/3 8/19/3 5/20/3
f 21/21/4 24/22/4 9/23/4 10/24/4
f 19/25/5 13/26/5 6/27/5 7/28/5
f 35/29/4 37/30/4 34/31/4 3/32/4 4/33/4
f 18/34/6 19/35/6 7/36/6 8/37/6
f 1/38/5 3/39/5 34/40/5 29/41/5
f 27/42/5 21/43/5 10/44/5 11/45/5
f 26/46/6 27/47/6 11/48/6 12/49/6
f 4/50/3 2/51/3 32/52/3 35/53/3
f 6/54/1 5/55/1 8/56/1 7/57/1
f 10/58/1 9/59/1 12/60/1 11/61/1
f 33/10/1 38/5/1 20/62/1 17/11/1
f 40/2/1 30/9/1 15/12/1 14/63/1
f 38/5/1 40/2/1 14/63/1 20/62/1
f 40/2/1 38/5/1 25/8/1 23/3/1
f 24/64/3 26/65/3 12/66/3 9/67/3
f 16/68/7 13/69/7 14/63/7 15/12/7
f 13/26/8 19/25/8 20/70/8 14/71/8
f 15/72/9 17/73/9 18/18/9 16/17/9
f 19/74/10 18/75/10 17/11/10 20/62/10
f 24/76/7 21/77/7 22/4/7 23/3/7
f 28/78/11 22/79/11 21/43/11 27/42/11
f 23/80/12 25/81/12 26/65/12 24/64/12
f 27/82/10 26/83/10 25/8/10 28/7/10
f 13/84/4 16/85/4 5/86/4 6/87/4
f 38/5/7 33/10/7 34/88/7 37/89/7
f 40/2/10 31/1/10 32/90/10 39/91/10
f 36/6/7 38/5/7 37/89/7 35/92/7
f 30/9/10 40/2/10 39/91/10 29/93/10
f 29/41/11 34/40/11 33/94/11 30/95/11
f 35/53/9 32/52/9 31/96/9 36/97/9
f 2/98/6 1/99/6 29/100/6 39/101/6 32/102/6
