# Blender 4.0.2
# www.blender.org
mtllib wire.mtl
o Cylinder
v 0.856511 0.019611 -1.015280
v 1.000000 0.000000 -1.000000
v 0.610986 -0.686755 -0.852339
v 1.000000 -0.707107 -0.707107
v 0.040946 -0.978283 -0.432990
v 1.000000 -1.000000 0.000000
v -0.519686 -0.684198 -0.002883
v 1.000000 -0.707107 0.707107
v -0.742500 0.023228 0.186031
v 1.000000 0.000000 1.000000
v -0.496975 0.729595 0.023089
v 1.000000 0.707107 0.707107
v 0.073064 1.021122 -0.396259
v 1.000000 1.000000 0.000000
v 0.633696 0.727037 -0.826366
v 1.000000 0.707107 -0.707107
v 1.233228 -0.484218 -0.764624
v 1.018883 0.222889 -0.964230
v 1.750704 -0.777111 -0.282733
v 2.268179 -0.484218 0.199158
v 2.482525 0.222889 0.398764
v 2.268179 0.929996 0.199159
v 1.750704 1.222889 -0.282733
v 1.233228 0.929996 -0.764624
v 0.777835 0.073516 -1.022650
v 0.585328 -0.659143 -1.131914
v -0.015874 -1.020946 -1.437594
v -0.673597 -0.799954 -1.760628
v -1.002553 -0.125621 -1.911786
v -0.810047 0.607038 -1.802523
v -0.208844 0.968841 -1.496842
v 0.448878 0.747849 -1.173809
v 0.847363 0.114027 -1.158380
v 0.817102 -0.624606 -1.356605
v 0.710649 -1.005118 -2.012093
v 0.590362 -0.804610 -2.740869
v 0.526705 -0.140537 -3.116025
v 0.556966 0.598095 -2.917801
v 0.663420 0.978607 -2.262312
v 0.783706 0.778099 -1.533536
v 1.089364 0.219853 -1.096075
v 1.216806 -0.531367 -1.168274
v 1.699460 -0.961503 -1.577927
v 2.254592 -0.818586 -2.085065
v 2.557014 -0.186334 -2.392613
v 2.429572 0.564886 -2.320414
v 1.946918 0.995021 -1.910761
v 1.391786 0.852104 -1.403623
v 2.414049 0.302969 0.377399
v 2.541492 -0.448252 0.305200
v 3.024145 -0.878387 -0.104453
v 3.579278 -0.735470 -0.611592
v 3.881700 -0.103219 -0.919140
v 3.754257 0.648002 -0.846941
v 3.271604 1.078137 -0.437288
v 2.716472 0.935220 0.069850
v 2.383404 0.465449 0.375561
v 2.405653 -0.279625 0.549214
v 2.952560 -0.768161 0.768327
v 3.703757 -0.713981 0.904547
v 4.219200 -0.148822 0.878076
v 4.196951 0.596252 0.704423
v 3.650043 1.084788 0.485309
v 2.898847 1.030608 0.349090
v 1.433643 0.516684 0.892222
v 1.332805 -0.228391 1.035339
v 1.588285 -0.716927 1.566234
v 2.050426 -0.662746 2.173915
v 2.448513 -0.097588 2.502411
v 2.549350 0.647487 2.359295
v 2.293869 1.136023 1.828400
v 1.831728 1.081843 1.220719
v 1.151728 0.656955 0.975898
v 0.986860 -0.088120 1.034798
v 0.889877 -0.576656 1.615929
v 0.917591 -0.522476 2.378874
v 1.053767 0.042683 2.876707
v 1.218635 0.787758 2.817807
v 1.315617 1.276294 2.236676
v 1.287904 1.222114 1.473732
v 0.430041 0.370358 0.715735
v 0.256990 -0.374717 0.689206
v -0.104521 -0.863253 1.154425
v -0.442724 -0.809073 1.838874
v -0.559502 -0.243914 2.341611
v -0.386451 0.501161 2.368141
v -0.024940 0.989697 1.902921
v 0.313262 0.935516 1.218472
v -0.648399 0.665430 0.110561
v -0.821450 -0.079645 0.084031
v -1.182961 -0.568181 0.549250
v -1.521163 -0.514001 1.233700
v -1.637941 0.051158 1.736437
v -1.464890 0.796233 1.762967
v -1.103380 1.284769 1.297747
v -0.765178 1.230589 0.613298
v -0.648399 0.665430 0.110561
v -0.821450 -0.079645 0.084031
v -1.182961 -0.568181 0.549250
v -1.521163 -0.514001 1.233700
v -1.637941 0.051158 1.736437
v -1.464890 0.796233 1.762967
v -1.103380 1.284769 1.297747
v -0.765178 1.230589 0.613298
v -0.809242 0.522134 -0.576131
v -0.981996 -0.204048 -0.745259
v -1.586718 -0.658090 -0.627178
v -2.269172 -0.574022 -0.291059
v -2.629584 -0.001089 0.066205
v -2.456831 0.725092 0.235333
v -1.852109 1.179135 0.117252
v -1.169655 1.095066 -0.218867
v -0.885689 0.407416 -1.563416
v -0.892267 -0.323218 -1.791273
v -1.420302 -0.794582 -2.082445
v -2.160478 -0.730560 -2.266369
v -2.679209 -0.168652 -2.235303
v -2.672631 0.561981 -2.007447
v -2.144596 1.033346 -1.716275
v -1.404420 0.969323 -1.532351
v -0.176511 0.333863 -2.423097
v -0.112886 -0.395580 -2.645926
v -0.496694 -0.849684 -3.127867
v -1.103105 -0.762443 -3.586607
v -1.576892 -0.184961 -3.753419
v -1.640517 0.544482 -3.530591
v -1.256709 0.998587 -3.048650
v -0.650298 0.911345 -2.589911
v 0.595811 1.006768 -3.013770
v 0.952133 0.331109 -2.965739
v 1.119420 -0.228853 -3.459950
v 0.999678 -0.345100 -4.206902
v 0.663049 0.050464 -4.769037
v 0.306726 0.726122 -4.817069
v 0.139439 1.286084 -4.322857
v 0.259181 1.402331 -3.575906
v 3.007555 -0.127621 -2.098507
v 3.363877 -0.635441 -2.546771
v 3.531164 -0.675406 -3.292562
v 3.411422 -0.224103 -3.899008
v 3.074793 0.454098 -4.010856
v 2.718470 0.961918 -3.562594
v 2.551183 1.001882 -2.816802
v 2.670925 0.550580 -2.210357
v 2.890248 -0.305676 -0.118117
v 3.490573 -0.749737 0.049832
v 4.234228 -0.745618 -0.131127
v 4.685592 -0.295731 -0.554990
v 4.580258 0.336383 -0.973465
v 3.979935 0.780445 -1.141415
v 3.236279 0.776326 -0.960456
v 2.784915 0.326439 -0.536593
vn 0.2486 -0.3361 -0.9084
vn 0.1425 -0.9062 -0.3981
vn -0.1893 -0.9075 0.3751
vn -0.4003 -0.3513 0.8463
vn -0.3902 0.3433 0.8543
vn -0.1578 0.9069 0.3907
vn 0.2062 -0.8392 -0.5032
vn 0.1801 0.9075 -0.3796
vn 0.2644 0.3480 -0.8994
vn -0.3820 -0.9205 0.0819
vn 0.6815 -0.0000 -0.7318
vn 0.2999 0.3540 0.8859
vn -0.6520 0.3356 -0.6799
vn 0.3727 -0.2543 -0.8924
vn 0.3175 -0.8981 0.3043
vn -0.0213 0.8931 0.4493
vn 0.3985 -0.3549 0.8457
vn -0.4647 0.8576 -0.2203
vn 0.7688 -0.2403 0.5927
vn -0.4832 0.8743 0.0460
vn -0.9203 -0.3709 0.1243
vn 0.3750 0.9163 -0.1408
vn 0.4855 -0.8740 -0.0209
vn -0.9487 0.2932 0.1183
vn 0.7899 0.3296 -0.5172
vn 0.8736 -0.2808 -0.3974
vn -0.1052 0.9671 0.2317
vn 0.6667 0.4339 0.6061
vn -0.3403 0.8487 -0.4049
vn -0.5550 -0.4403 -0.7057
vn 0.3657 -0.8473 0.3851
vn 0.1918 0.9518 0.2396
vn -0.6041 0.2496 -0.7568
vn -0.1854 -0.9518 -0.2443
vn -0.3951 -0.8261 0.4018
vn 0.3182 0.1894 -0.9289
vn 0.1059 -0.9671 -0.2315
vn -0.3057 -0.1893 0.9331
vn -0.2894 0.4872 0.8239
vn 0.1719 0.8122 -0.5574
vn 0.2985 -0.4872 -0.8207
vn -0.1701 -0.8122 0.5580
vn -0.8318 0.5520 -0.0581
vn -0.1665 0.9815 0.0943
vn 0.7253 0.1867 -0.6626
vn 0.1665 -0.9815 -0.0943
vn -0.7253 -0.1867 0.6626
vn -0.6306 0.5620 0.5352
vn 0.3951 0.8261 -0.4018
vn 0.6306 -0.5620 -0.5352
vn 0.5140 -0.5834 0.6288
vn 0.6324 0.7494 -0.1962
vn 0.8047 -0.5821 -0.1164
vn -0.6576 -0.7505 0.0653
vn -0.1527 0.9882 -0.0127
vn 0.9712 0.0820 -0.2239
vn 0.1631 -0.9853 0.0507
vn -0.8867 -0.1190 -0.4468
vn -0.1068 0.6192 -0.7779
vn -0.3412 -0.7324 -0.5892
vn -0.0363 0.9957 -0.0858
vn 0.6894 0.1156 0.7151
vn 0.0309 -0.9950 0.0945
vn -0.4448 -0.1637 -0.8805
vn -0.4531 0.5530 -0.6991
vn 0.4821 0.7471 0.4575
vn -0.2103 0.9705 -0.1178
vn 0.3148 0.7348 0.6008
vn 0.1093 -0.6198 0.7771
vn -0.2300 -0.7471 -0.6236
vn 0.1277 0.9841 -0.1235
vn 0.2985 0.0758 0.9514
vn -0.1332 -0.9831 0.1253
vn -0.1750 -0.1016 -0.9793
vn 0.1629 -0.7409 -0.6515
vn -0.3060 0.0900 0.9478
vn 0.1891 -0.9754 0.1136
vn 0.4209 -0.1150 -0.8998
vn 0.0036 0.6628 -0.7488
vn -0.3012 0.7592 0.5770
vn -0.1422 -0.6547 0.7424
vn 0.4713 -0.7381 -0.4827
vn 1.0000 -0.0000 -0.0000
vn 0.2414 0.9695 0.0425
vn -0.4715 0.0782 0.8784
vn -0.2414 -0.9695 -0.0425
vn 0.4715 -0.0782 -0.8784
vn 0.5040 0.6299 -0.5910
vn -0.1629 0.7409 0.6515
vn -0.5040 -0.6299 0.5910
vn -0.0558 -0.9953 0.0790
vn 0.0923 0.9906 -0.1009
vn 0.9643 -0.2043 -0.1684
vn 0.7192 0.5849 -0.3750
vn -0.5611 0.7673 0.3105
vn -0.6970 -0.5948 0.4004
vn 0.6606 -0.7431 -0.1065
vn 0.0099 0.9922 -0.1245
vn -0.8449 0.1295 0.5191
vn -0.6356 -0.6100 -0.4732
vn -0.9928 0.1086 0.0501
vn -0.0951 -0.9925 0.0772
vn 0.9916 -0.1278 0.0212
vn 0.7505 0.6390 -0.1683
vn -0.6344 0.7727 0.0206
vn -0.7840 -0.6197 0.0361
vn 0.6131 -0.7771 0.1422
vn 0.1874 0.6841 0.7049
vn 0.4298 -0.7895 0.4382
vn 0.0980 0.9948 0.0287
vn -0.8092 0.1442 -0.5695
vn -0.0923 -0.9949 -0.0407
vn 0.7363 -0.1731 0.6541
vn 0.6458 0.6163 0.4506
vn -0.5025 0.7895 -0.3524
vn 0.2897 0.4586 -0.8401
vn -0.5184 0.6479 -0.5581
vn -0.1682 -0.6769 -0.7166
vn 0.4737 -0.6612 0.5818
vn -0.2202 0.9693 0.1093
vn -0.4789 -0.0340 -0.8772
vn 0.2382 -0.9637 -0.1203
vn 0.4333 0.0174 0.9011
vn -0.7808 0.5728 0.2497
vn -0.0426 -0.9715 -0.2330
vn -0.4285 -0.5102 0.7457
vn -0.2552 0.3942 0.8829
vn 0.2236 0.8997 -0.3749
vn 0.2391 -0.4042 -0.8829
vn -0.3023 -0.8875 0.3478
vn 0.0955 0.9701 0.2232
vn 0.1923 0.5638 0.8032
vn 0.6340 0.7202 -0.2819
vn 0.7807 -0.5728 -0.2498
vn -0.7110 -0.7018 -0.0434
vn -0.9422 -0.3330 -0.0375
vn 0.0925 0.9943 0.0525
vn 0.9083 0.1480 -0.3913
vn -0.0626 -0.9978 -0.0229
vt 1.000000 0.500000
vt 1.000000 1.000000
vt 0.875000 1.000000
vt 0.875000 0.500000
vt 0.750000 1.000000
vt 0.750000 0.500000
vt 0.625000 1.000000
vt 0.625000 0.500000
vt 0.500000 1.000000
vt 0.500000 0.500000
vt 0.375000 1.000000
vt 0.375000 0.500000
vt 0.250000 1.000000
vt 0.250000 0.500000
vt 0.125000 1.000000
vt 0.125000 0.500000
vt 0.000000 1.000000
vt 0.000000 0.500000
vt 0.419706 0.419706
vt 0.250000 0.490000
vt 0.080294 0.419706
vt 0.010000 0.250000
vt 0.080294 0.080294
vt 0.250000 0.010000
vt 0.419706 0.080294
vt 0.490000 0.250000
vt 0.750000 0.490000
vt 0.919706 0.419706
vt 0.990000 0.250000
vt 0.919706 0.080294
vt 0.750000 0.010000
vt 0.580294 0.080294
vt 0.510000 0.250000
vt 0.580294 0.419706
s 0
f 1/1/1 2/2/1 4/3/1 3/4/1
f 3/4/2 4/3/2 6/5/2 5/6/2
f 5/6/3 6/5/3 8/7/3 7/8/3
f 7/8/4 8/7/4 10/9/4 9/10/4
f 9/10/5 10/9/5 12/11/5 11/12/5
f 11/12/6 12/11/6 14/13/6 13/14/6
f 6/5/7 4/3/7 17/3/7 19/5/7
f 13/14/8 14/13/8 16/15/8 15/16/8
f 15/16/9 16/15/9 2/17/9 1/18/9
f 5/6/10 7/8/10 28/8/10 27/6/10
f 17/19/11 18/20/11 24/21/11 23/22/11 22/23/11 21/24/11 20/25/11 19/26/11
f 12/11/12 10/9/12 21/9/12 22/11/12
f 2/17/13 16/15/13 24/15/13 18/17/13
f 4/3/14 2/2/14 18/2/14 17/3/14
f 8/7/15 6/5/15 19/5/15 20/7/15
f 14/13/16 12/11/16 22/11/16 23/13/16
f 10/9/17 8/7/17 20/7/17 21/9/17
f 16/15/18 14/13/18 23/13/18 24/15/18
f 25/1/19 26/4/19 34/4/19 33/1/19
f 11/12/20 13/14/20 31/14/20 30/12/20
f 7/8/21 9/10/21 29/10/21 28/8/21
f 13/14/22 15/16/22 32/16/22 31/14/22
f 3/4/23 5/6/23 27/6/23 26/4/23
f 9/10/24 11/12/24 30/12/24 29/10/24
f 15/16/25 1/18/25 25/18/25 32/16/25
f 1/1/26 3/4/26 26/4/26 25/1/26
f 39/14/27 40/16/27 48/16/27 47/14/27
f 32/16/28 25/18/28 33/18/28 40/16/28
f 30/12/29 31/14/29 39/14/29 38/12/29
f 28/8/30 29/10/30 37/10/30 36/8/30
f 26/4/31 27/6/31 35/6/31 34/4/31
f 31/14/32 32/16/32 40/16/32 39/14/32
f 29/10/33 30/12/33 38/12/33 37/10/33
f 27/6/34 28/8/34 36/8/34 35/6/34
f 42/4/35 43/6/35 51/6/35 50/4/35
f 37/10/36 38/12/36 46/12/36 45/10/36
f 35/6/37 36/8/37 44/8/37 43/6/37
f 33/1/38 34/4/38 42/4/38 41/1/38
f 40/16/39 33/18/39 41/18/39 48/16/39
f 38/12/40 39/14/40 47/14/40 46/12/40
f 36/8/41 37/10/41 45/10/41 44/8/41
f 34/4/42 35/6/42 43/6/42 42/4/42
f 56/16/43 49/18/43 57/18/43 64/16/43
f 47/14/44 48/16/44 56/16/44 55/14/44
f 45/10/45 46/12/45 54/12/45 53/10/45
f 43/6/46 44/8/46 52/8/46 51/6/46
f 41/1/47 42/4/47 50/4/47 49/1/47
f 48/16/48 41/18/48 49/18/48 56/16/48
f 46/12/49 47/14/49 55/14/49 54/12/49
f 44/8/50 45/10/50 53/10/50 52/8/50
f 60/8/51 61/10/51 69/10/51 68/8/51
f 54/12/52 55/14/52 63/14/52 62/12/52
f 52/8/53 53/10/53 61/10/53 60/8/53
f 50/4/54 51/6/54 59/6/54 58/4/54
f 55/14/55 56/16/55 64/16/55 63/14/55
f 53/10/56 54/12/56 62/12/56 61/10/56
f 51/6/57 52/8/57 60/8/57 59/6/57
f 49/1/58 50/4/58 58/4/58 57/1/58
f 72/16/59 65/18/59 73/18/59 80/16/59
f 58/4/60 59/6/60 67/6/60 66/4/60
f 63/14/61 64/16/61 72/16/61 71/14/61
f 61/10/62 62/12/62 70/12/62 69/10/62
f 59/6/63 60/8/63 68/8/63 67/6/63
f 57/1/64 58/4/64 66/4/64 65/1/64
f 64/16/65 57/18/65 65/18/65 72/16/65
f 62/12/66 63/14/66 71/14/66 70/12/66
f 79/14/67 80/16/67 88/16/67 87/14/67
f 70/12/68 71/14/68 79/14/68 78/12/68
f 68/8/69 69/10/69 77/10/69 76/8/69
f 66/4/70 67/6/70 75/6/70 74/4/70
f 71/14/71 72/16/71 80/16/71 79/14/71
f 69/10/72 70/12/72 78/12/72 77/10/72
f 67/6/73 68/8/73 76/8/73 75/6/73
f 65/1/74 66/4/74 74/4/74 73/1/74
f 82/4/75 83/6/75 91/6/75 90/4/75
f 77/10/76 78/12/76 86/12/76 85/10/76
f 75/6/77 76/8/77 84/8/77 83/6/77
f 73/1/78 74/4/78 82/4/78 81/1/78
f 80/16/79 73/18/79 81/18/79 88/16/79
f 78/12/80 79/14/80 87/14/80 86/12/80
f 76/8/81 77/10/81 85/10/81 84/8/81
f 74/4/82 75/6/82 83/6/82 82/4/82
f 96/16/83 89/18/83 97/18/83 104/16/83
f 87/14/84 88/16/84 96/16/84 95/14/84
f 85/10/85 86/12/85 94/12/85 93/10/85
f 83/6/86 84/8/86 92/8/86 91/6/86
f 81/1/87 82/4/87 90/4/87 89/1/87
f 88/16/88 81/18/88 89/18/88 96/16/88
f 86/12/89 87/14/89 95/14/89 94/12/89
f 84/8/90 85/10/90 93/10/90 92/8/90
f 99/6/91 100/8/91 108/8/91 107/6/91
f 94/12/83 95/14/83 103/14/83 102/12/83
f 92/8/83 93/10/83 101/10/83 100/8/83
f 90/4/83 91/6/83 99/6/83 98/4/83
f 95/14/83 96/16/83 104/16/83 103/14/83
f 93/10/83 94/12/83 102/12/83 101/10/83
f 91/6/83 92/8/83 100/8/83 99/6/83
f 89/1/83 90/4/83 98/4/83 97/1/83
f 111/14/92 112/16/92 120/16/92 119/14/92
f 97/1/93 98/4/93 106/4/93 105/1/93
f 104/16/94 97/18/94 105/18/94 112/16/94
f 102/12/95 103/14/95 111/14/95 110/12/95
f 100/8/96 101/10/96 109/10/96 108/8/96
f 98/4/97 99/6/97 107/6/97 106/4/97
f 103/14/98 104/16/98 112/16/98 111/14/98
f 101/10/99 102/12/99 110/12/99 109/10/99
f 116/8/100 117/10/100 125/10/100 124/8/100
f 109/10/101 110/12/101 118/12/101 117/10/101
f 107/6/102 108/8/102 116/8/102 115/6/102
f 105/1/103 106/4/103 114/4/103 113/1/103
f 112/16/104 105/18/104 113/18/104 120/16/104
f 110/12/105 111/14/105 119/14/105 118/12/105
f 108/8/106 109/10/106 117/10/106 116/8/106
f 106/4/107 107/6/107 115/6/107 114/4/107
f 128/16/108 121/18/108 129/18/108 136/16/108
f 114/4/109 115/6/109 123/6/109 122/4/109
f 119/14/110 120/16/110 128/16/110 127/14/110
f 117/10/111 118/12/111 126/12/111 125/10/111
f 115/6/112 116/8/112 124/8/112 123/6/112
f 113/1/113 114/4/113 122/4/113 121/1/113
f 120/16/114 113/18/114 121/18/114 128/16/114
f 118/12/115 119/14/115 127/14/115 126/12/115
f 133/10/116 134/12/116 142/12/116 141/10/116
f 126/12/117 127/14/117 135/14/117 134/12/117
f 124/8/118 125/10/118 133/10/118 132/8/118
f 122/4/119 123/6/119 131/6/119 130/4/119
f 127/14/120 128/16/120 136/16/120 135/14/120
f 125/10/121 126/12/121 134/12/121 133/10/121
f 123/6/122 124/8/122 132/8/122 131/6/122
f 121/1/123 122/4/123 130/4/123 129/1/123
f 143/14/124 144/16/124 152/16/124 151/14/124
f 131/6/125 132/8/125 140/8/125 139/6/125
f 129/1/126 130/4/126 138/4/126 137/1/126
f 136/16/127 129/18/127 137/18/127 144/16/127
f 134/12/128 135/14/128 143/14/128 142/12/128
f 132/8/129 133/10/129 141/10/129 140/8/129
f 130/4/130 131/6/130 139/6/130 138/4/130
f 135/14/131 136/16/131 144/16/131 143/14/131
f 145/27/132 146/28/132 147/29/132 148/30/132 149/31/132 150/32/132 151/33/132 152/34/132
f 141/10/133 142/12/133 150/12/133 149/10/133
f 139/6/134 140/8/134 148/8/134 147/6/134
f 137/1/135 138/4/135 146/4/135 145/1/135
f 144/16/136 137/18/136 145/18/136 152/16/136
f 142/12/137 143/14/137 151/14/137 150/12/137
f 140/8/138 141/10/138 149/10/138 148/8/138
f 138/4/139 139/6/139 147/6/139 146/4/139
