# Blender 4.0.2
# www.blender.org
mtllib work_desk.mtl
o Cube
v 2.006395 -0.106156 -0.934190
v 1.979569 -0.106156 0.923403
v -1.913352 -0.106156 -0.841587
v -1.765177 -0.254332 0.841587
v 1.677164 -0.106156 0.923403
v 1.979569 -0.106156 0.644293
v 1.687859 -0.106156 -0.934190
v 1.677164 -0.106156 0.644293
v 2.006395 -0.106156 -0.647554
v -0.306588 -0.254332 0.841587
v 1.687859 -0.106156 -0.647554
v -0.158413 -0.106156 -0.841587
v 2.071765 -0.106156 0.000000
v -0.158413 -0.106156 0.000000
v 1.979569 -0.106156 0.644293
v 1.979569 -0.106156 0.923403
v 1.677164 -0.106156 0.923403
v 1.677164 -0.106156 0.644293
v 1.687859 -0.106156 -0.934190
v 2.006395 -0.106156 -0.934190
v 2.006395 -0.106156 -0.647554
v 1.687859 -0.106156 -0.647554
v 0.000000 -0.106156 1.000000
v 0.000000 -0.106156 -1.000000
v 0.000000 -0.106156 0.000000
v 1.979569 -1.964133 0.644293
v 1.979569 -1.964133 0.923403
v 1.677164 -1.964133 0.923403
v 1.677164 -1.964133 0.644293
v 1.687859 -1.964133 -0.934190
v 2.006395 -1.964133 -0.934190
v 2.006395 -1.964133 -0.647554
v 1.687859 -1.964133 -0.647554
v -0.293270 -1.829276 0.841587
v -1.778495 -1.829276 0.841587
v -1.913352 -1.964133 -0.841587
v -0.158413 -1.964133 -0.841587
v -0.158413 -1.964133 0.000000
v -0.306588 -0.886969 0.841587
v -1.765177 -0.886969 0.841587
v -1.778495 -1.170001 0.841587
v -1.913352 -0.106156 0.841587
v -0.158413 -0.106156 0.841587
v -0.293270 -1.170001 0.841587
v -0.158413 -1.035144 0.841587
v -0.158413 -1.964133 0.841587
v -1.913352 -1.964133 0.841587
v -1.913352 -1.035144 0.841587
v -1.765177 -0.886969 -0.450435
v -1.765177 -0.254332 -0.450435
v -0.306588 -0.254332 -0.450435
v -0.306588 -0.886969 -0.450435
v -0.293270 -1.170001 -0.450435
v -0.293270 -1.829276 -0.450435
v -1.778495 -1.829276 -0.450435
v -1.778495 -1.170001 -0.450435
v 1.932645 0.106156 -1.000000
v 2.071765 0.106156 -0.860880
v 2.071765 0.106156 0.860880
v 1.932645 0.106156 1.000000
v -2.071765 0.106156 -0.860880
v -1.932645 0.106156 -1.000000
v -1.932645 0.106156 1.000000
v -2.071765 0.106156 0.860880
v 1.932645 -0.106156 1.000000
v 2.071765 -0.106156 0.860880
v 1.979607 -0.106156 0.923435
v 2.071765 -0.106156 -0.860880
v 1.932645 -0.106156 -1.000000
v 2.006431 -0.106156 -0.934225
v -2.071765 -0.106156 0.860880
v -1.932645 -0.106156 1.000000
v -1.973392 -0.106156 0.901627
v -1.932645 -0.106156 -1.000000
v -2.071765 -0.106156 -0.860880
v -1.973392 -0.106156 -0.901627
vn -1.0000 -0.0000 -0.0000
vn -0.0000 1.0000 -0.0000
vn -0.0000 -0.0000 1.0000
vn 1.0000 -0.0000 -0.0000
vn -0.0000 -1.0000 -0.0000
vn -0.0000 -0.0000 -1.0000
vn 0.7071 -0.0000 -0.7071
vn -0.7071 -0.0000 0.7071
vn 0.7071 -0.0000 0.7071
vn -0.7071 -0.0000 -0.7071
vt 0.375000 0.017390
vt 0.375000 0.232610
vt 0.625000 0.232610
vt 0.625000 0.017390
vt 0.646747 0.670056
vt 0.646747 0.704944
vt 0.646738 0.704963
vt 0.625000 0.732610
vt 0.625000 0.625000
vt 0.375000 0.758394
vt 0.375000 0.991606
vt 0.625000 0.991606
vt 0.625000 0.875000
vt 0.625000 0.758394
vt 0.125000 0.517390
vt 0.125000 0.732610
vt 0.133394 0.750000
vt 0.366606 0.750000
vt 0.375000 0.732610
vt 0.375000 0.517390
vt 0.366606 0.500000
vt 0.133394 0.500000
vt 0.625000 0.517390
vt 0.728253 0.704944
vt 0.728252 0.670056
vt 0.727105 0.547433
vt 0.727105 0.577567
vt 0.750000 0.750000
vt 0.633394 0.750000
vt 0.646738 0.704963
vt 0.647895 0.547433
vt 0.647883 0.547407
vt 0.633394 0.500000
vt 0.750000 0.500000
vt 0.750000 0.625000
vt 0.647895 0.577567
vt 0.647883 0.547407
vt 0.759558 0.730198
vt 0.866606 0.750000
vt 0.869065 0.737703
vt 0.865442 0.730198
vt 0.759558 0.625000
vt 0.759558 0.519802
vt 0.875000 0.732610
vt 0.875000 0.517390
vt 0.869065 0.512297
vt 0.865442 0.519802
vt 0.866606 0.500000
vt 0.856502 0.730198
vt 0.768498 0.730198
vt 0.768498 0.730198
vt 0.856502 0.730198
vt 0.767694 0.730198
vt 0.767694 0.730198
vt 0.857306 0.730198
vt 0.857305 0.730198
vt 0.641130 0.716582
vt 0.625000 0.500000
vt 0.625000 0.496058
vt 0.625000 0.491606
vt 0.870803 0.741305
vt 0.870803 0.508695
vt 0.869065 0.512297
vt 0.375000 0.491606
vt 0.375000 0.000000
vt 0.625000 0.000000
vt 0.625000 0.258394
vt 0.375000 0.258394
vt 0.625000 0.375000
s 0
usemtl Material
f 64/1/1 61/2/1 75/3/1 71/4/1
f 6/5/2 2/6/2 67/7/2 66/8/2 13/9/2
f 60/10/3 63/11/3 72/12/3 23/13/3 65/14/3
f 61/15/2 64/16/2 63/17/2 60/18/2 59/19/2 58/20/2 57/21/2 62/22/2
f 58/20/4 59/19/4 66/8/4 13/9/4 68/23/4
f 5/24/2 2/6/2 16/6/2 17/24/2
f 6/5/2 8/25/2 18/25/2 15/5/2
f 19/26/1 30/26/1 33/27/1 22/27/1
f 2/6/2 5/24/2 23/28/2 65/29/2 67/30/2
f 7/26/2 1/31/2 70/32/2 69/33/2 24/34/2
f 5/24/2 8/25/2 25/35/2 23/28/2
f 8/25/5 25/35/5 13/9/5 6/5/5
f 1/31/2 9/36/2 13/9/2 68/23/2 70/37/2
f 43/38/5 23/28/5 72/39/5 73/40/5 42/41/5
f 11/27/2 7/26/2 24/34/2 25/35/2
f 9/36/2 11/27/2 25/35/2 13/9/2
f 14/42/4 38/42/4 37/43/4 12/43/4
f 21/36/4 32/36/4 31/31/4 20/31/4
f 7/26/2 11/27/2 22/27/2 19/26/2
f 1/31/2 7/26/2 19/26/2 20/31/2
f 8/25/2 5/24/2 17/24/2 18/25/2
f 11/27/2 9/36/2 21/36/2 22/27/2
f 2/6/2 6/5/2 15/5/2 16/6/2
f 9/36/2 1/31/2 20/31/2 21/36/2
f 42/41/5 73/40/5 71/44/5 75/45/5 76/46/5 3/47/5
f 3/47/5 76/46/5 74/48/5 24/34/5 12/43/5
f 14/42/5 25/35/5 23/28/5 43/38/5
f 12/43/5 24/34/5 25/35/5 14/42/5
f 37/43/5 38/42/5 46/38/5 47/41/5 36/47/5
f 26/5/5 27/6/5 28/24/5 29/25/5
f 31/31/5 32/36/5 33/27/5 30/26/5
f 22/27/3 33/27/3 32/36/3 21/36/3
f 16/6/4 27/6/4 26/5/4 15/5/4
f 17/24/3 28/24/3 27/6/3 16/6/3
f 18/25/1 29/25/1 28/24/1 17/24/1
f 3/47/1 36/47/1 47/41/1 48/41/1 42/41/1
f 15/5/6 26/5/6 29/25/6 18/25/6
f 12/43/6 37/43/6 36/47/6 3/47/6
f 20/31/6 31/31/6 30/26/6 19/26/6
f 43/38/4 45/38/4 46/38/4 38/42/4 14/42/4
f 4/49/5 50/49/5 51/50/5 10/50/5
f 39/51/2 52/51/2 49/52/2 40/52/2
f 4/49/3 42/41/3 48/41/3 40/52/3
f 10/50/3 43/38/3 42/41/3 4/49/3
f 39/51/3 45/38/3 43/38/3 10/50/3
f 40/52/3 48/41/3 45/38/3 39/51/3
f 34/53/3 46/38/3 45/38/3 44/54/3
f 35/55/3 47/41/3 46/38/3 34/53/3
f 41/56/3 48/41/3 47/41/3 35/55/3
f 44/54/3 45/38/3 48/41/3 41/56/3
f 50/49/3 49/52/3 52/51/3 51/50/3
f 56/56/3 55/55/3 54/53/3 53/54/3
f 35/55/4 55/55/4 56/56/4 41/56/4
f 44/54/1 53/54/1 54/53/1 34/53/1
f 10/50/1 51/50/1 52/51/1 39/51/1
f 41/56/5 56/56/5 53/54/5 44/54/5
f 40/52/4 49/52/4 50/49/4 4/49/4
f 34/53/2 54/53/2 55/55/2 35/55/2
f 65/29/5 67/30/5 66/57/5
f 68/58/2 70/59/2 69/60/2
f 71/44/5 73/40/5 72/61/5
f 74/62/5 76/63/5 75/45/5
f 68/23/7 69/60/7 57/64/7 58/20/7
f 63/65/8 64/1/8 71/4/8 72/66/8
f 65/14/9 66/8/9 59/19/9 60/10/9
f 74/67/10 75/3/10 61/2/10 62/68/10
f 62/68/6 57/64/6 69/60/6 24/69/6 74/67/6
